<svg xml:space="preserve" xmlns="http://www.w3.org/2000/svg" version="1.1" width="24" height="24" xmlns:xlink="http://www.w3.org/1999/xlink" style="width: 100%; height: 100%; animation-play-state: paused;"><rect id="backgroundrect" width="48.29931972789116" height="50.15040027851961" x="19.727890014648438" y="10.884353637695312" fill="none" stroke="none" style="--darkreader-inline-fill:none; --darkreader-inline-stroke:none;" data-darkreader-inline-fill="" data-darkreader-inline-stroke="" class=""/><!-- generated by https://loading.io/ --><g class="currentLayer" style=""><title>Layer 1</title><g class="ldl-scale" style="transform-origin:50% 50% 0px;transform:rotate(0deg) scale(0.8);animation-play-state:paused" id="svg_1"><circle fill="#333" r="14.585033416748047" cy="11.83674088942356" cx="11.959186083474972" data-darkreader-inline-fill="" style="fill: rgb(51, 51, 51); animation-play-state: paused; --darkreader-inline-fill:#c8c3bc;" id="svg_2"/>
<path fill="#fff" d="M18.606429934501648,13.00455280393362 h0.24319161474704742 a1.262569785118103,1.427673101425171 0 0 0 1.1916391849517822,0.9647679924964905 a1.2621647119522095,1.4272148609161377 0 0 0 1.2609485387802124,-1.4258400201797485 a1.2621647119522095,1.4272148609161377 0 0 0 -1.2609485387802124,-1.4258400201797485 a1.2617594003677368,1.4267566204071045 0 0 0 -1.1806954145431519,0.9303938746452332 a2.176564931869507,2.4611895084381104 0 0 0 0.010943623259663582,-0.22595272958278656 a2.2547922134399414,2.54964542388916 0 0 0 -0.7628111839294434,-1.9020365476608276 a2.245469331741333,2.5391042232513428 0 0 0 0.0802532434463501,-0.6595253944396973 c0,-0.36574098467826843 -0.07174152880907059,-0.7154407501220703 -0.19779586791992188,-1.032599687576294 l0.47057586908340454,-0.5586944818496704 c0.1605064868927002,0.08387292921543121 0.3384416997432709,0.1319967359304428 0.5261045694351196,0.1319967359304428 a1.2621647119522095,1.4272148609161377 0 0 0 1.2609485387802124,-1.4258400201797485 a1.262569785118103,1.427673101425171 0 0 0 -1.2609485387802124,-1.4258400201797485 a1.262569785118103,1.427673101425171 0 0 0 -1.2609485387802124,1.4258400201797485 c0,0.23741082847118378 0.05228618532419205,0.46107199788093567 0.14348305761814117,0.6586088538169861 l-0.3550598621368408,0.4216562807559967 a2.2422268390655518,2.5354373455047607 0 0 0 -1.1575921773910522,-0.6897746324539185 a2.2495229244232178,2.543687582015991 0 0 0 -1.4587444067001343,-2.125697374343872 l1.010461449623108,-1.5940442085266113 h1.2872943878173828 a1.2617594003677368,1.4267566204071045 0 0 0 1.1916391849517822,0.9647679924964905 a1.2621647119522095,1.4272148609161377 0 0 0 1.2609485387802124,-1.4258400201797485 a1.262569785118103,1.427673101425171 0 0 0 -1.2609485387802124,-1.4258400201797485 a1.2613539695739746,1.4262983798980713 0 0 0 -1.1916391849517822,0.9647679924964905 h-1.7059897184371948 l-1.4996817111968994,2.365858316421509 a2.2462801933288574,2.5400209426879883 0 0 0 -1.841366171836853,1.3208839893341064 a2.2507386207580566,2.54506254196167 0 0 0 -1.6346532106399536,-1.296593189239502 v-0.9028945565223694 a1.2629752159118652,1.4281314611434937 0 0 0 0.8531972169876099,-1.3479254245758057 a1.262569785118103,1.427673101425171 0 0 0 -1.2609485387802124,-1.4258400201797485 a1.2621647119522095,1.4272148609161377 0 0 0 -1.2609485387802124,1.4258400201797485 c0,0.6246930360794067 0.35749173164367676,1.1558880805969238 0.8531972169876099,1.3479254245758057 v0.9303938746452332 a2.2499279975891113,2.5441460609436035 0 0 0 -1.7582753896713257,2.2246949672698975 c-0.09687132388353348,0.020624490454792976 -0.19050012528896332,0.05041542276740074 -0.2821022868156433,0.08478960394859314 l-1.5892571210861206,-1.9203697443008423 H5.068760275840759 a1.2617594003677368,1.4267566204071045 0 0 0 -1.1916391849517822,-0.9647679924964905 a1.2621647119522095,1.4272148609161377 0 0 0 -1.2609485387802124,1.4258400201797485 a1.262569785118103,1.427673101425171 0 0 0 1.2609485387802124,1.4258400201797485 A1.2613539695739746,1.4262983798980713 0 0 0 5.068760275840759,5.852893315255642 h0.6477003693580627 l1.2074464559555054,1.459755778312683 a2.247901201248169,2.5418541431427 0 0 0 -0.8134762048721313,1.9492435455322266 c0,0.2254944145679474 0.02958831563591957,0.44640567898750305 0.0802532434463501,0.6595253944396973 a2.2556023597717285,2.5505619049072266 0 0 0 -0.7628111839294434,1.9020365476608276 c0,0.7278154492378235 0.2833182215690613,1.4221733808517456 0.7620005011558533,1.9015780687332153 a2.243037462234497,2.5363540649414062 0 0 0 -0.07984792441129684,0.6599836945533752 c0,0.4739050567150116 0.11875858902931213,0.9207690358161926 0.32385018467903137,1.3039262294769287 H5.74969756603241 a1.2617594003677368,1.4267566204071045 0 0 0 -1.1916391849517822,-0.9647679924964905 a1.2621647119522095,1.4272148609161377 0 0 0 -1.2609485387802124,1.4258400201797485 a1.262569785118103,1.427673101425171 0 0 0 1.2609485387802124,1.4258400201797485 a1.2613539695739746,1.4262983798980713 0 0 0 1.1916391849517822,-0.9647679924964905 h1.412132740020752 v-0.08203963935375214 a2.2284462451934814,2.519854784011841 0 0 0 0.779834508895874,0.3510747253894806 a2.247901201248169,2.5418541431427 0 0 0 1.1312464475631714,1.9529105424880981 l-1.043697476387024,1.4162150621414185 h-1.900542974472046 a1.2617594003677368,1.4267566204071045 0 0 0 -1.1920446157455444,-0.9647679924964905 a1.262569785118103,1.427673101425171 0 0 0 -1.2609485387802124,1.4258400201797485 a1.262569785118103,1.427673101425171 0 0 0 1.2609485387802124,1.4258400201797485 a1.2621647119522095,1.4272148609161377 0 0 0 1.1920446157455444,-0.9647679924964905 h2.282353401184082 l1.4944127798080444,-2.027616500854492 c0.0887649655342102,0.011916372925043106 0.17874586582183838,0.020624490454792976 0.27034807205200195,0.020624490454792976 a2.2487120628356934,2.5427706241607666 0 0 0 1.9739058017730713,-1.3286758661270142 a2.2511441707611084,2.545520782470703 0 0 0 1.5657488107681274,1.2846767902374268 v0.9441434144973755 a1.2629752159118652,1.4281314611434937 0 0 0 -0.8531972169876099,1.3479254245758057 a1.262569785118103,1.427673101425171 0 0 0 1.2609485387802124,1.4258400201797485 a1.2621647119522095,1.4272148609161377 0 0 0 1.2609485387802124,-1.4258400201797485 a1.2617594003677368,1.4267566204071045 0 0 0 -0.8531972169876099,-1.3479254245758057 v-0.942768394947052 a2.2474961280822754,2.541395664215088 0 0 0 1.3886243104934692,-0.9757676720619202 l1.0911197662353516,1.2626773118972778 h0.6687769889831543 a1.2617594003677368,1.4267566204071045 0 0 0 1.1916391849517822,0.9647679924964905 a1.2621647119522095,1.4272148609161377 0 0 0 1.2609485387802124,-1.4258400201797485 a1.262569785118103,1.427673101425171 0 0 0 -1.2609485387802124,-1.4258400201797485 a1.2613539695739746,1.4262983798980713 0 0 0 -1.1916391849517822,0.9647679924964905 h-0.3250661790370941 l-1.059099555015564,-1.2255531549453735 c0.02837235853075981,-0.12374697625637054 0.05066492781043053,-0.25024378299713135 0.062419187277555466,-0.38040733337402344 c1.043697476387024,-0.2222861796617508 1.831233024597168,-1.270468831062317 1.831233024597168,-2.495105504989624 c0,-0.22641107439994812 -0.029182998463511467,-0.4473223090171814 -0.07984792441129684,-0.6599836945533752 a2.2888388633728027,2.5881450176239014 0 0 0 0.49732688069343567,-0.7209405899047852 zm0.3814055919647217,-7.132865905761719 a0.44585132598876953,0.5041542053222656 0 0 1 0,1.0073918104171753 a0.44585132598876953,0.5041542053222656 0 0 1 -0.4454460144042969,-0.5036959052085876 c0,-0.061415158212184906 0.01134894322603941,-0.1200803816318512 0.029182998463511467,-0.17462071776390076 a0.4454460144042969,0.5036959052085876 0 0 1 0.4162631034851074,-0.32907524704933167 zm-1.044102668762207,-3.2875442504882812 a0.4454460144042969,0.5036959052085876 0 1 1 0.8908920288085938,0.0013749662321060896 a0.4454460144042969,0.5036959052085876 0 0 1 -0.8908920288085938,-0.0013749662321060896 zm-13.62156867980957,2.8067638874053955 a0.4454460144042969,0.5036959052085876 0 1 1 -0.8908920288085938,-0.0013749662321060896 a0.4454460144042969,0.5036959052085876 0 0 1 0.8908920288085938,0.0013749662321060896 zm0.6809365749359131,10.757735252380371 a0.4454460144042969,0.5036959052085876 0 1 1 -0.8908920288085938,-0.0013749662321060896 a0.4454460144042969,0.5036959052085876 0 0 1 0.8908920288085938,0.0013749662321060896 zm0.3793789744377136,4.560762882232666 a0.4454460144042969,0.5036959052085876 0 0 1 -0.6233812570571899,0.46107199788093567 l-0.0032425555400550365,-0.0018332883482798934 a0.44585132598876953,0.5041542053222656 0 0 1 -0.2642682194709778,-0.45923861861228943 c0,-0.20486995577812195 0.10903092473745346,-0.38086557388305664 0.2642682194709778,-0.45923861861228943 l0.0028372358065098524,-0.0018332883482798934 a0.443419486284256,0.5014042854309082 0 0 1 0.35668107867240906,0 a0.44585132598876953,0.5041542053222656 0 0 1 0.26710548996925354,0.46107199788093567 zm13.043583869934082,-1.7636233568191528 a0.4454460144042969,0.5036959052085876 0 1 1 0.8908920288085938,0.0013749662321060896 a0.4454460144042969,0.5036959052085876 0 0 1 -0.8908920288085938,-0.0013749662321060896 zm1.6151978969573975,-6.906454086303711 a0.44585132598876953,0.5041542053222656 0 0 1 0,1.0073918104171753 a0.4454460144042969,0.5036959052085876 0 0 1 0,-1.0073918104171753 zm-9.933568000793457,-10.280162811279297 a0.44585132598876953,0.5041542053222656 0 0 1 0.4454460144042969,0.5036959052085876 c0,0.12283031642436981 -0.0405319407582283,0.2342025637626648 -0.10538303107023239,0.32174208760261536 a0.4426087737083435,0.5004875659942627 0 0 1 -0.3400629460811615,0.18195386230945587 c-0.13699795305728912,0 -0.2581884562969208,-0.071956567466259 -0.3400629460811615,-0.18195386230945587 a0.4417981207370758,0.4995709955692291 0 0 1 -0.10538303107023239,-0.32174208760261536 a0.4454460144042969,0.5036959052085876 0 0 1 0.4454460144042969,-0.5036959052085876 zm-1.8255587816238403,13.506295204162598 a2.207369565963745,2.4960219860076904 0 0 0 -0.1292968988418579,0.26307690143585205 l-0.02310320734977722,0.05499863997101784 a2.200073719024658,2.487772226333618 0 0 0 -0.1061936765909195,0.3199087977409363 v0.00045832208706997335 c-0.0036478748079389334,0.013291338458657265 -0.008511708118021488,0.02612435817718506 -0.011754260398447514,0.03941569849848747 a2.1972362995147705,2.4845640659332275 0 0 0 -0.05877131596207619,0.32357534766197205 a1.7124743461608887,1.9364107847213745 0 0 1 -0.7911834716796875,-0.5036959052085876 v-0.07516481727361679 h-0.062419187277555466 a1.703962802886963,1.926786184310913 0 0 1 -0.4580109417438507,-1.3039262294769287 c0,-0.21724462509155273 0.03202023357152939,-0.428989440202713 0.09241282939910889,-0.6283595561981201 c0.005269152577966452,-0.01741623692214489 0.011754260398447514,-0.03483247384428978 0.017834052443504333,-0.05224871635437012 c0.014996818266808987,-0.04491556063294411 0.03080427646636963,-0.08983112126588821 0.04863832890987396,-0.13337171077728271 c0.01134894322603941,-0.027957644313573837 0.02431916445493698,-0.05499863997101784 0.03728938847780228,-0.0824979618191719 c0.014591499231755733,-0.03116590343415737 0.028777677565813065,-0.06233180686831474 0.04499046131968498,-0.09212274849414825 a1.8454192876815796,2.086740493774414 0 0 1 0.30480021238327026,-0.4262395203113556 c0.03161491081118584,-0.0329991839826107 0.06201386824250221,-0.06691502034664154 0.09606070816516876,-0.0976225882768631 l-0.33276721835136414,-0.4679469168186188 l-0.0008106388850137591,0.0009166441741399467 l-0.0008106388850137591,-0.0009166441741399467 c-0.009727666154503822,0.008708118461072445 -0.01742873713374138,0.019707849249243736 -0.0267510823905468,0.028415966778993607 a2.1818344593048096,2.4671478271484375 0 0 0 -0.18604157865047455,0.19845344126224518 c-0.02026597037911415,0.023832745850086212 -0.0405319407582283,0.047665491700172424 -0.05958196148276329,0.07241488993167877 a2.3784141540527344,2.6894338130950928 0 0 0 -0.16618095338344574,0.2401607632637024 c-0.005269152577966452,0.008708118461072445 -0.01256490033119917,0.01649959199130535 -0.017834052443504333,0.02566603384912014 a2.113335371017456,2.389691114425659 0 0 0 -0.08552239835262299,0.15628783404827118 a1.6966670751571655,1.9185363054275513 0 0 1 -0.44747260212898254,-1.3034679889678955 c0,-0.49177953600883484 0.1613171249628067,-0.9491851925849915 0.44747260212898254,-1.3030095100402832 c0.0267510823905468,0.05270703509449959 0.05633939430117607,0.10403911024332047 0.08633303642272949,0.1544545441865921 l0.005269152577966452,0.007791475858539343 c0.04863832890987396,0.08158133178949356 0.10254580527544022,0.15949605405330658 0.15888521075248718,0.23511923849582672 c0.014996818266808987,0.020166169852018356 0.03080427646636963,0.03941569849848747 0.0466117300093174,0.059123534709215164 c0.04985429346561432,0.06233180686831474 0.10295113176107407,0.12237198650836945 0.15929053723812103,0.17920394241809845 c0.010132985189557076,0.010083084926009178 0.01864469423890114,0.022457780316472054 0.028777677565813065,0.03254086896777153 l0.0008106388850137591,-0.0009166441741399467 l0.0008106388850137591,0.0009166441741399467 l0.34573742747306824,-0.45511382818222046 c-0.03404683247208595,-0.0329991839826107 -0.06525641679763794,-0.06920662522315979 -0.09687132388353348,-0.10495575517416 a1.5523730516433716,1.755373239517212 0 0 1 -0.12037985026836395,-0.15216290950775146 a1.6970722675323486,1.9189943075180054 0 0 1 -0.2018490433692932,-0.3565745949745178 c-0.010538305155932903,-0.023832745850086212 -0.021076610311865807,-0.047665491700172424 -0.03080427646636963,-0.071956567466259 a1.6253312826156616,1.8378716707229614 0 0 1 -0.047827690839767456,-0.13658000528812408 l-0.014186179265379906,-0.04308227449655533 a1.7128797769546509,1.936868667602539 0 0 1 -0.08633303642272949,-0.6059017777442932 c0,-0.9010611176490784 0.5585301518440247,-1.675625205039978 1.312018871307373,-1.883245587348938 c0.012970222160220146,0.10266413539648056 0.029993636533617973,0.2039533108472824 0.0535021647810936,0.3034091889858246 c0.004863833077251911,0.021082814782857895 0.01256490033119917,0.04079066589474678 0.018239373341202736,0.06187348812818527 a2.264519453048706,2.560645341873169 0 0 0 0.10943624377250671,0.32815855741500854 l0.023913845419883728,0.05774858221411705 a2.2697885036468506,2.566603899002075 0 0 0 0.13294477760791779,0.26811841130256653 c0.008511708118021488,0.015124631114304066 0.016618097200989723,0.03116590343415737 0.02553512714803219,0.046290528029203415 c0.05998727306723595,0.09991420805454254 0.12402773648500443,0.19707846641540527 0.19698524475097656,0.287826269865036 c0.16618095338344574,0.20670324563980103 0.31371721625328064,0.31899210810661316 0.48030346632003784,0.4413641691207886 c-0.0028372358065098524,0.0247493889182806 -0.0012159582693129778,0.04904046282172203 -0.0028372358065098524,0.07378984987735748 a1.7898904085159302,2.0239500999450684 0 0 0 -0.004458513110876083,0.28553465008735657 a1.710447907447815,1.9341189861297607 0 0 0 0.10416708141565323,0.5719859600067139 c0.0267510823905468,0.08295628428459167 0.05674471706151962,0.16545425355434418 0.0932234600186348,0.24428564310073853 c0.00932234711945057,0.019707849249243736 0.02026597037911415,0.038499053567647934 0.029993636533617973,0.058206893503665924 c0.04904364421963692,0.09853923320770264 0.10295113176107407,0.1947869211435318 0.1673969030380249,0.28415969014167786 l0.0012159582693129778,-0.0009166441741399467 l0.0008106388850137591,0.0009166441741399467 l0.41180452704429626,-0.37857404351234436 c-0.010132985189557076,-0.014207983389496803 -0.018239373341202736,-0.029332613572478294 -0.02796703763306141,-0.0435405969619751 a1.346065640449524,1.522087574005127 0 0 1 -0.07295749336481094,-0.12099704891443253 a1.3099924325942993,1.4812968969345093 0 0 1 -0.10862559080123901,-0.25482702255249023 l-0.0016212777700275183,-0.00687482999637723 a1.2139315605163574,1.3726744651794434 0 0 1 -0.04863832890987396,-0.2131197601556778 c-0.0032425555400550365,-0.020166169852018356 -0.006890430115163326,-0.04033233970403671 -0.009727666154503822,-0.060956839472055435 a1.245546579360962,1.4084235429763794 0 0 1 -0.011754260398447514,-0.20624493062496185 c0,-0.02658267691731453 0.0020265972707420588,-0.05316535383462906 0.0036478748079389334,-0.07974802702665329 a1.256489872932434,1.4207981824874878 0 0 1 0.01864469423890114,-0.16912083327770233 c0.0028372358065098524,-0.01604127138853073 0.0040531945414841175,-0.03254086896777153 0.006890430115163326,-0.04858214035630226 c0.023508520796895027,-0.1200803816318512 0.060797903686761856,-0.2342025637626648 0.10943624377250671,-0.34144994616508484 l0.008917026221752167,-0.018791204318404198 a1.2808095216751099,1.4482977390289307 0 0 1 0.16091179847717285,-0.2626185417175293 c0.009727666154503822,-0.0123746944591403 0.01905001327395439,-0.02566603384912014 0.029182998463511467,-0.037582408636808395 c0.02431916445493698,-0.029332613572478294 0.05025960132479668,-0.05729026347398758 0.07701069116592407,-0.08433125913143158 c0.01215958222746849,-0.0123746944591403 0.023508520796895027,-0.02566603384912014 0.03607342392206192,-0.037582408636808395 a1.250815510749817,1.414381980895996 0 0 1 0.18320438265800476,-0.14162151515483856 c0.02026597037911415,-0.013291338458657265 0.0405319407582283,-0.0270409993827343 0.06160855293273926,-0.038957368582487106 a1.2321710586547852,1.3932991027832031 0 0 1 0.14267241954803467,-0.06783165782690048 c0.010538305155932903,-0.004124897997826338 0.02026597037911415,-0.010083084926009178 0.031209593638777733,-0.014207983389496803 l-0.16334371268749237,-0.5710693001747131 l-0.0016212777700275183,0.00045832208706997335 v-0.00045832208706997335 a1.7935384511947632,2.0280749797821045 0 0 0 -1.068016529083252,1.0738484859466553 a1.3902456760406494,1.5720447301864624 0 0 1 -0.241570383310318,-0.23832747340202332 a1.710447907447815,1.9341189861297607 0 0 1 -0.4470673203468323,-1.3057594299316406 a1.7169328927993774,1.9414522647857666 0 0 1 1.713285207748413,-1.9391603469848633 h0.0024319165386259556 a1.7161225080490112,1.9405359029769897 0 0 1 1.7072051763534546,1.8048721551895142 c-0.0020265972707420588,0.04491556063294411 -0.006079791113734245,0.08891449123620987 -0.006079791113734245,0.13428838551044464 v9.60230541229248 c0,0.04537387937307358 0.0040531945414841175,0.08937278389930725 0.006079791113734245,0.13428838551044464 a1.7161225080490112,1.9405359029769897 0 0 1 -1.7084214687347412,1.805330514907837 a1.7023415565490723,1.924952507019043 0 0 1 -0.7555153369903564,-0.201203390955925 a1.715312123298645,1.9396188259124756 0 0 1 -0.9589857459068298,-1.7379570007324219 c0,-0.3978235125541687 0.1045723706483841,-0.7754809856414795 0.29912570118904114,-1.0949312448501587 a2.23736310005188,2.529937505722046 0 0 0 1.310802936553955,1.0316829681396484 v-0.00045832208706997335 l0.0016212777700275183,0.00045832208706997335 l0.1284862458705902,-0.5825273394584656 l-0.017834052443504333,-0.005958186462521553 a1.743683934211731,1.9717015027999878 0 0 1 -0.19657990336418152,-0.07333152741193771 l-0.016618097200989723,-0.007333153393119574 a1.6755900382995605,1.8947031497955322 0 0 1 -0.24724479019641876,-0.13978822529315948 l-0.010538305155932903,-0.007791475858539343 a1.6970722675323486,1.9189943075180054 0 0 1 -0.22211505472660065,-0.18378713726997375 l-0.0024319165386259556,-0.002749932464212179 a1.733145833015442,1.959784984588623 0 0 1 -0.18482565879821777,-0.21403637528419495 l-0.012970222160220146,-0.01649959199130535 a1.736793875694275,1.9639097452163696 0 0 1 -0.13902458548545837,-0.2254944145679474 c-0.008917026221752167,-0.01649959199130535 -0.018239373341202736,-0.03254086896777153 -0.026345757767558098,-0.0494987778365612 a1.7003151178359985,1.922661304473877 0 0 1 -0.12119049578905106,-0.30249255895614624 a1.6747798919677734,1.8937864303588867 0 0 1 -0.05998727306723595,-0.2369525283575058 c-0.005269152577966452,-0.027957644313573837 -0.00932234711945057,-0.055915288627147675 -0.013780860230326653,-0.08433125913143158 a1.6974778175354004,1.9194530248641968 0 0 1 -0.02431916445493698,-0.2474939525127411 c-0.0008106388850137591,-0.02749931998550892 0.00040531944250687957,-0.05499863997101784 0.00040531944250687957,-0.08295628428459167 c0,-0.07562313973903656 0.0040531945414841175,-0.15216290950775146 0.011754260398447514,-0.22870269417762756 c0.0016212777700275183,-0.01649959199130535 0.0020265972707420588,-0.0329991839826107 0.004458513110876083,-0.0494987778365612 c0.011754260398447514,-0.09258105605840683 0.02958831563591957,-0.1833288073539734 0.052691515535116196,-0.27224329113960266 l0.0012159582693129778,-0.005958186462521553 c0.023913845419883728,-0.09028945118188858 0.05309683829545975,-0.1787455677986145 0.08835963159799576,-0.2639934718608856 l-0.4811142385005951,-0.2534520626068115 l-0.00040531944250687957,0.0009166441741399467 l-0.0016212777700275183,-0.0009166441741399467 a2.2487120628356934,2.5427706241607666 0 0 0 -0.08390110731124878,1.9148695468902588 a2.2495229244232178,2.543687582015991 0 0 0 -0.19050012528896332,0.28278473019599915 c-0.009727666154503822,0.01374965999275446 -0.017023416236042976,0.028874291107058525 -0.02553512714803219,0.04399891942739487 zM14.123594164848328,21.91431423276663 a0.44585132598876953,0.5041542053222656 0 0 1 -0.4077513515949249,-0.7048993110656738 a0.4454460144042969,0.5036959052085876 0 1 1 0.4077513515949249,0.7048993110656738 zm3.683948516845703,-8.94552993774414 c-0.005269152577966452,-0.009166440926492214 -0.01215958222746849,-0.01649959199130535 -0.017834052443504333,-0.02566603384912014 a2.321669578552246,2.6252684593200684 0 0 0 -0.16618095338344574,-0.2401607632637024 c-0.01905001327395439,-0.0247493889182806 -0.03931598737835884,-0.04858214035630226 -0.05958196148276329,-0.07241488993167877 a2.1818344593048096,2.4671478271484375 0 0 0 -0.18604157865047455,-0.19845344126224518 c-0.00932234711945057,-0.009166440926492214 -0.017023416236042976,-0.019707849249243736 -0.0267510823905468,-0.028415966778993607 l-0.0008106388850137591,0.0009166441741399467 l-0.0008106388850137591,-0.0009166441741399467 l-0.33276721835136414,0.4679469168186188 c0.03404683247208595,0.030707579106092453 0.06444579362869263,0.06462341547012329 0.09606070816516876,0.0976225882768631 c0.033236194401979446,0.03483247384428978 0.06444579362869263,0.07103992253541946 0.0948447436094284,0.10862231254577637 c0.01215958222746849,0.014666306786239147 0.023508520796895027,0.029790934175252914 0.035262785851955414,0.04491556063294411 c0.0267510823905468,0.03529080003499985 0.052691515535116196,0.07149824500083923 0.07741601020097733,0.10862231254577637 a2.0711824893951416,2.3420257568359375 0 0 1 0.09727665781974792,0.16407927870750427 c0.01580745540559292,0.03024926222860813 0.030398951843380928,0.061415158212184906 0.04499046131968498,0.09212274849414825 c0.01256490033119917,0.02749931998550892 0.02553512714803219,0.05454033613204956 0.03728938847780228,0.0824979618191719 c0.017834052443504333,0.0435405969619751 0.0336415097117424,0.0884561613202095 0.04863832890987396,0.13337171077728271 l0.017834052443504333,0.05224871635437012 c0.0603925958275795,0.19937007129192352 0.09241282939910889,0.41111496090888977 0.09241282939910889,0.6283595561981201 c0,0.9010611176490784 -0.5585301518440247,1.675625205039978 -1.3116134405136108,1.8827868700027466 a2.1834559440612793,2.468980550765991 0 0 0 -0.05877131596207619,-0.32357534766197205 c-0.0032425555400550365,-0.013291338458657265 -0.008511708118021488,-0.02612435817718506 -0.011754260398447514,-0.03941569849848747 v-0.00045832208706997335 a2.200073719024658,2.487772226333618 0 0 0 -0.1061936765909195,-0.3199087977409363 c-0.007295749615877867,-0.018791204318404198 -0.015402138233184814,-0.037124089896678925 -0.02310320734977722,-0.0554569736123085 a2.1696746349334717,2.4533979892730713 0 0 0 -0.1292968988418579,-0.2626185417175293 l-0.024724483489990234,-0.04491556063294411 a2.2495229244232178,2.543687582015991 0 0 0 -0.19050012528896332,-0.28278473019599915 a2.2487120628356934,2.5427706241607666 0 0 0 -0.08390110731124878,-1.9148695468902588 l-0.0016212777700275183,0.0009166441741399467 l-0.00040531944250687957,-0.0009166441741399467 l-0.4811142385005951,0.2534520626068115 c0.035262785851955414,0.08524790406227112 0.06485111266374588,0.17324572801589966 0.08835963159799576,0.2639934718608856 l0.0012159582693129778,0.005499864928424358 c0.02310320734977722,0.08891449123620987 0.040937263518571854,0.17966224253177643 0.052691515535116196,0.27224329113960266 c0.0020265972707420588,0.01649959199130535 0.0024319165386259556,0.0329991839826107 0.004458513110876083,0.04995710402727127 c0.008106389082968235,0.0765397697687149 0.011754260398447514,0.15262123942375183 0.011754260398447514,0.22824439406394958 c0,0.027957644313573837 0.0012159582693129778,0.0554569736123085 0.00040531944250687957,0.08341459929943085 c-0.0028372358065098524,0.08387292921543121 -0.01215958222746849,0.16591256856918335 -0.02431916445493698,0.24703559279441833 c-0.004458513110876083,0.028415966778993607 -0.008511708118021488,0.05683193355798721 -0.013780860230326653,0.08478960394859314 a1.695046067237854,1.9167027473449707 0 0 1 -0.08430644124746323,0.3093673884868622 c-0.02796703763306141,0.07883139699697495 -0.05998727306723595,0.15582947432994843 -0.09687132388353348,0.22961930930614471 c-0.008511708118021488,0.01695791445672512 -0.017834052443504333,0.0329991839826107 -0.0267510823905468,0.0494987778365612 a1.6942352056503296,1.9157860279083252 0 0 1 -0.13861924409866333,0.22503609955310822 c-0.0040531945414841175,0.005958186462521553 -0.008917026221752167,0.010999729856848717 -0.0133755411952734,0.01695791445672512 c-0.05674471706151962,0.07608145475387573 -0.11794795095920563,0.14803804457187653 -0.18482565879821777,0.21403637528419495 l-0.0024319165386259556,0.002749932464212179 a1.7347673177719116,1.9616185426712036 0 0 1 -0.22211505472660065,0.18378713726997375 l-0.010538305155932903,0.007791475858539343 a1.7165278196334839,1.9409940242767334 0 0 1 -0.2638629376888275,0.1471213847398758 a1.743683934211731,1.9717015027999878 0 0 1 -0.19657990336418152,0.07333152741193771 c-0.006079791113734245,0.0018332883482798934 -0.011754260398447514,0.004583220463246107 -0.017834052443504333,0.005958186462521553 l0.1284862458705902,0.5825273394584656 l0.0016212777700275183,-0.00045832208706997335 v0.00045832208706997335 a2.23574161529541,2.528104066848755 0 0 0 1.310802936553955,-1.0316829681396484 c0.19455331563949585,0.3199087977409363 0.29912570118904114,0.6975662112236023 0.29912570118904114,1.0949312448501587 c0,0.03437415882945061 -0.0028372358065098524,0.06829000264406204 -0.004458513110876083,0.10220582783222198 a1.7145012617111206,1.9387023448944092 0 0 1 -1.7096374034881592,1.8374128341674805 a1.7161225080490112,1.9405359029769897 0 0 1 -1.7084214687347412,-1.805330514907837 c-0.0028372358065098524,-0.044457245618104935 -0.006079791113734245,-0.08891449123620987 -0.006079791113734245,-0.13428838551044464 v-9.601847648620605 c0,-0.04537387937307358 0.0032425555400550365,-0.08983112126588821 0.006079791113734245,-0.13428838551044464 a1.7161225080490112,1.9405359029769897 0 0 1 1.7084214687347412,-1.805330514907837 c0.11511071026325226,0 0.22738419473171234,0.013291338458657265 0.33600980043411255,0.038040727376937866 l0.08917026966810226,0.07241488993167877 l0.02512980066239834,-0.039874013513326645 a1.717337965965271,1.9419102668762207 0 0 1 1.2641911506652832,1.8690370321273804 a1.7112584114074707,1.9350355863571167 0 0 1 -0.4470673203468323,1.3057594299316406 c-0.0810638815164566,0.10083084553480148 -0.15726394951343536,0.1709541380405426 -0.241570383310318,0.23832747340202332 a1.7923221588134766,2.026700258255005 0 0 0 -1.068016529083252,-1.0738484859466553 v0.00045832208706997335 l-0.0016212777700275183,-0.00045832208706997335 l-0.16334371268749237,0.5710693001747131 c0.010538305155932903,0.004124897997826338 0.020671287551522255,0.009624763391911983 0.031209593638777733,0.014207983389496803 c0.04863832890987396,0.019707849249243736 0.09646600484848022,0.041707299649715424 0.14267241954803467,0.06783165782690048 c0.021076610311865807,0.011916372925043106 0.04134257510304451,0.02566603384912014 0.06160855293273926,0.038957368582487106 a1.2856733798980713,1.453797698020935 0 0 1 0.18320438265800476,0.14162151515483856 c0.01256490033119917,0.011916372925043106 0.023913845419883728,0.02520771138370037 0.03607342392206192,0.037582408636808395 c0.0267510823905468,0.0270409993827343 0.052691515535116196,0.05454033613204956 0.07701069116592407,0.08433125913143158 c0.010132985189557076,0.011916372925043106 0.019455332309007645,0.02520771138370037 0.029182998463511467,0.037582408636808395 a1.2868891954421997,1.4551723003387451 0 0 1 0.09241282939910889,0.13428838551044464 c0.02512980066239834,0.04124898090958595 0.047827690839767456,0.08433125913143158 0.06890430301427841,0.12833017110824585 l0.008917026221752167,0.018791204318404198 c0.04863832890987396,0.10678904503583908 0.08633303642272949,0.22136957943439484 0.10943624377250671,0.34144994616508484 c0.0032425555400550365,0.01604127138853073 0.004458513110876083,0.03254086896777153 0.006890430115163326,0.04858214035630226 a1.256489872932434,1.4207981824874878 0 0 1 0.01864469423890114,0.16912083327770233 c0.0016212777700275183,0.02658267691731453 0.0032425555400550365,0.05316535383462906 0.0036478748079389334,0.08020637184381485 c0.00040531944250687957,0.06920662522315979 -0.0032425555400550365,0.1379549205303192 -0.011754260398447514,0.20624493062496185 c-0.0024319165386259556,0.020624490454792976 -0.006079791113734245,0.04033233970403671 -0.009727666154503822,0.060956839472055435 c-0.01215958222746849,0.07241488993167877 -0.0267510823905468,0.143913134932518 -0.04863832890987396,0.2131197601556778 l-0.0016212777700275183,0.00687482999637723 c-0.02431916445493698,0.07562313973903656 -0.05552876368165016,0.14803804457187653 -0.09079154580831528,0.21861961483955383 l-0.017834052443504333,0.036207444965839386 a1.2459518909454346,1.4088820219039917 0 0 1 -0.07295749336481094,0.12099704891443253 c-0.009727666154503822,0.014207983389496803 -0.017834052443504333,0.029332613572478294 -0.02796703763306141,0.0435405969619751 l0.41180452704429626,0.37857404351234436 l0.0008106388850137591,-0.0009166441741399467 l0.0012159582693129778,0.0009166441741399467 c0.06485111266374588,-0.08983112126588821 0.11916392296552658,-0.1860787570476532 0.1682075411081314,-0.2850763201713562 c0.009727666154503822,-0.019249526783823967 0.02026597037911415,-0.037582408636808395 0.02958831563591957,-0.05729026347398758 a1.808129906654358,2.044574737548828 0 0 0 0.11511071026325226,-0.31624218821525574 c0.02026597037911415,-0.07103992253541946 0.036884061992168427,-0.14299649000167847 0.05025960132479668,-0.2158696949481964 c0.005269152577966452,-0.027957644313573837 0.00932234711945057,-0.05637360364198685 0.0133755411952734,-0.08478960394859314 a1.710447907447815,1.9341189861297607 0 0 0 0.014186179265379906,-0.4849047064781189 c-0.0020265972707420588,-0.0247493889182806 -0.00040531944250687957,-0.04904046282172203 -0.0028372358065098524,-0.07378984987735748 c0.16658629477024078,-0.12237198650836945 0.3141224682331085,-0.23466090857982635 0.48030346632003784,-0.4413641691207886 c0.07295749336481094,-0.09028945118188858 0.13699795305728912,-0.1874537318944931 0.19698524475097656,-0.28736793994903564 c0.008917026221752167,-0.015124631114304066 0.017023416236042976,-0.03116590343415737 0.02553512714803219,-0.046290528029203415 a2.1927778720855713,2.4795219898223877 0 0 0 0.13294477760791779,-0.26766008138656616 l0.023913845419883728,-0.05774858221411705 c0.040937263518571854,-0.10174751281738281 0.07620005309581757,-0.20624493062496185 0.10497772693634033,-0.3134922981262207 l0.004458513110876083,-0.014666306786239147 c0.005674471613019705,-0.021082814782857895 0.0133755411952734,-0.04079066589474678 0.018239373341202736,-0.06187348812818527 a2.2130439281463623,2.5024383068084717 0 0 0 0.0535021647810936,-0.3034091889858246 c0.7534887790679932,0.20761987566947937 1.3116134405136108,0.981725811958313 1.3116134405136108,1.883245587348938 c0,0.2085365653038025 -0.029993636533617973,0.4124898612499237 -0.08633303642272949,0.6059017777442932 a1.0570728778839111,1.195304036140442 0 0 1 -0.014186179265379906,0.04308227449655533 a1.6253312826156616,1.8378716707229614 0 0 1 -0.047827690839767456,0.13658000528812408 c-0.009727666154503822,0.02429107017815113 -0.02026597037911415,0.0481238067150116 -0.03080427646636963,0.071956567466259 a1.770029902458191,2.001492500305176 0 0 1 -0.09403408318758011,0.1874537318944931 a1.6970722675323486,1.9189943075180054 0 0 1 -0.22819484770298004,0.3212837278842926 c-0.03161491081118584,0.03574912250041962 -0.06282450258731842,0.07149824500083923 -0.09687132388353348,0.10495575517416 l0.34573742747306824,0.45511382818222046 l0.0008106388850137591,-0.0009166441741399467 l0.0008106388850137591,0.0009166441741399467 c0.010538305155932903,-0.010083084926009178 0.01864469423890114,-0.022457780316472054 0.029182998463511467,-0.03254086896777153 c0.05593407526612282,-0.05683193355798721 0.10903092473745346,-0.11641378700733185 0.15888521075248718,-0.1787455677986145 c0.01580745540559292,-0.019707849249243736 0.03161491081118584,-0.038957368582487106 0.0466117300093174,-0.059123534709215164 c0.05674471706151962,-0.07562313973903656 0.11024688184261322,-0.15353786945343018 0.15888521075248718,-0.23511923849582672 l0.005269152577966452,-0.007791475858539343 c0.029993636533617973,-0.050873756408691406 0.05958196148276329,-0.10174751281738281 0.08633303642272949,-0.1544545441865921 a1.695046067237854,1.9167027473449707 0 0 1 0.44747260212898254,1.3030095100402832 a1.6966670751571655,1.9185363054275513 0 0 1 -0.44747260212898254,1.3034679889678955 a2.522707939147949,2.8525967597961426 0 0 0 -0.08673835545778275,-0.1576627939939499 z" data-darkreader-inline-fill="" style="fill: rgb(255, 255, 255); animation-play-state: paused; --darkreader-inline-fill:#e8e6e3;" id="svg_3"/>
<metadata xmlns:d="https://loading.io/stock/" style="animation-play-state:paused"><d:name style="animation-play-state:paused">ai</d:name>


<d:tags style="animation-play-state:paused">ai,artificial intelligence,deep learning,machine learning,neural network,robot,brain</d:tags>


<d:license style="animation-play-state:paused">by</d:license>


<d:slug style="animation-play-state:paused">tiag03</d:slug></metadata></g></g></svg>