<svg width="10" height="10" viewBox="0 0 10 10" fill="none" xmlns="http://www.w3.org/2000/svg">
<path d="M5 0C7.76111 0 10 2.23889 10 5C10 7.76111 7.76111 10 5 10C2.23856 10 0 7.76127 0 5C0 2.23873 2.23856 0 5 0ZM5 0.75C2.65279 0.75 0.75 2.65293 0.75 5C0.75 7.34707 2.65279 9.25 5 9.25C7.34689 9.25 9.25 7.34689 9.25 5C9.25 2.65311 7.34689 0.75 5 0.75ZM6.95786 3.9769L6.99999 4.01311C7.13341 4.14596 7.14597 4.35426 7.03735 4.50131L7.00114 4.54344L5.26564 6.28644C5.13238 6.42027 4.92331 6.43244 4.77628 6.32294L4.73416 6.28644L2.99866 4.54344C2.85253 4.39668 2.85305 4.15924 2.99981 4.01311C3.13323 3.88027 3.34158 3.86861 3.48816 3.97786L3.53014 4.01426L4.9994 5.49L6.46966 4.01426C6.60251 3.88084 6.81081 3.86829 6.95786 3.9769Z" fill="white"/>
</svg>
