<svg width="15" height="15" viewBox="0 0 15 15" fill="none" xmlns="http://www.w3.org/2000/svg">
<path d="M5.59569 4.56481L5.6777 4.63562L7.49813 6.4566L9.31814 4.63761C9.60371 4.35204 10.0667 4.35204 10.3523 4.63761C10.6119 4.89722 10.6355 5.30347 10.4231 5.58974L10.3523 5.67176L8.53261 7.49108L10.3538 9.31269C10.6393 9.59829 10.6393 10.0613 10.3537 10.3468C10.0941 10.6064 9.6878 10.63 9.40155 10.4175L9.31955 10.3467L7.49911 8.52458L5.68008 10.344C5.39451 10.6295 4.93151 10.6295 4.64594 10.344C4.38633 10.0843 4.36273 9.6781 4.57513 9.39183L4.64594 9.30981L6.46463 7.4901L4.64345 5.66965C4.3579 5.38405 4.35795 4.92105 4.64355 4.63551C4.90319 4.37593 5.30944 4.35237 5.59569 4.56481Z" fill="#252733"/>
<circle cx="7.5" cy="7.5" r="7" stroke="#363740"/>
</svg>
