<svg width="15" height="15" viewBox="0 0 15 15" fill="none" xmlns="http://www.w3.org/2000/svg">
<path d="M7.5 15C11.6417 15 15 11.6417 15 7.5C15 3.35834 11.6417 0 7.5 0C3.35784 0 0 3.35809 0 7.5C0 11.6419 3.35784 15 7.5 15ZM7.5 13.875C3.97918 13.875 1.125 11.0206 1.125 7.5C1.125 3.97939 3.97918 1.125 7.5 1.125C11.0203 1.125 13.875 3.97966 13.875 7.5C13.875 11.0203 11.0203 13.875 7.5 13.875ZM10.4368 9.03466L10.5 8.98033C10.7001 8.78106 10.7189 8.4686 10.556 8.24804L10.5017 8.18484L7.89845 5.57034C7.69858 5.3696 7.38497 5.35135 7.16441 5.51559L7.10125 5.57034L4.498 8.18484C4.2788 8.40498 4.27957 8.76113 4.49971 8.98033C4.69984 9.1796 5.01238 9.19708 5.23223 9.03321L5.2952 8.97861L7.4991 6.765L9.7045 8.97861C9.90376 9.17874 10.2162 9.19757 10.4368 9.03466Z" fill="#363740"/>
</svg>
