<svg width="15" height="15" viewBox="0 0 15 15" fill="none" xmlns="http://www.w3.org/2000/svg">
<path d="M7.5 0C11.6417 0 15 3.35834 15 7.5C15 11.6417 11.6417 15 7.5 15C3.35784 15 0 11.6419 0 7.5C0 3.35809 3.35784 0 7.5 0ZM7.5 1.125C3.97918 1.125 1.125 3.97939 1.125 7.5C1.125 11.0206 3.97918 13.875 7.5 13.875C11.0203 13.875 13.875 11.0203 13.875 7.5C13.875 3.97966 11.0203 1.125 7.5 1.125ZM10.4368 5.96534L10.5 6.01967C10.7001 6.21894 10.7189 6.5314 10.556 6.75196L10.5017 6.81516L7.89845 9.42966C7.69858 9.6304 7.38497 9.64865 7.16441 9.48441L7.10125 9.42966L4.498 6.81516C4.2788 6.59502 4.27957 6.23887 4.49971 6.01967C4.69984 5.8204 5.01238 5.80292 5.23223 5.96679L5.2952 6.02139L7.4991 8.235L9.7045 6.02139C9.90376 5.82126 10.2162 5.80243 10.4368 5.96534Z" fill="#363740"/>
</svg>
