<svg xmlns="http://www.w3.org/2000/svg" xmlns:xlink="http://www.w3.org/1999/xlink" version="1.1" x="0px" y="0px" viewBox="0 0 64 80" style="enable-background:new 0 0 64 64;" xml:space="preserve"><g><path d="M7,37.007c0.301,0,0.618-0.046,0.998-0.144l0.958-0.248l0.258,0.955c0.414,1.535,1.437,2.834,2.786,3.622v-2.943   c0-2.469-0.961-4.789-2.707-6.535l1.414-1.414C12.83,32.423,14,35.247,14,38.249v9.122c0.343,0.124,0.68,0.269,1,0.457   c0.32-0.188,0.657-0.333,1-0.457V36.007h2v5.185c1.293-0.755,2.279-1.983,2.723-3.436C18.489,36.336,17,33.845,17,31.007   c0-1.312,0.315-2.576,0.921-3.719C15.561,26.131,14,23.706,14,21.007c0-1.461,0.477-2.829,1.271-3.969   c-0.091-0.007-0.18-0.031-0.271-0.031c-2.188,0-3.972,1.767-4,3.949c0.006,0.042,0.009,0.083,0.011,0.126l0.035,1.262l-1.237-0.255   C9.545,22.035,9.272,22.007,9,22.007c-2.206,0-4,1.794-4,4c0,0.716,0.197,1.406,0.587,2.052l0.553,0.917l-0.952,0.489   C3.838,30.158,3,31.515,3,33.007C3,35.213,4.794,37.007,7,37.007z"/><path d="M21.697,51.493c-0.605-1.475-2.056-2.486-3.697-2.486c-0.857,0-1.687,0.284-2.397,0.82L15,50.283l-0.603-0.455   c-0.711-0.536-1.54-0.82-2.397-0.82c-1.897,0-3.546,1.349-3.92,3.207l-0.161,0.803l-0.968-0.01C4.769,53.034,3,54.818,3,57.007   c0,2.206,1.794,4,4,4h12.54c-0.954-1.063-1.54-2.462-1.54-4C18,54.519,19.534,52.401,21.697,51.493z M8,58.007H6v-2h2V58.007z    M15,55.007h-2v-2h2V55.007z"/><path d="M45.839,26.86C46.594,28.104,47,29.541,47,31.007c0,2.837-1.489,5.328-3.723,6.749c0.444,1.453,1.43,2.681,2.723,3.436   v-3.185h2v9.364c0.343,0.124,0.68,0.269,1,0.457c0.32-0.188,0.657-0.333,1-0.457v-10.95c0-2.416,0.799-4.812,2.249-6.745   l0.951-1.269l1.6,1.199l-0.951,1.269C52.656,32.465,52,34.435,52,36.421v4.771c1.349-0.788,2.373-2.087,2.786-3.622l0.258-0.955   l0.958,0.248c0.38,0.098,0.697,0.144,0.998,0.144c2.206,0,4-1.794,4-4c0-1.492-0.838-2.85-2.188-3.542l-0.952-0.489l0.553-0.917   C58.803,27.414,59,26.723,59,26.007c0-2.206-1.794-4-4-4c-0.272,0-0.545,0.027-0.809,0.082l-1.236,0.255L53,20.957   c-0.027-2.183-1.811-3.95-4-3.95c-0.401,0-0.796,0.063-1.175,0.182c0.733,1.11,1.175,2.42,1.175,3.818   C49,23.394,47.791,25.582,45.839,26.86z"/><path d="M19.685,25.826l1.428,0.389l-0.894,1.18C19.422,28.448,19,29.697,19,31.007c0,3.309,2.691,6,6,6   c1.494,0,2.898-0.547,4-1.536v-4.154c0-2.664-0.63-5.332-1.821-7.717l-2.073-4.146l1.789-0.895l2.073,4.146   C30.297,25.367,31,28.344,31,31.317v16.054c0.343,0.124,0.68,0.269,1,0.457c0.32-0.188,0.657-0.333,1-0.457V35.411   c0-4.355,1.498-8.627,4.219-12.028l1.562,1.25C36.343,27.68,35,31.508,35,35.411v0.06c1.102,0.991,2.505,1.537,4,1.537   c3.309,0,6-2.691,6-6c0-1.403-0.496-2.77-1.397-3.847l-0.862-1.029l1.233-0.531C45.812,24.809,47,23.006,47,21.007   c0-2.45-1.827-4.572-4.25-4.937l-1.021-0.154l0.186-1.014C41.972,14.586,42,14.294,42,14.007c0-2.445-1.754-4.514-4.17-4.918   l-0.861-0.144l0.026-0.873C37,5.25,34.757,3.007,32,3.007s-5,2.243-5,5v1h-1c-2.757,0-5,2.243-5,5c0,0.287,0.028,0.579,0.085,0.896   l0.186,1.014l-1.021,0.154C17.827,16.435,16,18.557,16,21.007C16,23.253,17.516,25.235,19.685,25.826z"/><path d="M40.05,53.007c-0.05,0.006-0.099,0.01-0.149,0.01h-0.819l-0.161-0.803c-0.374-1.858-2.022-3.207-3.92-3.207   c-0.857,0-1.687,0.284-2.397,0.82L32,50.283l-0.603-0.455c-0.711-0.536-1.54-0.82-2.397-0.82c-1.897,0-3.546,1.349-3.92,3.207   l-0.161,0.803l-0.968-0.01c-2.183,0.026-3.951,1.811-3.951,4c0,2.206,1.794,4,4,4h3h12h1c2.206,0,4-1.794,4-4   C44,54.819,42.232,53.035,40.05,53.007z M26,59.007h-2v-2h2V59.007z M30,54.007h-2v-2h2V54.007z M41,58.007h-2v-2h2V58.007z"/><path d="M57.05,53.007c-0.05,0.006-0.099,0.01-0.149,0.01h-0.819l-0.161-0.803c-0.374-1.858-2.022-3.207-3.92-3.207   c-0.857,0-1.687,0.284-2.397,0.82L49,50.283l-0.603-0.455c-0.711-0.536-1.54-0.82-2.397-0.82c-1.641,0-3.092,1.011-3.697,2.486   C44.466,52.401,46,54.519,46,57.007c0,1.538-0.586,2.937-1.54,4H57c2.206,0,4-1.794,4-4C61,54.819,59.232,53.035,57.05,53.007z    M52,53.007h-2v-2h2V53.007z M57,59.007h-2v-2h2V59.007z"/></g><text x="0" y="79" fill="#000000" font-size="5px" font-weight="bold" font-family="'Helvetica Neue', Helvetica, Arial-Unicode, Arial, Sans-serif"></text><text x="0" y="84" fill="#000000" font-size="5px" font-weight="bold" font-family="'Helvetica Neue', Helvetica, Arial-Unicode, Arial, Sans-serif"></text></svg>