<svg width="40" height="40" viewBox="0 0 40 40" fill="none" xmlns="http://www.w3.org/2000/svg">
<path d="M20 11.9998C20.6878 11.9998 21.2561 12.5112 21.3461 13.1748L21.3585 13.3593L21.3572 18.6393L26.6415 18.6402C27.3918 18.6402 28 19.2489 28 19.9998C28 20.6881 27.4889 21.2569 26.8258 21.3469L26.6415 21.3593L21.3572 21.3577L21.3585 26.6402C21.3585 27.3911 20.7503 27.9998 20 27.9998C19.3122 27.9998 18.7439 27.4883 18.6539 26.8247L18.6415 26.6402L18.6409 21.3577L13.3585 21.3593C12.6082 21.3593 12 20.7506 12 19.9998C12 19.3115 12.5111 18.7426 13.1742 18.6526L13.3585 18.6402L18.6409 18.6393L18.6415 13.3593C18.6415 12.6085 19.2497 11.9998 20 11.9998Z" fill="#444444"/>
<circle cx="20" cy="20" r="18.5" stroke="#444444" stroke-width="3"/>
</svg>
