<svg width="33" height="32" viewBox="0 0 33 32" fill="none" xmlns="http://www.w3.org/2000/svg">
<g clip-path="url(#clip0)">
<path fill-rule="evenodd" clip-rule="evenodd" d="M16.7181 32C25.5546 32 32.7181 24.8366 32.7181 16C32.7181 7.16344 25.5546 0 16.7181 0C7.88154 0 0.718094 7.16344 0.718094 16C0.718094 24.8366 7.88154 32 16.7181 32Z" fill="url(#paint0_linear)"/>
<path d="M14.669 18.4023H10.4991L9.56258 21H8.20906L12.0098 11.0469H13.1583L16.9659 21H15.6192L14.669 18.4023ZM10.8956 17.3223H14.2794L12.5841 12.667L10.8956 17.3223ZM19.6182 17.1035V21H18.3057V11.0469H21.9766C23.0658 11.0469 23.918 11.3249 24.5333 11.8809C25.1531 12.4368 25.463 13.1729 25.463 14.0889C25.463 15.055 25.1599 15.8001 24.5538 16.3242C23.9522 16.8438 23.0886 17.1035 21.963 17.1035H19.6182ZM19.6182 16.0303H21.9766C22.6785 16.0303 23.2162 15.8662 23.5899 15.5381C23.9636 15.2054 24.1505 14.7269 24.1505 14.1025C24.1505 13.5101 23.9636 13.0361 23.5899 12.6807C23.2162 12.3252 22.7035 12.1406 22.0518 12.127H19.6182V16.0303Z" fill="white"/>
</g>
<defs>
<linearGradient id="paint0_linear" x1="0.718093" y1="1.93867" x2="28.1977" y2="33.4201" gradientUnits="userSpaceOnUse">
<stop stop-color="#35676C"/>
<stop offset="1" stop-color="#00191B"/>
</linearGradient>
<clipPath id="clip0">
<rect width="32" height="32" fill="white" transform="translate(0.718094)"/>
</clipPath>
</defs>
</svg>
