<svg width="14" height="10" viewBox="0 0 14 10" fill="none" xmlns="http://www.w3.org/2000/svg">
<path d="M5.6805 9.63078C5.61283 9.57428 5.3235 9.36094 5.0855 9.1622C3.58867 7.99708 1.13867 4.95762 0.390833 3.36678C0.270667 3.12518 0.0163333 2.51437 0 2.18802C0 1.8753 0.084 1.5772 0.254333 1.29274C0.492333 0.938139 0.866833 0.653678 1.309 0.497808C1.61583 0.397467 2.534 0.241598 2.55033 0.241598C3.55483 0.0857282 5.187 0 6.99067 0C8.70917 0 10.2748 0.0857282 11.2945 0.213346C11.3108 0.227959 12.4518 0.383829 12.8427 0.554311C13.5567 0.867024 14 1.47784 14 2.13151V2.18802C13.9825 2.61374 13.5392 3.50901 13.5228 3.50901C12.7738 5.01413 10.444 7.98344 8.89583 9.17681C8.89583 9.17681 8.498 9.51291 8.2495 9.65904C7.8925 9.88699 7.45033 10 7.00817 10C6.51467 10 6.055 9.87238 5.6805 9.63078Z" fill="#17B614"/>
</svg>
