<svg width="14" height="10" viewBox="0 0 14 10" fill="none" xmlns="http://www.w3.org/2000/svg">
<path d="M8.3195 0.369216C8.38717 0.425718 8.6765 0.639065 8.9145 0.837798C10.4113 2.00292 12.8613 5.04238 13.6092 6.63322C13.7293 6.87482 13.9837 7.48563 14 7.81198C14 8.1247 13.916 8.4228 13.7457 8.70726C13.5077 9.06186 13.1332 9.34632 12.691 9.50219C12.3842 9.60253 11.466 9.7584 11.4497 9.7584C10.4452 9.91427 8.813 10 7.00933 10C5.29083 10 3.72517 9.91427 2.7055 9.78665C2.68917 9.77204 1.54817 9.61617 1.15733 9.44569C0.443334 9.13298 0 8.52216 0 7.86849V7.81198C0.0175009 7.38626 0.460835 6.49099 0.477167 6.49099C1.22617 4.98587 3.556 2.01656 5.10417 0.823186C5.10417 0.823186 5.502 0.487092 5.7505 0.340964C6.1075 0.113006 6.54967 0 6.99183 0C7.48533 0 7.945 0.127618 8.3195 0.369216Z" fill="#FF0505"/>
</svg>
