<svg width="9" height="7" viewBox="0 0 9 7" fill="none" xmlns="http://www.w3.org/2000/svg">
<path d="M3.57171 6.76792C3.52916 6.73239 3.34724 6.59825 3.19759 6.47329C2.25643 5.7407 0.715956 3.82959 0.245743 2.82932C0.170186 2.67741 0.0102699 2.29335 0 2.08815C0 1.89153 0.0528164 1.7041 0.159916 1.52524C0.309563 1.30227 0.545036 1.12341 0.823056 1.02541C1.01598 0.962316 1.5933 0.864311 1.60356 0.864311C2.23516 0.766305 3.26141 0.712402 4.3955 0.712402C5.47603 0.712402 6.46047 0.766305 7.10161 0.846547C7.11188 0.855735 7.8293 0.953741 8.07504 1.06093C8.52398 1.25756 8.80273 1.64162 8.80273 2.05263V2.08815C8.79173 2.35583 8.51298 2.91875 8.50271 2.91875C8.03176 3.86512 6.56684 5.73212 5.5934 6.48248C5.5934 6.48248 5.34326 6.6938 5.18701 6.78568C4.96254 6.92902 4.68452 7.00007 4.4065 7.00007C4.09621 7.00007 3.80718 6.91983 3.57171 6.76792Z" fill="#C4C4C4"/>
</svg>
