<svg width="20" height="20" viewBox="0 0 20 20" fill="none" xmlns="http://www.w3.org/2000/svg">
<path d="M10 0C15.5222 0 20 4.47779 20 10C20 15.5222 15.5222 20 10 20C4.47712 20 0 15.5225 0 10C0 4.47745 4.47712 0 10 0ZM10 1.5C5.30557 1.5 1.5 5.30586 1.5 10C1.5 14.6941 5.30557 18.5 10 18.5C14.6938 18.5 18.5 14.6938 18.5 10C18.5 5.30621 14.6938 1.5 10 1.5ZM13.9157 7.95379L14 8.02623C14.2668 8.29192 14.2919 8.70853 14.0747 9.00261L14.0023 9.08689L10.5313 12.5729C10.2648 12.8405 9.84663 12.8649 9.55255 12.6459L9.46833 12.5729L5.99733 9.08689C5.70507 8.79336 5.70609 8.31849 5.99961 8.02623C6.26645 7.76054 6.68317 7.73723 6.97631 7.95572L7.06027 8.02851L9.9988 10.98L12.9393 8.02851C13.205 7.76167 13.6216 7.73657 13.9157 7.95379Z" fill="white"/>
</svg>
