<svg width="9" height="7" viewBox="0 0 9 7" fill="none" xmlns="http://www.w3.org/2000/svg">
<path d="M3.57171 0.232082C3.52916 0.267609 3.34724 0.401753 3.19759 0.526711C2.25643 1.2593 0.715956 3.17041 0.245743 4.17068C0.170186 4.32259 0.0102699 4.70665 0 4.91185C0 5.10847 0.0528164 5.2959 0.159916 5.47476C0.309563 5.69773 0.545036 5.87659 0.823056 5.97459C1.01598 6.03768 1.5933 6.13569 1.60356 6.13569C2.23516 6.23369 3.26141 6.2876 4.3955 6.2876C5.47603 6.2876 6.46047 6.23369 7.10161 6.15345C7.11188 6.14426 7.8293 6.04626 8.07504 5.93907C8.52398 5.74244 8.80273 5.35838 8.80273 4.94737V4.91185C8.79173 4.64417 8.51298 4.08125 8.50271 4.08125C8.03176 3.13488 6.56684 1.26788 5.5934 0.517523C5.5934 0.517523 5.34326 0.306198 5.18701 0.214318C4.96254 0.0709848 4.68452 -6.86646e-05 4.4065 -6.86646e-05C4.09621 -6.86646e-05 3.80718 0.080173 3.57171 0.232082Z" fill="#C4C4C4"/>
</svg>
