<svg width="40" height="40" viewBox="0 0 40 40" fill="none" xmlns="http://www.w3.org/2000/svg">
<path d="M20 1.5C30.2305 1.5 38.5 9.78935 38.5 20C38.5 30.2145 30.2307 38.5 20 38.5C9.78833 38.5 1.5 30.2135 1.5 20C1.5 9.79033 9.78852 1.5 20 1.5Z" stroke="white" stroke-width="3"/>
<path d="M22.362 16.56C22.362 15.948 22.158 15.426 21.75 14.994C21.342 14.562 20.796 14.346 20.112 14.346C19.26 14.346 18.612 14.58 18.168 15.048C17.736 15.504 17.52 16.128 17.52 16.92C17.52 17.184 17.436 17.406 17.268 17.586C17.1 17.754 16.878 17.838 16.602 17.838C16.338 17.838 16.116 17.754 15.936 17.586C15.768 17.406 15.684 17.184 15.684 16.92C15.684 16.092 15.864 15.354 16.224 14.706C16.596 14.058 17.118 13.554 17.79 13.194C18.462 12.834 19.236 12.654 20.112 12.654C20.88 12.654 21.57 12.822 22.182 13.158C22.806 13.482 23.292 13.944 23.64 14.544C23.988 15.132 24.162 15.804 24.162 16.56C24.162 17.208 24.06 17.778 23.856 18.27C23.652 18.75 23.376 19.182 23.028 19.566C22.68 19.938 22.23 20.346 21.678 20.79C21.39 21.018 21.18 21.324 21.048 21.708C20.916 22.092 20.85 22.44 20.85 22.752C20.85 23.016 20.766 23.238 20.598 23.418C20.43 23.586 20.208 23.67 19.932 23.67C19.668 23.67 19.446 23.586 19.266 23.418C19.098 23.238 19.014 23.016 19.014 22.752C19.014 22.248 19.14 21.72 19.392 21.168C19.644 20.616 20.01 20.136 20.49 19.728C20.946 19.344 21.288 19.026 21.516 18.774C21.756 18.522 21.954 18.216 22.11 17.856C22.278 17.496 22.362 17.064 22.362 16.56ZM19.932 24.498C20.28 24.498 20.574 24.624 20.814 24.876C21.066 25.116 21.192 25.41 21.192 25.758C21.192 26.094 21.066 26.388 20.814 26.64C20.574 26.88 20.28 27 19.932 27C19.596 27 19.302 26.88 19.05 26.64C18.81 26.388 18.69 26.094 18.69 25.758C18.69 25.41 18.81 25.116 19.05 24.876C19.302 24.624 19.596 24.498 19.932 24.498Z" fill="white"/>
</svg>
