<svg width="26" height="26" viewBox="0 0 26 26" fill="none" xmlns="http://www.w3.org/2000/svg">
<g filter="url(#filter0_d)">
<path d="M18.1474 2C18.5368 2 18.8586 2.26247 18.9096 2.603L18.9166 2.69767L18.9166 3.48626C22.0756 3.68121 24.01 5.51888 24 8.48579V16.9744C24 20.1193 21.8281 22 18.3374 22H9.66251C6.17593 22 4 20.0872 4 16.9041V8.48579C4 5.51995 5.94057 3.68177 9.09271 3.48635L9.09281 2.69767C9.09281 2.31236 9.4372 2 9.86204 2C10.2515 2 10.5733 2.26247 10.6242 2.603L10.6313 2.69767L10.6311 3.469H17.3778L17.3781 2.69767C17.3781 2.31236 17.7225 2 18.1474 2ZM22.4611 10.283H5.53778L5.53846 16.9041C5.53846 19.2292 6.92129 20.5198 9.40996 20.6006L9.66251 20.6047H18.3374C20.994 20.6047 22.4615 19.3338 22.4615 16.9744L22.4611 10.283ZM18.5654 16.136C18.9903 16.136 19.3346 16.4484 19.3346 16.8337C19.3346 17.1869 19.0453 17.4788 18.6698 17.525L18.5654 17.5314C18.1311 17.5314 17.7867 17.219 17.7867 16.8337C17.7867 16.4805 18.0761 16.1886 18.4515 16.1424L18.5654 16.136ZM14.0142 16.136C14.439 16.136 14.7834 16.4484 14.7834 16.8337C14.7834 17.1869 14.494 17.4788 14.1186 17.525L14.0142 17.5314C13.5799 17.5314 13.2355 17.219 13.2355 16.8337C13.2355 16.4805 13.5249 16.1886 13.9003 16.1424L14.0142 16.136ZM9.45347 16.136C9.8783 16.136 10.2227 16.4484 10.2227 16.8337C10.2227 17.1869 9.93331 17.4788 9.55785 17.525L9.44397 17.5314C9.01914 17.5314 8.67474 17.219 8.67474 16.8337C8.67474 16.4805 8.96413 16.1886 9.33959 16.1424L9.45347 16.136ZM18.5654 12.5206C18.9903 12.5206 19.3346 12.833 19.3346 13.2183C19.3346 13.5715 19.0453 13.8634 18.6698 13.9096L18.5654 13.916C18.1311 13.916 17.7867 13.6036 17.7867 13.2183C17.7867 12.8651 18.0761 12.5732 18.4515 12.527L18.5654 12.5206ZM14.0142 12.5206C14.439 12.5206 14.7834 12.833 14.7834 13.2183C14.7834 13.5715 14.494 13.8634 14.1186 13.9096L14.0142 13.916C13.5799 13.916 13.2355 13.6036 13.2355 13.2183C13.2355 12.8651 13.5249 12.5732 13.9003 12.527L14.0142 12.5206ZM9.45347 12.5206C9.8783 12.5206 10.2227 12.833 10.2227 13.2183C10.2227 13.5715 9.93331 13.8634 9.55785 13.9096L9.44397 13.916C9.01914 13.916 8.67474 13.6036 8.67474 13.2183C8.67474 12.8651 8.96413 12.5732 9.33959 12.527L9.45347 12.5206ZM17.3778 4.864H10.6311L10.6313 5.75887C10.6313 6.14418 10.2869 6.45654 9.86204 6.45654C9.47261 6.45654 9.15077 6.19407 9.09983 5.85354L9.09281 5.75887L9.09172 4.88521C6.79877 5.05837 5.53846 6.3066 5.53846 8.48579L5.53778 8.887H22.4611L22.4615 8.48365C22.4689 6.30275 21.215 5.05711 18.9166 4.88499L18.9166 5.75887C18.9166 6.14418 18.5722 6.45654 18.1474 6.45654C17.7579 6.45654 17.4361 6.19407 17.3851 5.85354L17.3781 5.75887L17.3778 4.864Z" fill="#35676C"/>
</g>
<defs>
<filter id="filter0_d" x="0" y="0" width="26" height="26" filterUnits="userSpaceOnUse" color-interpolation-filters="sRGB">
<feFlood flood-opacity="0" result="BackgroundImageFix"/>
<feColorMatrix in="SourceAlpha" type="matrix" values="0 0 0 0 0 0 0 0 0 0 0 0 0 0 0 0 0 0 127 0"/>
<feOffset dx="-1" dy="1"/>
<feGaussianBlur stdDeviation="1.5"/>
<feColorMatrix type="matrix" values="0 0 0 0 0 0 0 0 0 0 0 0 0 0 0 0 0 0 0.3 0"/>
<feBlend mode="normal" in2="BackgroundImageFix" result="effect1_dropShadow"/>
<feBlend mode="normal" in="SourceGraphic" in2="effect1_dropShadow" result="shape"/>
</filter>
</defs>
</svg>
