<svg width="20" height="20" viewBox="0 0 20 20" fill="none" xmlns="http://www.w3.org/2000/svg">
<path d="M7.46068 6.0864L7.57002 6.18081L9.99727 8.60879L12.4239 6.18347C12.8047 5.80271 13.422 5.80271 13.8028 6.18347C14.1489 6.52962 14.1804 7.07128 13.8972 7.45298L13.8028 7.56233L11.3766 9.98809L13.8048 12.4169C14.1855 12.7977 14.1855 13.4151 13.8047 13.7958C13.4585 14.1419 12.9168 14.1733 12.5352 13.89L12.4258 13.7956L9.99857 11.3661L7.5732 13.7919C7.19244 14.1727 6.5751 14.1727 6.19434 13.7919C5.84819 13.4458 5.81672 12.9041 6.09993 12.5224L6.19434 12.4131L8.61927 9.98679L6.19102 7.55953C5.8103 7.17873 5.81036 6.56139 6.19116 6.18067C6.53734 5.83456 7.07901 5.80315 7.46068 6.0864Z" fill="white"/>
<circle cx="10" cy="10" r="9.5" stroke="white"/>
</svg>
