<svg width="25" height="25" viewBox="0 0 25 25" fill="none" xmlns="http://www.w3.org/2000/svg">
<path d="M7.51685 13.6811C9.57315 13.6811 11.2365 15.3594 11.2365 17.4267V21.2556C11.2365 23.3219 9.57291 25 7.51685 25H3.71968C1.66361 25 0 23.3219 0 21.2556V17.4267C0 15.3594 1.66337 13.6811 3.71968 13.6811H7.51685ZM21.2815 13.6811C23.3369 13.6811 25 15.3596 25 17.4267V21.2556C25 23.3217 23.3366 25 21.2815 25H17.4832C15.4271 25 13.7635 23.3219 13.7635 21.2556V17.4267C13.7635 15.3594 15.4268 13.6811 17.4832 13.6811H21.2815ZM7.51685 15.4253H3.71968C2.63016 15.4253 1.74419 16.3192 1.74419 17.4267V21.2556C1.74419 22.362 2.63029 23.2558 3.71968 23.2558H7.51685C8.60623 23.2558 9.49234 22.362 9.49234 21.2556V17.4267C9.49234 16.3192 8.60636 15.4253 7.51685 15.4253ZM21.2815 15.4253H17.4832C16.3936 15.4253 15.5077 16.3192 15.5077 17.4267V21.2556C15.5077 22.362 16.3938 23.2558 17.4832 23.2558H21.2815C22.3698 23.2558 23.2558 22.3619 23.2558 21.2556V17.4267C23.2558 16.3193 22.37 15.4253 21.2815 15.4253ZM21.2815 0C23.3366 0 25 1.6783 25 3.7444V7.57454C25 9.6398 23.3363 11.3189 21.2815 11.3189H17.4832C15.4274 11.3189 13.7635 9.64004 13.7635 7.57454V3.7444C13.7635 1.67806 15.4271 0 17.4832 0H21.2815ZM7.51685 0C9.57291 0 11.2365 1.67806 11.2365 3.7444V7.57454C11.2365 9.64004 9.57256 11.3189 7.51685 11.3189H3.71968C1.66397 11.3189 0 9.64004 0 7.57454V3.7444C0 1.67806 1.66361 0 3.71968 0H7.51685ZM21.2815 1.74419H17.4832C16.3938 1.74419 15.5077 2.63798 15.5077 3.7444V7.57454C15.5077 8.68022 16.3942 9.57475 17.4832 9.57475H21.2815C22.3694 9.57475 23.2558 8.68009 23.2558 7.57454V3.7444C23.2558 2.63811 22.3698 1.74419 21.2815 1.74419ZM7.51685 1.74419H3.71968C2.63029 1.74419 1.74419 2.63798 1.74419 3.7444V7.57454C1.74419 8.68022 2.63076 9.57475 3.71968 9.57475H7.51685C8.60577 9.57475 9.49234 8.68022 9.49234 7.57454V3.7444C9.49234 2.63798 8.60623 1.74419 7.51685 1.74419Z" fill="#E6E6E6" fill-opacity="0.9"/>
</svg>
