<svg width="20" height="20" viewBox="0 0 20 20" fill="none" xmlns="http://www.w3.org/2000/svg">
<path d="M17.6433 6.71882L17.7538 6.72017C18.1639 6.75069 18.4782 7.05716 18.5 7.42605L18.4894 7.63174L18.14 11.483L17.7734 15.2414C17.6959 15.9917 17.6265 16.6245 17.5665 17.1227C17.3583 18.8588 16.1061 19.9323 14.2185 19.9641C11.2771 20.013 8.44974 20.0125 5.70414 19.9591C3.87108 19.9244 2.63741 18.8393 2.43283 17.1297L2.29144 15.8702L2.04438 13.427L1.79129 10.7461L1.50191 7.52788C1.46594 7.11498 1.79946 6.75335 2.24683 6.72016C2.65692 6.68973 3.02034 6.94584 3.10576 7.30677L3.13901 7.60173L3.41073 10.6187L3.70743 13.7459C3.84051 15.0996 3.95593 16.1952 4.04829 16.9648C4.16487 17.939 4.73486 18.4404 5.73791 18.4593C8.46206 18.5124 11.2683 18.5129 14.189 18.4643C15.253 18.4464 15.8321 17.9499 15.9511 16.9574L16.0919 15.7046C16.1331 15.3185 16.1771 14.8923 16.2237 14.4293L16.5207 11.3538L16.8785 7.4075C16.9115 7.02902 17.2436 6.7389 17.6433 6.71882ZM0.812656 4.98918C0.363838 4.98918 0 4.65338 0 4.23916C0 3.85945 0.305725 3.54564 0.702383 3.49597L0.812656 3.48913H4.35302C4.77373 3.48913 5.14205 3.23928 5.2738 2.87929L5.30604 2.76813L5.58116 1.50533C5.82346 0.668966 6.61022 0.0734931 7.53222 0.00633149L7.70658 0H12.2932C13.2305 0 14.0582 0.546275 14.3768 1.39039L14.4304 1.55209L14.6937 2.76783C14.7763 3.14872 15.1139 3.4332 15.5223 3.48177L15.6468 3.48913H19.1873C19.6362 3.48913 20 3.82493 20 4.23916C20 4.61887 19.6943 4.93267 19.2976 4.98234L19.1873 4.98918H0.812656ZM12.2932 1.50006H7.70658C7.47856 1.50006 7.27588 1.62322 7.19169 1.77803L7.16314 1.84604L6.89977 3.06238C6.86756 3.21084 6.82088 3.3538 6.76124 3.49012L13.2387 3.49031C13.2014 3.40526 13.1693 3.31763 13.1425 3.22768L13.0999 3.06208L12.8485 1.8928C12.7897 1.68991 12.6082 1.54138 12.3891 1.50742L12.2932 1.50006Z" fill="white"/>
</svg>
