<svg width="18" height="17" viewBox="0 0 18 17" fill="none" xmlns="http://www.w3.org/2000/svg">
<path d="M4.8303 4.25961C5.20309 4.25961 5.5053 4.56182 5.5053 4.93461C5.5053 5.27634 5.25136 5.55875 4.92189 5.60345L4.8303 5.60961H3.9825C2.58088 5.60961 1.43456 6.70545 1.35447 8.08661L1.35 8.24121V12.6377C1.35 14.0443 2.44982 15.1944 3.83631 15.2747L3.9915 15.2792H14.0175C15.4198 15.2792 16.5655 14.1836 16.6455 12.8014L16.65 12.6467V8.25111C16.65 6.84374 15.5511 5.69439 14.1646 5.61409L14.0094 5.60961H13.1697C12.7969 5.60961 12.4947 5.3074 12.4947 4.93461C12.4947 4.59288 12.7486 4.31047 13.0781 4.26577L13.1697 4.25961H14.0094C16.1509 4.25961 17.8976 5.94546 17.9957 8.06316L18 8.25111V12.6467C18 14.7837 16.3177 16.527 14.205 16.6249L14.0175 16.6292H3.9915C1.85019 16.6292 0.102467 14.9427 0.00434488 12.8256L0 12.6377V8.24121C0 6.1071 1.68012 4.36484 3.78958 4.2642L3.9825 4.25961H4.8303ZM9.00018 0C9.34191 0 9.62432 0.253939 9.66902 0.583407L9.67518 0.675L9.67504 7.79258C9.67503 8.56056 10.6041 8.94456 11.1463 8.40065C11.3855 8.16052 11.7604 8.13797 12.0251 8.33349L12.1009 8.39869C12.341 8.63784 12.3636 9.01279 12.1681 9.27745L12.1029 9.35329L9.47846 11.9885C9.45636 12.0103 9.43384 12.03 9.41008 12.0482L9.47846 11.9885C9.44535 12.0217 9.40964 12.0508 9.37198 12.0757C9.35829 12.0844 9.34404 12.0931 9.32946 12.1013C9.32022 12.1068 9.31094 12.1117 9.30157 12.1164C9.28285 12.1254 9.26348 12.134 9.24367 12.1416C9.23344 12.1459 9.22325 12.1495 9.21301 12.1529C9.19425 12.1589 9.17477 12.1644 9.15495 12.1691C9.1442 12.1718 9.13369 12.174 9.12315 12.1759C9.10608 12.1789 9.0883 12.1814 9.07032 12.1833C9.05203 12.1854 9.03398 12.1866 9.01592 12.187C9.01062 12.1868 9.00541 12.1869 9.00018 12.1869L8.98534 12.187C8.96698 12.1866 8.94863 12.1855 8.93034 12.1836L9.00018 12.1869C8.95802 12.1869 8.91676 12.183 8.87674 12.1756C8.86662 12.174 8.85607 12.1718 8.84557 12.1693C8.82484 12.1642 8.80462 12.1585 8.78482 12.1518C8.77549 12.1489 8.76618 12.1456 8.75693 12.142C8.7378 12.1343 8.71911 12.1261 8.70089 12.1171C8.69101 12.1125 8.68087 12.1072 8.67085 12.1016C8.65307 12.0913 8.63587 12.0806 8.6192 12.0692C8.61174 12.0644 8.60468 12.0594 8.5977 12.0542C8.56888 12.0321 8.54533 12.0116 8.52331 11.9896C8.52303 11.9893 8.52272 11.9891 8.5224 11.9888C8.52207 11.9886 8.52176 11.9883 8.52147 11.9881L5.8975 9.35329C5.63444 9.08914 5.63532 8.66176 5.89946 8.39869C6.1396 8.15955 6.51464 8.13853 6.77848 8.33514L6.85406 8.40065C7.39607 8.94452 8.32503 8.56067 8.32504 7.79283L8.32518 0.675C8.32518 0.302208 8.62739 0 9.00018 0Z" fill="url(#paint0_linear)"/>
<defs>
<linearGradient id="paint0_linear" x1="0" y1="8.3146" x2="18" y2="8.3146" gradientUnits="userSpaceOnUse">
<stop stop-color="#35676C"/>
<stop offset="1" stop-color="#020D51"/>
</linearGradient>
</defs>
</svg>
