<svg width="20" height="20" viewBox="0 0 20 20" fill="none" xmlns="http://www.w3.org/2000/svg">
<path d="M7.46068 6.08625L7.57002 6.18066L9.99727 8.60864L12.4239 6.18332C12.8047 5.80256 13.422 5.80256 13.8028 6.18332C14.1489 6.52947 14.1804 7.07113 13.8972 7.45282L13.8028 7.56218L11.3766 9.98794L13.8048 12.4168C14.1855 12.7976 14.1855 13.4149 13.8047 13.7956C13.4585 14.1417 12.9168 14.1731 12.5352 13.8899L12.4258 13.7955L9.99857 11.3659L7.5732 13.7918C7.19244 14.1725 6.5751 14.1725 6.19434 13.7918C5.84819 13.4456 5.81672 12.904 6.09993 12.5223L6.19434 12.4129L8.61927 9.98664L6.19102 7.55938C5.8103 7.17858 5.81036 6.56124 6.19116 6.18052C6.53734 5.83441 7.07901 5.803 7.46068 6.08625Z" fill="white"/>
<circle cx="10" cy="10" r="9.5" stroke="white"/>
</svg>
