<svg width="18" height="20" viewBox="0 0 18 20" fill="none" xmlns="http://www.w3.org/2000/svg">
<path d="M9.58367 2.17992e-07C10.2554 -0.000285658 10.8986 0.280614 11.3668 0.77871C11.835 1.27681 12.0883 1.94968 12.0679 2.57766L12.0759 2.72535C12.0923 2.87079 12.1381 3.01116 12.2123 3.14054C12.357 3.39567 12.5938 3.58081 12.8706 3.65514C13.1474 3.72947 13.4415 3.68688 13.7199 3.51839L13.8751 3.4355C15.0404 2.86897 16.4379 3.31918 17.0842 4.47928L17.6651 5.52174C17.6804 5.54922 17.6939 5.57762 17.7056 5.60674L17.7595 5.71842C18.279 6.86519 17.9094 8.22927 16.9223 8.92228L16.6785 9.08068C16.5511 9.17256 16.4449 9.29258 16.365 9.43678C16.2207 9.69291 16.1811 9.99795 16.2549 10.2844C16.3288 10.5708 16.51 10.8149 16.7849 10.9793L16.9431 11.0841C17.4208 11.4297 17.766 11.9391 17.9165 12.523C18.0864 13.1817 17.9953 13.8833 17.6589 14.4804L17.034 15.557L16.9397 15.7089C16.2055 16.8008 14.78 17.1344 13.692 16.485L13.5631 16.4163C13.4286 16.3541 13.2835 16.3199 13.1514 16.316C12.8639 16.3146 12.5879 16.432 12.3847 16.6422C12.1815 16.8524 12.0679 17.1379 12.0686 17.4698L12.061 17.6414C11.9558 18.9703 10.88 20 9.58396 20H8.41364C7.04103 20 5.9283 18.8493 5.92969 17.4753L5.92165 17.3277C5.9053 17.1822 5.85951 17.0418 5.78151 16.9057C5.64002 16.65 5.4056 16.4633 5.13036 16.3871C4.85512 16.3109 4.56185 16.3516 4.27799 16.5213L4.10932 16.6084C3.57594 16.8565 2.97429 16.9023 2.41053 16.7366C1.77448 16.5497 1.23669 16.1083 0.922855 15.5224L0.319065 14.4442L0.238705 14.2844C-0.311142 13.0841 0.119855 11.6412 1.21372 10.9875L1.31348 10.9228C1.60571 10.7137 1.78093 10.3688 1.78093 10C1.78093 9.59896 1.57404 9.22838 1.21214 9.01151L1.0653 8.91408C0.00948068 8.15476 -0.313112 6.68049 0.340953 5.50696L0.956064 4.46166C1.64016 3.23376 3.15621 2.81017 4.32223 3.50171L4.44845 3.5713C4.57713 3.63238 4.7169 3.6648 4.85149 3.66628C5.44492 3.66634 5.9284 3.17352 5.93739 2.54181L5.94545 2.3478C5.99404 1.74716 6.24607 1.1827 6.65807 0.754574C7.12289 0.27155 7.75468 2.17992e-07 8.41364 2.17992e-07H9.58367ZM9.58396 1.44774H8.41364C8.12712 1.44774 7.85242 1.56581 7.65032 1.77582C7.47119 1.96196 7.3616 2.20741 7.34237 2.43661L7.32965 2.7415C7.23163 4.07087 6.1576 5.11416 4.84414 5.11398C4.50557 5.11034 4.17179 5.03293 3.83141 4.87026L3.64917 4.77085C3.12991 4.46315 2.4678 4.64815 2.16054 5.19925L1.54543 6.24455C1.26357 6.75044 1.40453 7.39466 1.84096 7.70925L2.08795 7.871C2.76818 8.34666 3.18083 9.14295 3.18083 10C3.18083 10.8446 2.7797 11.634 2.08629 12.1296L1.93868 12.2256C1.45283 12.5163 1.26533 13.144 1.49114 13.6383L1.54447 13.7449L2.1406 14.8084C2.28058 15.0696 2.51546 15.2624 2.79324 15.344C3.03945 15.4164 3.30223 15.3964 3.50724 15.3018L3.61023 15.2497C4.1788 14.9066 4.85634 14.8126 5.49225 14.9886C6.12816 15.1645 6.66974 15.5959 6.99098 16.1768C7.1638 16.478 7.27315 16.8132 7.31548 17.1985L7.33457 17.552C7.39351 18.1145 7.85413 18.5523 8.41364 18.5523H9.58396C10.1498 18.5523 10.6199 18.1023 10.664 17.5511L10.6694 17.4421C10.6662 16.7585 10.9274 16.1019 11.3948 15.6185C11.8622 15.1351 12.4971 14.865 13.1735 14.8686C13.5053 14.8778 13.8319 14.9547 14.1658 15.11L14.4651 15.2682C14.935 15.4814 15.4923 15.3258 15.7747 14.9067L15.8434 14.7957L16.4539 13.7436C16.5981 13.4875 16.6377 13.1824 16.5639 12.896C16.4984 12.6422 16.3484 12.4207 16.1664 12.2882L15.9084 12.1195C15.4152 11.7748 15.0567 11.2563 14.9023 10.6574C14.7325 9.99866 14.8235 9.29707 15.1528 8.71262C15.3331 8.38716 15.5808 8.10733 15.9038 7.87532L16.056 7.77613C16.5411 7.4827 16.7285 6.85504 16.5043 6.35884L16.4373 6.22529L16.4253 6.19726L15.8713 5.20208C15.6092 4.73175 15.064 4.52853 14.6013 4.6891L14.4961 4.73265L14.3984 4.78415C13.8317 5.12941 13.1555 5.22736 12.5188 5.05641C11.8822 4.88546 11.3375 4.45965 11.0066 3.87616C10.8338 3.57504 10.7244 3.23984 10.6821 2.85454L10.6697 2.60249C10.6781 2.29923 10.5675 2.00536 10.363 1.78783C10.1585 1.57029 9.8776 1.44774 9.58396 1.44774ZM9.00307 6.73182C10.7484 6.73182 12.1633 8.19503 12.1633 10C12.1633 11.805 10.7484 13.2682 9.00307 13.2682C7.25774 13.2682 5.84288 11.805 5.84288 10C5.84288 8.19503 7.25774 6.73182 9.00307 6.73182ZM9.00307 8.17956C8.03089 8.17956 7.24278 8.9946 7.24278 10C7.24278 11.0054 8.03089 11.8204 9.00307 11.8204C9.97525 11.8204 10.7634 11.0054 10.7634 10C10.7634 8.9946 9.97525 8.17956 9.00307 8.17956Z" fill="#444444"/>
</svg>
