<svg width="26" height="30" viewBox="0 0 26 30" fill="none" xmlns="http://www.w3.org/2000/svg">
<path d="M18.5799 0C23.1963 0 25.9567 2.88 26 7.698V22.1865C26 27.072 23.2324 30 18.5799 30H7.42156C6.82644 30 6.26167 29.952 5.73011 29.8575L5.41522 29.796C1.99044 29.0565 0 26.3325 0 22.1865V7.8135C0 7.3125 0.0288889 6.8325 0.0866667 6.3735C0.590778 2.346 3.25578 0 7.42156 0H18.5799ZM18.5669 2.1855H7.42156C3.874 2.1855 2.07567 4.08 2.07567 7.8135V22.1865C2.07567 25.92 3.874 27.8145 7.42156 27.8145H18.5669C22.113 27.8145 23.8998 25.92 23.8998 22.1865V7.8135C23.8998 4.08 22.113 2.1855 18.5669 2.1855ZM18.1899 20.265C18.759 20.265 19.2198 20.751 19.2198 21.351C19.2198 21.951 18.759 22.437 18.1899 22.437H7.774C7.20489 22.437 6.74267 21.951 6.74267 21.351C6.74267 20.751 7.20489 20.265 7.774 20.265H18.1899ZM18.1899 13.9065C18.5871 13.8615 18.9757 14.0595 19.188 14.415C19.4003 14.7735 19.4003 15.2265 19.188 15.585C18.9757 15.9405 18.5871 16.1385 18.1899 16.0935H7.774C7.24533 16.0305 6.84522 15.561 6.84522 15C6.84522 14.439 7.24533 13.968 7.774 13.9065H18.1899ZM11.7491 7.563C12.2778 7.6245 12.6779 8.0955 12.6779 8.6565C12.6779 9.216 12.2778 9.687 11.7491 9.7485H7.787C7.25689 9.687 6.85678 9.216 6.85678 8.6565C6.85678 8.0955 7.25689 7.6245 7.787 7.563H11.7491Z" fill="#E6E6E6" fill-opacity="0.9"/>
</svg>
