<svg width="37" height="40" viewBox="0 0 37 40" fill="none" xmlns="http://www.w3.org/2000/svg">
<path d="M28.1038 0C32.8526 0 36.7267 3.73843 36.9442 8.43333L36.9538 8.85V31.13C36.9538 35.8885 33.2059 39.7723 28.5013 39.9903L28.0838 40H18.3138C13.5713 40 9.69965 36.2664 9.476 31.5787L9.4658 31.15V29.266C9.4658 28.4376 10.1374 27.766 10.9658 27.766C11.7252 27.766 12.3528 28.3303 12.4521 29.0625L12.4658 29.266V31.15C12.4658 34.2647 14.901 36.8121 17.9703 36.9901L18.3138 37H28.0838C31.2096 37 33.7653 34.556 33.9438 31.4749L33.9538 31.13V8.85C33.9538 5.73384 31.5191 3.18781 28.4476 3.00993L28.1038 3H18.3358C15.2083 3 12.6542 5.44195 12.4758 8.52311L12.4658 8.868V10.734C12.4658 11.5624 11.7942 12.234 10.9658 12.234C10.2064 12.234 9.57882 11.6697 9.47949 10.9375L9.4658 10.734V8.868C9.4658 4.10917 13.2121 0.22757 17.9181 0.0096496L18.3358 0H28.1038ZM20.6165 12.9599L20.7851 13.1048L26.6411 18.9368C26.6896 18.9859 26.7334 19.0359 26.7739 19.0887L26.6411 18.9368C26.715 19.0103 26.7796 19.0897 26.8349 19.1734C26.8543 19.2038 26.8736 19.2355 26.8917 19.2679C26.9039 19.2884 26.9148 19.309 26.9252 19.3298C26.9454 19.3715 26.9644 19.4145 26.9814 19.4585C26.9908 19.4813 26.9989 19.5039 27.0064 19.5267C27.0198 19.5683 27.0321 19.6116 27.0424 19.6557C27.0484 19.6796 27.0533 19.7029 27.0576 19.7263C27.0647 19.7669 27.0706 19.809 27.0748 19.8517C27.0783 19.8818 27.0803 19.9112 27.0814 19.9406C27.0816 19.96 27.082 19.9798 27.082 19.9996L27.0815 20.0566C27.0804 20.0873 27.0783 20.1181 27.0752 20.1488L27.082 19.9996C27.082 20.0933 27.0734 20.185 27.057 20.2739C27.0533 20.2964 27.0484 20.3198 27.0429 20.3432C27.0317 20.3893 27.0188 20.4342 27.004 20.4782C26.9976 20.4989 26.9901 20.5196 26.9822 20.5402C26.9652 20.5827 26.9469 20.6242 26.9269 20.6647C26.9167 20.6866 26.9049 20.7092 26.8924 20.7314C26.8695 20.771 26.8458 20.8092 26.8204 20.8462C26.8098 20.8628 26.7986 20.8785 26.787 20.894C26.7377 20.9585 26.6919 21.0111 26.6427 21.0603L26.6411 21.0624L20.7851 26.8944C20.1981 27.479 19.2483 27.4771 18.6638 26.8901C18.1323 26.3565 18.0856 25.523 18.5225 24.9367L18.6681 24.7688L21.948 21.498L1.5 21.4996C0.671573 21.4996 0 20.828 0 19.9996C0 19.2402 0.564308 18.6126 1.29646 18.5133L1.5 18.4996L21.948 18.498L18.6681 15.2304C18.1345 14.699 18.0844 13.8658 18.5189 13.2777L18.6638 13.1091C19.1952 12.5755 20.0284 12.5254 20.6165 12.9599Z" fill="white"/>
</svg>
