<svg width="28" height="30" viewBox="0 0 28 30" fill="none" xmlns="http://www.w3.org/2000/svg">
<path d="M14.9079 3.26988e-07C15.9528 -0.000428487 16.9534 0.420921 17.6817 1.16807C18.41 1.91521 18.804 2.92452 18.7723 3.86649L18.7848 4.08803C18.8102 4.30619 18.8815 4.51674 18.997 4.71082C19.222 5.0935 19.5904 5.37121 20.021 5.48271C20.4516 5.5942 20.909 5.53031 21.3421 5.27758L21.5835 5.15325C23.3961 4.30346 25.5701 4.97877 26.5755 6.71892L27.4791 8.28261C27.5029 8.32383 27.5239 8.36643 27.542 8.41012L27.6258 8.57763C28.434 10.2978 27.859 12.3439 26.3236 13.3834L25.9444 13.621C25.7462 13.7588 25.5809 13.9389 25.4566 14.1552C25.2322 14.5394 25.1706 14.9969 25.2855 15.4266C25.4004 15.8562 25.6822 16.2224 26.1098 16.4689L26.3559 16.6261C27.0991 17.1446 27.636 17.9087 27.8702 18.7845C28.1344 19.7726 27.9927 20.825 27.4693 21.7206L26.4973 23.3355L26.3507 23.5633C25.2086 25.2012 22.991 25.7016 21.2987 24.7274L21.0982 24.6244C20.8889 24.5311 20.6632 24.4798 20.4577 24.4741C20.0106 24.4719 19.5812 24.6481 19.2651 24.9633C18.9489 25.2786 18.7723 25.7068 18.7734 26.2047L18.7615 26.4621C18.5978 28.4555 16.9245 30 14.9084 30H13.0879C10.9527 30 9.2218 28.2739 9.22397 26.213L9.21145 25.9915C9.18602 25.7733 9.11479 25.5628 8.99345 25.3586C8.77337 24.975 8.40872 24.6949 7.98056 24.5806C7.5524 24.4664 7.09621 24.5274 6.65464 24.782L6.39228 24.9126C5.56257 25.2848 4.62668 25.3535 3.74972 25.1049C2.7603 24.8245 1.92374 24.1625 1.43555 23.2836L0.496323 21.6663L0.371318 21.4267C-0.483998 19.6262 0.186441 17.4618 1.88801 16.4812L2.04319 16.3843C2.49777 16.0705 2.77033 15.5532 2.77033 15C2.77033 14.3984 2.44851 13.8426 1.88555 13.5173L1.65714 13.3711C0.0147477 12.2321 -0.487064 10.0207 0.530371 8.26043L1.48721 6.69248C2.55137 4.85064 4.90966 4.21525 6.72346 5.25257L6.91981 5.35695C7.11998 5.44857 7.3374 5.4972 7.54675 5.49942C8.46988 5.49952 9.22195 4.76028 9.23593 3.81271L9.24848 3.52171C9.32406 2.62074 9.7161 1.77405 10.357 1.13186C11.0801 0.407325 12.0628 3.26988e-07 13.0879 3.26988e-07H14.9079ZM14.9084 2.17161H13.0879C12.6422 2.17161 12.2149 2.34871 11.9005 2.66373C11.6218 2.94295 11.4514 3.31111 11.4215 3.65492L11.4017 4.11225C11.2492 6.10631 9.57849 7.67124 7.53534 7.67097C7.00866 7.66552 6.48945 7.54939 5.95997 7.30538L5.67649 7.15628C4.86876 6.69473 3.83881 6.97223 3.36084 7.79887L2.404 9.36683C1.96555 10.1257 2.18483 11.092 2.86372 11.5639L3.24793 11.8065C4.30605 12.52 4.94796 13.7144 4.94796 15C4.94796 16.2668 4.32397 17.4511 3.24534 18.1944L3.01573 18.3384C2.25995 18.7744 1.96829 19.716 2.31956 20.4575L2.40251 20.6174L3.32982 22.2126C3.54758 22.6044 3.91293 22.8936 4.34504 23.0161C4.72803 23.1246 5.1368 23.0946 5.4557 22.9527L5.61591 22.8745C6.50036 22.3598 7.55431 22.2188 8.5435 22.4828C9.53269 22.7468 10.3752 23.3939 10.8749 24.2653C11.1437 24.717 11.3138 25.2197 11.3796 25.7977L11.4093 26.3281C11.501 27.1717 12.2175 27.8284 13.0879 27.8284H14.9084C15.7886 27.8284 16.5198 27.1535 16.5885 26.3267L16.5968 26.1631C16.5919 25.1377 16.9982 24.1529 17.7253 23.4278C18.4523 22.7027 19.4399 22.2975 20.492 22.3029C21.0083 22.3166 21.5163 22.432 22.0357 22.6651L22.5013 22.9022C23.2322 23.2222 24.0991 22.9887 24.5385 22.3601L24.6453 22.1936L25.5949 20.6154C25.8193 20.2312 25.8809 19.7737 25.7661 19.344C25.6642 18.9632 25.4308 18.631 25.1477 18.4322L24.7465 18.1793C23.9792 17.6621 23.4216 16.8844 23.1814 15.9861C22.9171 14.998 23.0588 13.9456 23.571 13.0689C23.8514 12.5807 24.2368 12.161 24.7392 11.813L24.976 11.6642C25.7306 11.2241 26.0221 10.2826 25.6733 9.53825L25.5691 9.33794L25.5505 9.29589L24.6887 7.80313C24.281 7.09763 23.4328 6.79279 22.7131 7.03365L22.5496 7.09898L22.3975 7.17623C21.516 7.69411 20.464 7.84104 19.4737 7.58462C18.4834 7.32819 17.636 6.68947 17.1214 5.81424C16.8526 5.36256 16.6825 4.85976 16.6166 4.28181L16.5973 3.90373C16.6104 3.44885 16.4383 3.00805 16.1202 2.68174C15.8021 2.35544 15.3652 2.17161 14.9084 2.17161ZM14.0048 10.0977C16.7197 10.0977 18.9206 12.2926 18.9206 15C18.9206 17.7074 16.7197 19.9023 14.0048 19.9023C11.2898 19.9023 9.08892 17.7074 9.08892 15C9.08892 12.2926 11.2898 10.0977 14.0048 10.0977ZM14.0048 12.2693C12.4925 12.2693 11.2665 13.4919 11.2665 15C11.2665 16.5081 12.4925 17.7307 14.0048 17.7307C15.5171 17.7307 16.743 16.5081 16.743 15C16.743 13.4919 15.5171 12.2693 14.0048 12.2693Z" fill="#E5E5E5"/>
</svg>
