<svg width="24" height="24" viewBox="0 0 24 24" fill="none" xmlns="http://www.w3.org/2000/svg">
<path d="M12 0C18.6274 0 24 5.37259 24 12C24 18.6274 18.6274 24 12 24C5.37259 24 0 18.6274 0 12C0 5.37259 5.37259 0 12 0ZM12 1.67442C6.29735 1.67442 1.67442 6.29735 1.67442 12C1.67442 17.7027 6.29735 22.3256 12 22.3256C17.7027 22.3256 22.3256 17.7027 22.3256 12C22.3256 6.29735 17.7027 1.67442 12 1.67442Z" fill="white"/>
<path d="M14.1338 8C14.6861 8 15.1338 8.44771 15.1338 9V15.5C15.1338 16.0523 14.6861 16.5 14.1338 16.5C13.5815 16.5 13.1338 16.0523 13.1338 15.5V9C13.1338 8.44771 13.5815 8 14.1338 8Z" fill="white"/>
<path d="M10.1338 8C10.6861 8 11.1338 8.44772 11.1338 9V15.5C11.1338 16.0523 10.6861 16.5 10.1338 16.5C9.5815 16.5 9.13378 16.0523 9.13378 15.5V9C9.13378 8.44772 9.5815 8 10.1338 8Z" fill="white"/>
</svg>
