<svg width="105" height="24" viewBox="0 0 105 24" fill="none" xmlns="http://www.w3.org/2000/svg">
<path d="M7.416 8.04C9.672 8.04 11.064 9.792 11.064 12C11.064 14.208 9.672 15.96 7.416 15.96C5.16 15.96 3.864 14.232 3.864 12C3.864 9.768 5.16 8.04 7.416 8.04ZM7.656 18.792C11.544 18.792 14.064 15.696 14.064 12C14.064 8.304 11.544 5.208 7.656 5.208C6.144 5.208 4.92 5.64 3.96 6.408V5.4H0.96V23.352H3.96V17.592C4.92 18.336 6.144 18.792 7.656 18.792ZM21.018 8.04C22.722 8.04 23.874 9.024 24.33 10.44H17.706C18.162 9.024 19.314 8.04 21.018 8.04ZM27.57 13.32V12C27.57 8.28 25.074 5.208 21.018 5.208C16.962 5.208 14.466 8.28 14.466 12C14.466 15.72 17.106 18.792 21.138 18.792C24.282 18.792 26.25 17.112 27.498 13.944H24.282C23.562 15.288 22.602 15.96 21.162 15.96C19.338 15.96 18.09 14.856 17.634 13.32H27.57ZM40.8094 18.6L35.2414 10.8L40.7374 5.4H36.4894L31.5694 10.464V0.599999H28.5694V18.6H31.5694V14.448L33.1294 12.912L37.1134 18.6H40.8094ZM45.9109 8.04C48.1669 8.04 49.4629 9.768 49.4629 12C49.4629 14.232 48.1669 15.96 45.9109 15.96C43.6549 15.96 42.2629 14.208 42.2629 12C42.2629 9.792 43.6549 8.04 45.9109 8.04ZM52.3669 18.6V5.4H49.3669V6.408C48.4069 5.664 47.1829 5.208 45.6709 5.208C41.7829 5.208 39.2629 8.304 39.2629 12C39.2629 15.696 41.7829 18.792 45.6709 18.792C47.1829 18.792 48.4069 18.36 49.3669 17.592V18.6H52.3669ZM66.3017 12.384V9.432H59.1017V12.384H66.3017ZM78.9578 8.04C81.2138 8.04 82.5098 9.768 82.5098 12C82.5098 14.232 81.2138 15.96 78.9578 15.96C76.7018 15.96 75.3098 14.208 75.3098 12C75.3098 9.792 76.7018 8.04 78.9578 8.04ZM85.4138 18.6V5.4H82.4138V6.408C81.4538 5.664 80.2298 5.208 78.7178 5.208C74.8298 5.208 72.3098 8.304 72.3098 12C72.3098 15.696 74.8298 18.792 78.7178 18.792C80.2298 18.792 81.4538 18.36 82.4138 17.592V18.6H85.4138ZM93.7832 8.04C96.0392 8.04 97.4312 9.792 97.4312 12C97.4312 14.208 96.0392 15.96 93.7832 15.96C91.5272 15.96 90.2312 14.232 90.2312 12C90.2312 9.768 91.5272 8.04 93.7832 8.04ZM94.0232 18.792C97.9112 18.792 100.431 15.696 100.431 12C100.431 8.304 97.9112 5.208 94.0232 5.208C92.5112 5.208 91.2872 5.64 90.3272 6.408V5.4H87.3272V23.352H90.3272V17.592C91.2872 18.336 92.5112 18.792 94.0232 18.792ZM104.577 18.6V5.4H101.577V18.6H104.577ZM104.649 4.584V1.032H101.505V4.584H104.649Z" fill="white"/>
</svg>
