<svg width="301" height="234" viewBox="0 0 301 234" fill="none" xmlns="http://www.w3.org/2000/svg">
<g filter="url(#filter0_ddii)">
<rect x="15" y="15" width="271" height="192" rx="10" fill="white"/>
</g>
<path d="M126.854 38.168C126.854 38.6627 126.737 39.1293 126.504 39.568C126.271 40.0067 125.897 40.366 125.384 40.646C124.871 40.9167 124.213 41.052 123.41 41.052H121.646V45H120.05V35.27H123.41C124.157 35.27 124.787 35.4007 125.3 35.662C125.823 35.914 126.21 36.2593 126.462 36.698C126.723 37.1367 126.854 37.6267 126.854 38.168ZM123.41 39.75C124.017 39.75 124.469 39.6147 124.768 39.344C125.067 39.064 125.216 38.672 125.216 38.168C125.216 37.104 124.614 36.572 123.41 36.572H121.646V39.75H123.41ZM135.446 40.954C135.446 41.2433 135.428 41.5047 135.39 41.738H129.496C129.543 42.354 129.772 42.8487 130.182 43.222C130.593 43.5953 131.097 43.782 131.694 43.782C132.553 43.782 133.16 43.4227 133.514 42.704H135.236C135.003 43.4133 134.578 43.9967 133.962 44.454C133.356 44.902 132.6 45.126 131.694 45.126C130.957 45.126 130.294 44.9627 129.706 44.636C129.128 44.3 128.67 43.8333 128.334 43.236C128.008 42.6293 127.844 41.9293 127.844 41.136C127.844 40.3427 128.003 39.6473 128.32 39.05C128.647 38.4433 129.1 37.9767 129.678 37.65C130.266 37.3233 130.938 37.16 131.694 37.16C132.422 37.16 133.071 37.3187 133.64 37.636C134.21 37.9533 134.653 38.4013 134.97 38.98C135.288 39.5493 135.446 40.2073 135.446 40.954ZM133.78 40.45C133.771 39.862 133.561 39.3907 133.15 39.036C132.74 38.6813 132.231 38.504 131.624 38.504C131.074 38.504 130.602 38.6813 130.21 39.036C129.818 39.3813 129.585 39.8527 129.51 40.45H133.78ZM138.613 38.406C138.846 38.014 139.154 37.7107 139.537 37.496C139.929 37.272 140.391 37.16 140.923 37.16V38.812H140.517C139.891 38.812 139.415 38.9707 139.089 39.288C138.771 39.6053 138.613 40.156 138.613 40.94V45H137.017V37.286H138.613V38.406ZM143.202 36.264C142.913 36.264 142.67 36.166 142.474 35.97C142.278 35.774 142.18 35.5313 142.18 35.242C142.18 34.9527 142.278 34.71 142.474 34.514C142.67 34.318 142.913 34.22 143.202 34.22C143.482 34.22 143.72 34.318 143.916 34.514C144.112 34.71 144.21 34.9527 144.21 35.242C144.21 35.5313 144.112 35.774 143.916 35.97C143.72 36.166 143.482 36.264 143.202 36.264ZM143.986 37.286V45H142.39V37.286H143.986ZM149.427 45.126C148.699 45.126 148.041 44.9627 147.453 44.636C146.865 44.3 146.403 43.8333 146.067 43.236C145.731 42.6293 145.563 41.9293 145.563 41.136C145.563 40.352 145.736 39.6567 146.081 39.05C146.427 38.4433 146.898 37.9767 147.495 37.65C148.093 37.3233 148.76 37.16 149.497 37.16C150.235 37.16 150.902 37.3233 151.499 37.65C152.097 37.9767 152.568 38.4433 152.913 39.05C153.259 39.6567 153.431 40.352 153.431 41.136C153.431 41.92 153.254 42.6153 152.899 43.222C152.545 43.8287 152.059 44.3 151.443 44.636C150.837 44.9627 150.165 45.126 149.427 45.126ZM149.427 43.74C149.838 43.74 150.221 43.642 150.575 43.446C150.939 43.25 151.233 42.956 151.457 42.564C151.681 42.172 151.793 41.696 151.793 41.136C151.793 40.576 151.686 40.1047 151.471 39.722C151.257 39.33 150.972 39.036 150.617 38.84C150.263 38.644 149.88 38.546 149.469 38.546C149.059 38.546 148.676 38.644 148.321 38.84C147.976 39.036 147.701 39.33 147.495 39.722C147.29 40.1047 147.187 40.576 147.187 41.136C147.187 41.9667 147.397 42.6107 147.817 43.068C148.247 43.516 148.783 43.74 149.427 43.74ZM154.477 41.108C154.477 40.3333 154.636 39.6473 154.953 39.05C155.28 38.4527 155.718 37.9907 156.269 37.664C156.829 37.328 157.45 37.16 158.131 37.16C158.635 37.16 159.13 37.272 159.615 37.496C160.11 37.7107 160.502 38 160.791 38.364V34.64H162.401V45H160.791V43.838C160.53 44.2113 160.166 44.5193 159.699 44.762C159.242 45.0047 158.714 45.126 158.117 45.126C157.445 45.126 156.829 44.958 156.269 44.622C155.718 44.2767 155.28 43.8007 154.953 43.194C154.636 42.578 154.477 41.8827 154.477 41.108ZM160.791 41.136C160.791 40.604 160.679 40.142 160.455 39.75C160.24 39.358 159.956 39.0593 159.601 38.854C159.246 38.6487 158.864 38.546 158.453 38.546C158.042 38.546 157.66 38.6487 157.305 38.854C156.95 39.05 156.661 39.344 156.437 39.736C156.222 40.1187 156.115 40.576 156.115 41.108C156.115 41.64 156.222 42.1067 156.437 42.508C156.661 42.9093 156.95 43.2173 157.305 43.432C157.669 43.6373 158.052 43.74 158.453 43.74C158.864 43.74 159.246 43.6373 159.601 43.432C159.956 43.2267 160.24 42.928 160.455 42.536C160.679 42.1347 160.791 41.668 160.791 41.136ZM171.567 40.954C171.567 41.2433 171.549 41.5047 171.511 41.738H165.617C165.664 42.354 165.893 42.8487 166.303 43.222C166.714 43.5953 167.218 43.782 167.815 43.782C168.674 43.782 169.281 43.4227 169.635 42.704H171.357C171.124 43.4133 170.699 43.9967 170.083 44.454C169.477 44.902 168.721 45.126 167.815 45.126C167.078 45.126 166.415 44.9627 165.827 44.636C165.249 44.3 164.791 43.8333 164.455 43.236C164.129 42.6293 163.965 41.9293 163.965 41.136C163.965 40.3427 164.124 39.6473 164.441 39.05C164.768 38.4433 165.221 37.9767 165.799 37.65C166.387 37.3233 167.059 37.16 167.815 37.16C168.543 37.16 169.192 37.3187 169.761 37.636C170.331 37.9533 170.774 38.4013 171.091 38.98C171.409 39.5493 171.567 40.2073 171.567 40.954ZM169.901 40.45C169.892 39.862 169.682 39.3907 169.271 39.036C168.861 38.6813 168.352 38.504 167.745 38.504C167.195 38.504 166.723 38.6813 166.331 39.036C165.939 39.3813 165.706 39.8527 165.631 40.45H169.901Z" fill="#444444"/>
<circle cx="41.5" cy="85.5" r="7.5" fill="#18BC14"/>
<circle cx="23" cy="228" r="5" fill="#18BC14"/>
<path d="M39.532 115.04V113.878H42.164V124H40.876V115.04H39.532ZM44.3244 116.426C44.3897 115.567 44.721 114.895 45.3184 114.41C45.9157 113.925 46.6904 113.682 47.6424 113.682C48.277 113.682 48.823 113.799 49.2804 114.032C49.747 114.256 50.097 114.564 50.3304 114.956C50.573 115.348 50.6944 115.791 50.6944 116.286C50.6944 116.865 50.5264 117.364 50.1904 117.784C49.8637 118.204 49.4344 118.475 48.9024 118.596V118.666C49.509 118.815 49.9897 119.109 50.3444 119.548C50.699 119.987 50.8764 120.561 50.8764 121.27C50.8764 121.802 50.755 122.283 50.5124 122.712C50.2697 123.132 49.9057 123.463 49.4204 123.706C48.935 123.949 48.3517 124.07 47.6704 124.07C46.681 124.07 45.869 123.813 45.2344 123.3C44.5997 122.777 44.245 122.04 44.1704 121.088H45.4024C45.4677 121.648 45.6964 122.105 46.0884 122.46C46.4804 122.815 47.003 122.992 47.6564 122.992C48.3097 122.992 48.8044 122.824 49.1404 122.488C49.4857 122.143 49.6584 121.699 49.6584 121.158C49.6584 120.458 49.425 119.954 48.9584 119.646C48.4917 119.338 47.787 119.184 46.8444 119.184H46.5224V118.12H46.8584C47.717 118.111 48.3657 117.971 48.8044 117.7C49.243 117.42 49.4624 116.991 49.4624 116.412C49.4624 115.917 49.299 115.521 48.9724 115.222C48.655 114.923 48.1977 114.774 47.6004 114.774C47.0217 114.774 46.555 114.923 46.2004 115.222C45.8457 115.521 45.6357 115.922 45.5704 116.426H44.3244Z" fill="#444444"/>
<path d="M39.714 156.978C40.8993 156.026 41.828 155.247 42.5 154.64C43.172 154.024 43.7367 153.385 44.194 152.722C44.6607 152.05 44.894 151.392 44.894 150.748C44.894 150.141 44.7447 149.665 44.446 149.32C44.1567 148.965 43.6853 148.788 43.032 148.788C42.3973 148.788 41.9027 148.989 41.548 149.39C41.2027 149.782 41.016 150.309 40.988 150.972H39.756C39.7933 149.927 40.1107 149.119 40.708 148.55C41.3053 147.981 42.0753 147.696 43.018 147.696C43.9793 147.696 44.74 147.962 45.3 148.494C45.8693 149.026 46.154 149.759 46.154 150.692C46.154 151.467 45.9207 152.223 45.454 152.96C44.9967 153.688 44.474 154.332 43.886 154.892C43.298 155.443 42.5467 156.087 41.632 156.824H46.448V157.888H39.714V156.978ZM47.5847 149.04V147.878H50.2167V158H48.9287V149.04H47.5847Z" fill="#444444"/>
<path d="M39.714 190.978C40.8993 190.026 41.828 189.247 42.5 188.64C43.172 188.024 43.7367 187.385 44.194 186.722C44.6607 186.05 44.894 185.392 44.894 184.748C44.894 184.141 44.7447 183.665 44.446 183.32C44.1567 182.965 43.6853 182.788 43.032 182.788C42.3973 182.788 41.9027 182.989 41.548 183.39C41.2027 183.782 41.016 184.309 40.988 184.972H39.756C39.7933 183.927 40.1107 183.119 40.708 182.55C41.3053 181.981 42.0753 181.696 43.018 181.696C43.9793 181.696 44.74 181.962 45.3 182.494C45.8693 183.026 46.154 183.759 46.154 184.692C46.154 185.467 45.9207 186.223 45.454 186.96C44.9967 187.688 44.474 188.332 43.886 188.892C43.298 189.443 42.5467 190.087 41.632 190.824H46.448V191.888H39.714V190.978ZM49.5587 189.284C49.6521 189.816 49.8667 190.227 50.2027 190.516C50.5481 190.805 51.0101 190.95 51.5887 190.95C52.3634 190.95 52.9327 190.647 53.2967 190.04C53.6701 189.433 53.8474 188.411 53.8287 186.974C53.6327 187.394 53.3061 187.725 52.8487 187.968C52.3914 188.201 51.8827 188.318 51.3227 188.318C50.6974 188.318 50.1374 188.192 49.6427 187.94C49.1574 187.679 48.7747 187.301 48.4947 186.806C48.2147 186.311 48.0747 185.714 48.0747 185.014C48.0747 184.015 48.3641 183.213 48.9427 182.606C49.5214 181.99 50.3427 181.682 51.4067 181.682C52.7134 181.682 53.6281 182.107 54.1507 182.956C54.6827 183.805 54.9487 185.07 54.9487 186.75C54.9487 187.926 54.8414 188.897 54.6267 189.662C54.4214 190.427 54.0667 191.011 53.5627 191.412C53.0681 191.813 52.3867 192.014 51.5187 192.014C50.5667 192.014 49.8247 191.757 49.2927 191.244C48.7607 190.731 48.4574 190.077 48.3827 189.284H49.5587ZM51.5327 187.24C52.1581 187.24 52.6714 187.049 53.0727 186.666C53.4741 186.274 53.6747 185.747 53.6747 185.084C53.6747 184.384 53.4787 183.819 53.0867 183.39C52.6947 182.961 52.1441 182.746 51.4347 182.746C50.7814 182.746 50.2587 182.951 49.8667 183.362C49.4841 183.773 49.2927 184.314 49.2927 184.986C49.2927 185.667 49.4841 186.213 49.8667 186.624C50.2494 187.035 50.8047 187.24 51.5327 187.24Z" fill="#444444"/>
<path d="M72.714 88.978C73.8993 88.026 74.828 87.2467 75.5 86.64C76.172 86.024 76.7367 85.3847 77.194 84.722C77.6607 84.05 77.894 83.392 77.894 82.748C77.894 82.1413 77.7447 81.6653 77.446 81.32C77.1567 80.9653 76.6853 80.788 76.032 80.788C75.3973 80.788 74.9027 80.9887 74.548 81.39C74.2027 81.782 74.016 82.3093 73.988 82.972H72.756C72.7933 81.9267 73.1107 81.1193 73.708 80.55C74.3053 79.9807 75.0753 79.696 76.018 79.696C76.9793 79.696 77.74 79.962 78.3 80.494C78.8693 81.026 79.154 81.7587 79.154 82.692C79.154 83.4667 78.9207 84.2227 78.454 84.96C77.9967 85.688 77.474 86.332 76.886 86.892C76.298 87.4427 75.5467 88.0867 74.632 88.824H79.448V89.888H72.714V88.978Z" fill="#444444"/>
<path d="M72.532 115.04V113.878H75.164V124H73.876V115.04H72.532ZM77.0444 121.746V120.78L81.9584 113.976H83.4844V120.64H84.8844V121.746H83.4844V124H82.2244V121.746H77.0444ZM82.2804 115.306L78.5144 120.64H82.2804V115.306Z" fill="#444444"/>
<path d="M72.714 156.978C73.8993 156.026 74.828 155.247 75.5 154.64C76.172 154.024 76.7367 153.385 77.194 152.722C77.6607 152.05 77.894 151.392 77.894 150.748C77.894 150.141 77.7447 149.665 77.446 149.32C77.1567 148.965 76.6853 148.788 76.032 148.788C75.3973 148.788 74.9027 148.989 74.548 149.39C74.2027 149.782 74.016 150.309 73.988 150.972H72.756C72.7933 149.927 73.1107 149.119 73.708 148.55C74.3053 147.981 75.0753 147.696 76.018 147.696C76.9793 147.696 77.74 147.962 78.3 148.494C78.8693 149.026 79.154 149.759 79.154 150.692C79.154 151.467 78.9207 152.223 78.454 152.96C77.9967 153.688 77.474 154.332 76.886 154.892C76.298 155.443 75.5467 156.087 74.632 156.824H79.448V157.888H72.714V156.978ZM80.7667 156.978C81.9521 156.026 82.8807 155.247 83.5527 154.64C84.2247 154.024 84.7894 153.385 85.2467 152.722C85.7134 152.05 85.9467 151.392 85.9467 150.748C85.9467 150.141 85.7974 149.665 85.4987 149.32C85.2094 148.965 84.7381 148.788 84.0847 148.788C83.4501 148.788 82.9554 148.989 82.6007 149.39C82.2554 149.782 82.0687 150.309 82.0407 150.972H80.8087C80.8461 149.927 81.1634 149.119 81.7607 148.55C82.3581 147.981 83.1281 147.696 84.0707 147.696C85.0321 147.696 85.7927 147.962 86.3527 148.494C86.9221 149.026 87.2067 149.759 87.2067 150.692C87.2067 151.467 86.9734 152.223 86.5067 152.96C86.0494 153.688 85.5267 154.332 84.9387 154.892C84.3507 155.443 83.5994 156.087 82.6847 156.824H87.5007V157.888H80.7667V156.978Z" fill="#444444"/>
<path d="M72.84 184.426C72.9053 183.567 73.2367 182.895 73.834 182.41C74.4313 181.925 75.206 181.682 76.158 181.682C76.7927 181.682 77.3387 181.799 77.796 182.032C78.2627 182.256 78.6127 182.564 78.846 182.956C79.0887 183.348 79.21 183.791 79.21 184.286C79.21 184.865 79.042 185.364 78.706 185.784C78.3793 186.204 77.95 186.475 77.418 186.596V186.666C78.0247 186.815 78.5053 187.109 78.86 187.548C79.2147 187.987 79.392 188.561 79.392 189.27C79.392 189.802 79.2707 190.283 79.028 190.712C78.7853 191.132 78.4213 191.463 77.936 191.706C77.4507 191.949 76.8673 192.07 76.186 192.07C75.1967 192.07 74.3847 191.813 73.75 191.3C73.1153 190.777 72.7607 190.04 72.686 189.088H73.918C73.9833 189.648 74.212 190.105 74.604 190.46C74.996 190.815 75.5187 190.992 76.172 190.992C76.8253 190.992 77.32 190.824 77.656 190.488C78.0013 190.143 78.174 189.699 78.174 189.158C78.174 188.458 77.9407 187.954 77.474 187.646C77.0073 187.338 76.3027 187.184 75.36 187.184H75.038V186.12H75.374C76.2327 186.111 76.8813 185.971 77.32 185.7C77.7587 185.42 77.978 184.991 77.978 184.412C77.978 183.917 77.8147 183.521 77.488 183.222C77.1707 182.923 76.7133 182.774 76.116 182.774C75.5373 182.774 75.0707 182.923 74.716 183.222C74.3613 183.521 74.1513 183.922 74.086 184.426H72.84ZM81.1121 186.834C81.1121 185.229 81.3735 183.978 81.8961 183.082C82.4188 182.177 83.3335 181.724 84.6401 181.724C85.9375 181.724 86.8475 182.177 87.3701 183.082C87.8928 183.978 88.1541 185.229 88.1541 186.834C88.1541 188.467 87.8928 189.737 87.3701 190.642C86.8475 191.547 85.9375 192 84.6401 192C83.3335 192 82.4188 191.547 81.8961 190.642C81.3735 189.737 81.1121 188.467 81.1121 186.834ZM86.8941 186.834C86.8941 186.022 86.8381 185.336 86.7261 184.776C86.6235 184.207 86.4041 183.749 86.0681 183.404C85.7415 183.059 85.2655 182.886 84.6401 182.886C84.0055 182.886 83.5201 183.059 83.1841 183.404C82.8575 183.749 82.6381 184.207 82.5261 184.776C82.4235 185.336 82.3721 186.022 82.3721 186.834C82.3721 187.674 82.4235 188.379 82.5261 188.948C82.6381 189.517 82.8575 189.975 83.1841 190.32C83.5201 190.665 84.0055 190.838 84.6401 190.838C85.2655 190.838 85.7415 190.665 86.0681 190.32C86.4041 189.975 86.6235 189.517 86.7261 188.948C86.8381 188.379 86.8941 187.674 86.8941 186.834Z" fill="#444444"/>
<path d="M101.84 82.426C101.905 81.5673 102.237 80.8953 102.834 80.41C103.431 79.9247 104.206 79.682 105.158 79.682C105.793 79.682 106.339 79.7987 106.796 80.032C107.263 80.256 107.613 80.564 107.846 80.956C108.089 81.348 108.21 81.7913 108.21 82.286C108.21 82.8647 108.042 83.364 107.706 83.784C107.379 84.204 106.95 84.4747 106.418 84.596V84.666C107.025 84.8153 107.505 85.1093 107.86 85.548C108.215 85.9867 108.392 86.5607 108.392 87.27C108.392 87.802 108.271 88.2827 108.028 88.712C107.785 89.132 107.421 89.4633 106.936 89.706C106.451 89.9487 105.867 90.07 105.186 90.07C104.197 90.07 103.385 89.8133 102.75 89.3C102.115 88.7773 101.761 88.04 101.686 87.088H102.918C102.983 87.648 103.212 88.1053 103.604 88.46C103.996 88.8147 104.519 88.992 105.172 88.992C105.825 88.992 106.32 88.824 106.656 88.488C107.001 88.1427 107.174 87.6993 107.174 87.158C107.174 86.458 106.941 85.954 106.474 85.646C106.007 85.338 105.303 85.184 104.36 85.184H104.038V84.12H104.374C105.233 84.1107 105.881 83.9707 106.32 83.7C106.759 83.42 106.978 82.9907 106.978 82.412C106.978 81.9173 106.815 81.5207 106.488 81.222C106.171 80.9233 105.713 80.774 105.116 80.774C104.537 80.774 104.071 80.9233 103.716 81.222C103.361 81.5207 103.151 81.922 103.086 82.426H101.84Z" fill="#444444"/>
<path d="M101.532 115.04V113.878H104.164V124H102.876V115.04H101.532ZM112.806 114.984H107.892V118.176C108.107 117.877 108.424 117.635 108.844 117.448C109.264 117.252 109.717 117.154 110.202 117.154C110.977 117.154 111.607 117.317 112.092 117.644C112.578 117.961 112.923 118.377 113.128 118.89C113.343 119.394 113.45 119.931 113.45 120.5C113.45 121.172 113.324 121.774 113.072 122.306C112.82 122.838 112.433 123.258 111.91 123.566C111.397 123.874 110.758 124.028 109.992 124.028C109.012 124.028 108.219 123.776 107.612 123.272C107.006 122.768 106.637 122.096 106.506 121.256H107.752C107.874 121.788 108.13 122.203 108.522 122.502C108.914 122.801 109.409 122.95 110.006 122.95C110.744 122.95 111.299 122.731 111.672 122.292C112.046 121.844 112.232 121.256 112.232 120.528C112.232 119.8 112.046 119.24 111.672 118.848C111.299 118.447 110.748 118.246 110.02 118.246C109.526 118.246 109.092 118.367 108.718 118.61C108.354 118.843 108.088 119.165 107.92 119.576H106.716V113.864H112.806V114.984Z" fill="#444444"/>
<path d="M101.714 156.978C102.899 156.026 103.828 155.247 104.5 154.64C105.172 154.024 105.737 153.385 106.194 152.722C106.661 152.05 106.894 151.392 106.894 150.748C106.894 150.141 106.745 149.665 106.446 149.32C106.157 148.965 105.685 148.788 105.032 148.788C104.397 148.788 103.903 148.989 103.548 149.39C103.203 149.782 103.016 150.309 102.988 150.972H101.756C101.793 149.927 102.111 149.119 102.708 148.55C103.305 147.981 104.075 147.696 105.018 147.696C105.979 147.696 106.74 147.962 107.3 148.494C107.869 149.026 108.154 149.759 108.154 150.692C108.154 151.467 107.921 152.223 107.454 152.96C106.997 153.688 106.474 154.332 105.886 154.892C105.298 155.443 104.547 156.087 103.632 156.824H108.448V157.888H101.714V156.978ZM109.893 150.426C109.958 149.567 110.289 148.895 110.887 148.41C111.484 147.925 112.259 147.682 113.211 147.682C113.845 147.682 114.391 147.799 114.849 148.032C115.315 148.256 115.665 148.564 115.899 148.956C116.141 149.348 116.263 149.791 116.263 150.286C116.263 150.865 116.095 151.364 115.759 151.784C115.432 152.204 115.003 152.475 114.471 152.596V152.666C115.077 152.815 115.558 153.109 115.913 153.548C116.267 153.987 116.445 154.561 116.445 155.27C116.445 155.802 116.323 156.283 116.081 156.712C115.838 157.132 115.474 157.463 114.989 157.706C114.503 157.949 113.92 158.07 113.239 158.07C112.249 158.07 111.437 157.813 110.803 157.3C110.168 156.777 109.813 156.04 109.739 155.088H110.971C111.036 155.648 111.265 156.105 111.657 156.46C112.049 156.815 112.571 156.992 113.225 156.992C113.878 156.992 114.373 156.824 114.709 156.488C115.054 156.143 115.227 155.699 115.227 155.158C115.227 154.458 114.993 153.954 114.527 153.646C114.06 153.338 113.355 153.184 112.413 153.184H112.091V152.12H112.427C113.285 152.111 113.934 151.971 114.373 151.7C114.811 151.42 115.031 150.991 115.031 150.412C115.031 149.917 114.867 149.521 114.541 149.222C114.223 148.923 113.766 148.774 113.169 148.774C112.59 148.774 112.123 148.923 111.769 149.222C111.414 149.521 111.204 149.922 111.139 150.426H109.893Z" fill="#444444"/>
<path d="M101.84 184.426C101.905 183.567 102.237 182.895 102.834 182.41C103.431 181.925 104.206 181.682 105.158 181.682C105.793 181.682 106.339 181.799 106.796 182.032C107.263 182.256 107.613 182.564 107.846 182.956C108.089 183.348 108.21 183.791 108.21 184.286C108.21 184.865 108.042 185.364 107.706 185.784C107.379 186.204 106.95 186.475 106.418 186.596V186.666C107.025 186.815 107.505 187.109 107.86 187.548C108.215 187.987 108.392 188.561 108.392 189.27C108.392 189.802 108.271 190.283 108.028 190.712C107.785 191.132 107.421 191.463 106.936 191.706C106.451 191.949 105.867 192.07 105.186 192.07C104.197 192.07 103.385 191.813 102.75 191.3C102.115 190.777 101.761 190.04 101.686 189.088H102.918C102.983 189.648 103.212 190.105 103.604 190.46C103.996 190.815 104.519 190.992 105.172 190.992C105.825 190.992 106.32 190.824 106.656 190.488C107.001 190.143 107.174 189.699 107.174 189.158C107.174 188.458 106.941 187.954 106.474 187.646C106.007 187.338 105.303 187.184 104.36 187.184H104.038V186.12H104.374C105.233 186.111 105.881 185.971 106.32 185.7C106.759 185.42 106.978 184.991 106.978 184.412C106.978 183.917 106.815 183.521 106.488 183.222C106.171 182.923 105.713 182.774 105.116 182.774C104.537 182.774 104.071 182.923 103.716 183.222C103.361 183.521 103.151 183.922 103.086 184.426H101.84ZM109.776 183.04V181.878H112.408V192H111.12V183.04H109.776Z" fill="#444444"/>
<path d="M130.56 87.746V86.78L135.474 79.976H137V86.64H138.4V87.746H137V90H135.74V87.746H130.56ZM135.796 81.306L132.03 86.64H135.796V81.306Z" fill="#444444"/>
<path d="M130.532 115.04V113.878H133.164V124H131.876V115.04H130.532ZM140.994 116.286C140.789 115.25 140.15 114.732 139.076 114.732C138.246 114.732 137.625 115.054 137.214 115.698C136.804 116.333 136.603 117.383 136.612 118.848C136.827 118.363 137.182 117.985 137.676 117.714C138.18 117.434 138.74 117.294 139.356 117.294C140.318 117.294 141.083 117.593 141.652 118.19C142.231 118.787 142.52 119.613 142.52 120.668C142.52 121.303 142.394 121.872 142.142 122.376C141.9 122.88 141.526 123.281 141.022 123.58C140.528 123.879 139.926 124.028 139.216 124.028C138.255 124.028 137.504 123.813 136.962 123.384C136.421 122.955 136.043 122.362 135.828 121.606C135.614 120.85 135.506 119.917 135.506 118.806C135.506 115.381 136.701 113.668 139.09 113.668C140.005 113.668 140.724 113.915 141.246 114.41C141.769 114.905 142.077 115.53 142.17 116.286H140.994ZM139.09 118.372C138.689 118.372 138.311 118.456 137.956 118.624C137.602 118.783 137.312 119.03 137.088 119.366C136.874 119.693 136.766 120.094 136.766 120.57C136.766 121.279 136.972 121.858 137.382 122.306C137.793 122.745 138.381 122.964 139.146 122.964C139.8 122.964 140.318 122.763 140.7 122.362C141.092 121.951 141.288 121.401 141.288 120.71C141.288 119.982 141.102 119.413 140.728 119.002C140.355 118.582 139.809 118.372 139.09 118.372Z" fill="#444444"/>
<path d="M130.714 156.978C131.899 156.026 132.828 155.247 133.5 154.64C134.172 154.024 134.737 153.385 135.194 152.722C135.661 152.05 135.894 151.392 135.894 150.748C135.894 150.141 135.745 149.665 135.446 149.32C135.157 148.965 134.685 148.788 134.032 148.788C133.397 148.788 132.903 148.989 132.548 149.39C132.203 149.782 132.016 150.309 131.988 150.972H130.756C130.793 149.927 131.111 149.119 131.708 148.55C132.305 147.981 133.075 147.696 134.018 147.696C134.979 147.696 135.74 147.962 136.3 148.494C136.869 149.026 137.154 149.759 137.154 150.692C137.154 151.467 136.921 152.223 136.454 152.96C135.997 153.688 135.474 154.332 134.886 154.892C134.298 155.443 133.547 156.087 132.632 156.824H137.448V157.888H130.714V156.978ZM138.613 155.746V154.78L143.527 147.976H145.053V154.64H146.453V155.746H145.053V158H143.793V155.746H138.613ZM143.849 149.306L140.083 154.64H143.849V149.306Z" fill="#444444"/>
<path d="M130.84 184.426C130.905 183.567 131.237 182.895 131.834 182.41C132.431 181.925 133.206 181.682 134.158 181.682C134.793 181.682 135.339 181.799 135.796 182.032C136.263 182.256 136.613 182.564 136.846 182.956C137.089 183.348 137.21 183.791 137.21 184.286C137.21 184.865 137.042 185.364 136.706 185.784C136.379 186.204 135.95 186.475 135.418 186.596V186.666C136.025 186.815 136.505 187.109 136.86 187.548C137.215 187.987 137.392 188.561 137.392 189.27C137.392 189.802 137.271 190.283 137.028 190.712C136.785 191.132 136.421 191.463 135.936 191.706C135.451 191.949 134.867 192.07 134.186 192.07C133.197 192.07 132.385 191.813 131.75 191.3C131.115 190.777 130.761 190.04 130.686 189.088H131.918C131.983 189.648 132.212 190.105 132.604 190.46C132.996 190.815 133.519 190.992 134.172 190.992C134.825 190.992 135.32 190.824 135.656 190.488C136.001 190.143 136.174 189.699 136.174 189.158C136.174 188.458 135.941 187.954 135.474 187.646C135.007 187.338 134.303 187.184 133.36 187.184H133.038V186.12H133.374C134.233 186.111 134.881 185.971 135.32 185.7C135.759 185.42 135.978 184.991 135.978 184.412C135.978 183.917 135.815 183.521 135.488 183.222C135.171 182.923 134.713 182.774 134.116 182.774C133.537 182.774 133.071 182.923 132.716 183.222C132.361 183.521 132.151 183.922 132.086 184.426H130.84ZM138.958 190.978C140.143 190.026 141.072 189.247 141.744 188.64C142.416 188.024 142.981 187.385 143.438 186.722C143.905 186.05 144.138 185.392 144.138 184.748C144.138 184.141 143.989 183.665 143.69 183.32C143.401 182.965 142.929 182.788 142.276 182.788C141.641 182.788 141.147 182.989 140.792 183.39C140.447 183.782 140.26 184.309 140.232 184.972H139C139.037 183.927 139.355 183.119 139.952 182.55C140.549 181.981 141.319 181.696 142.262 181.696C143.223 181.696 143.984 181.962 144.544 182.494C145.113 183.026 145.398 183.759 145.398 184.692C145.398 185.467 145.165 186.223 144.698 186.96C144.241 187.688 143.718 188.332 143.13 188.892C142.542 189.443 141.791 190.087 140.876 190.824H145.692V191.888H138.958V190.978Z" fill="#444444"/>
<path d="M168.322 80.984H163.408V84.176C163.623 83.8773 163.94 83.6347 164.36 83.448C164.78 83.252 165.233 83.154 165.718 83.154C166.493 83.154 167.123 83.3173 167.608 83.644C168.093 83.9613 168.439 84.3767 168.644 84.89C168.859 85.394 168.966 85.9307 168.966 86.5C168.966 87.172 168.84 87.774 168.588 88.306C168.336 88.838 167.949 89.258 167.426 89.566C166.913 89.874 166.273 90.028 165.508 90.028C164.528 90.028 163.735 89.776 163.128 89.272C162.521 88.768 162.153 88.096 162.022 87.256H163.268C163.389 87.788 163.646 88.2033 164.038 88.502C164.43 88.8007 164.925 88.95 165.522 88.95C166.259 88.95 166.815 88.7307 167.188 88.292C167.561 87.844 167.748 87.256 167.748 86.528C167.748 85.8 167.561 85.24 167.188 84.848C166.815 84.4467 166.264 84.246 165.536 84.246C165.041 84.246 164.607 84.3673 164.234 84.61C163.87 84.8433 163.604 85.1653 163.436 85.576H162.232V79.864H168.322V80.984Z" fill="#444444"/>
<path d="M161.532 115.04V113.878H164.164V124H162.876V115.04H161.532ZM172.582 114.872L168.69 124H167.402L171.35 114.998H165.946V113.906H172.582V114.872Z" fill="#444444"/>
<path d="M161.714 156.978C162.899 156.026 163.828 155.247 164.5 154.64C165.172 154.024 165.737 153.385 166.194 152.722C166.661 152.05 166.894 151.392 166.894 150.748C166.894 150.141 166.745 149.665 166.446 149.32C166.157 148.965 165.685 148.788 165.032 148.788C164.397 148.788 163.903 148.989 163.548 149.39C163.203 149.782 163.016 150.309 162.988 150.972H161.756C161.793 149.927 162.111 149.119 162.708 148.55C163.305 147.981 164.075 147.696 165.018 147.696C165.979 147.696 166.74 147.962 167.3 148.494C167.869 149.026 168.154 149.759 168.154 150.692C168.154 151.467 167.921 152.223 167.454 152.96C166.997 153.688 166.474 154.332 165.886 154.892C165.298 155.443 164.547 156.087 163.632 156.824H168.448V157.888H161.714V156.978ZM176.375 148.984H171.461V152.176C171.675 151.877 171.993 151.635 172.413 151.448C172.833 151.252 173.285 151.154 173.771 151.154C174.545 151.154 175.175 151.317 175.661 151.644C176.146 151.961 176.491 152.377 176.697 152.89C176.911 153.394 177.019 153.931 177.019 154.5C177.019 155.172 176.893 155.774 176.641 156.306C176.389 156.838 176.001 157.258 175.479 157.566C174.965 157.874 174.326 158.028 173.561 158.028C172.581 158.028 171.787 157.776 171.181 157.272C170.574 156.768 170.205 156.096 170.075 155.256H171.321C171.442 155.788 171.699 156.203 172.091 156.502C172.483 156.801 172.977 156.95 173.575 156.95C174.312 156.95 174.867 156.731 175.241 156.292C175.614 155.844 175.801 155.256 175.801 154.528C175.801 153.8 175.614 153.24 175.241 152.848C174.867 152.447 174.317 152.246 173.589 152.246C173.094 152.246 172.66 152.367 172.287 152.61C171.923 152.843 171.657 153.165 171.489 153.576H170.285V147.864H176.375V148.984Z" fill="#444444"/>
<path d="M161.84 184.426C161.905 183.567 162.237 182.895 162.834 182.41C163.431 181.925 164.206 181.682 165.158 181.682C165.793 181.682 166.339 181.799 166.796 182.032C167.263 182.256 167.613 182.564 167.846 182.956C168.089 183.348 168.21 183.791 168.21 184.286C168.21 184.865 168.042 185.364 167.706 185.784C167.379 186.204 166.95 186.475 166.418 186.596V186.666C167.025 186.815 167.505 187.109 167.86 187.548C168.215 187.987 168.392 188.561 168.392 189.27C168.392 189.802 168.271 190.283 168.028 190.712C167.785 191.132 167.421 191.463 166.936 191.706C166.451 191.949 165.867 192.07 165.186 192.07C164.197 192.07 163.385 191.813 162.75 191.3C162.115 190.777 161.761 190.04 161.686 189.088H162.918C162.983 189.648 163.212 190.105 163.604 190.46C163.996 190.815 164.519 190.992 165.172 190.992C165.825 190.992 166.32 190.824 166.656 190.488C167.001 190.143 167.174 189.699 167.174 189.158C167.174 188.458 166.941 187.954 166.474 187.646C166.007 187.338 165.303 187.184 164.36 187.184H164.038V186.12H164.374C165.233 186.111 165.881 185.971 166.32 185.7C166.759 185.42 166.978 184.991 166.978 184.412C166.978 183.917 166.815 183.521 166.488 183.222C166.171 182.923 165.713 182.774 165.116 182.774C164.537 182.774 164.071 182.923 163.716 183.222C163.361 183.521 163.151 183.922 163.086 184.426H161.84ZM170.084 184.426C170.149 183.567 170.481 182.895 171.078 182.41C171.675 181.925 172.45 181.682 173.402 181.682C174.037 181.682 174.583 181.799 175.04 182.032C175.507 182.256 175.857 182.564 176.09 182.956C176.333 183.348 176.454 183.791 176.454 184.286C176.454 184.865 176.286 185.364 175.95 185.784C175.623 186.204 175.194 186.475 174.662 186.596V186.666C175.269 186.815 175.749 187.109 176.104 187.548C176.459 187.987 176.636 188.561 176.636 189.27C176.636 189.802 176.515 190.283 176.272 190.712C176.029 191.132 175.665 191.463 175.18 191.706C174.695 191.949 174.111 192.07 173.43 192.07C172.441 192.07 171.629 191.813 170.994 191.3C170.359 190.777 170.005 190.04 169.93 189.088H171.162C171.227 189.648 171.456 190.105 171.848 190.46C172.24 190.815 172.763 190.992 173.416 190.992C174.069 190.992 174.564 190.824 174.9 190.488C175.245 190.143 175.418 189.699 175.418 189.158C175.418 188.458 175.185 187.954 174.718 187.646C174.251 187.338 173.547 187.184 172.604 187.184H172.282V186.12H172.618C173.477 186.111 174.125 185.971 174.564 185.7C175.003 185.42 175.222 184.991 175.222 184.412C175.222 183.917 175.059 183.521 174.732 183.222C174.415 182.923 173.957 182.774 173.36 182.774C172.781 182.774 172.315 182.923 171.96 183.222C171.605 183.521 171.395 183.922 171.33 184.426H170.084Z" fill="#444444"/>
<path d="M194.51 82.286C194.305 81.25 193.665 80.732 192.592 80.732C191.761 80.732 191.141 81.054 190.73 81.698C190.319 82.3327 190.119 83.3827 190.128 84.848C190.343 84.3627 190.697 83.9847 191.192 83.714C191.696 83.434 192.256 83.294 192.872 83.294C193.833 83.294 194.599 83.5927 195.168 84.19C195.747 84.7873 196.036 85.6133 196.036 86.668C196.036 87.3027 195.91 87.872 195.658 88.376C195.415 88.88 195.042 89.2813 194.538 89.58C194.043 89.8787 193.441 90.028 192.732 90.028C191.771 90.028 191.019 89.8133 190.478 89.384C189.937 88.9547 189.559 88.362 189.344 87.606C189.129 86.85 189.022 85.9167 189.022 84.806C189.022 81.3807 190.217 79.668 192.606 79.668C193.521 79.668 194.239 79.9153 194.762 80.41C195.285 80.9047 195.593 81.53 195.686 82.286H194.51ZM192.606 84.372C192.205 84.372 191.827 84.456 191.472 84.624C191.117 84.7827 190.828 85.03 190.604 85.366C190.389 85.6927 190.282 86.094 190.282 86.57C190.282 87.2793 190.487 87.858 190.898 88.306C191.309 88.7447 191.897 88.964 192.662 88.964C193.315 88.964 193.833 88.7633 194.216 88.362C194.608 87.9513 194.804 87.4007 194.804 86.71C194.804 85.982 194.617 85.4127 194.244 85.002C193.871 84.582 193.325 84.372 192.606 84.372Z" fill="#444444"/>
<path d="M188.532 115.04V113.878H191.164V124H189.876V115.04H188.532ZM195.2 118.736C194.678 118.531 194.276 118.232 193.996 117.84C193.716 117.448 193.576 116.972 193.576 116.412C193.576 115.908 193.702 115.455 193.954 115.054C194.206 114.643 194.58 114.321 195.074 114.088C195.578 113.845 196.185 113.724 196.894 113.724C197.604 113.724 198.206 113.845 198.7 114.088C199.204 114.321 199.582 114.643 199.834 115.054C200.096 115.455 200.226 115.908 200.226 116.412C200.226 116.953 200.082 117.429 199.792 117.84C199.503 118.241 199.106 118.54 198.602 118.736C199.181 118.913 199.638 119.226 199.974 119.674C200.32 120.113 200.492 120.645 200.492 121.27C200.492 121.877 200.343 122.409 200.044 122.866C199.746 123.314 199.321 123.664 198.77 123.916C198.229 124.159 197.604 124.28 196.894 124.28C196.185 124.28 195.56 124.159 195.018 123.916C194.486 123.664 194.071 123.314 193.772 122.866C193.474 122.409 193.324 121.877 193.324 121.27C193.324 120.645 193.492 120.108 193.828 119.66C194.164 119.212 194.622 118.904 195.2 118.736ZM198.994 116.566C198.994 115.997 198.808 115.558 198.434 115.25C198.061 114.942 197.548 114.788 196.894 114.788C196.25 114.788 195.742 114.942 195.368 115.25C194.995 115.558 194.808 116.001 194.808 116.58C194.808 117.103 195 117.523 195.382 117.84C195.774 118.157 196.278 118.316 196.894 118.316C197.52 118.316 198.024 118.157 198.406 117.84C198.798 117.513 198.994 117.089 198.994 116.566ZM196.894 119.296C196.204 119.296 195.639 119.459 195.2 119.786C194.762 120.103 194.542 120.584 194.542 121.228C194.542 121.825 194.752 122.306 195.172 122.67C195.602 123.034 196.176 123.216 196.894 123.216C197.613 123.216 198.182 123.034 198.602 122.67C199.022 122.306 199.232 121.825 199.232 121.228C199.232 120.603 199.018 120.127 198.588 119.8C198.159 119.464 197.594 119.296 196.894 119.296Z" fill="#444444"/>
<path d="M188.714 156.978C189.899 156.026 190.828 155.247 191.5 154.64C192.172 154.024 192.737 153.385 193.194 152.722C193.661 152.05 193.894 151.392 193.894 150.748C193.894 150.141 193.745 149.665 193.446 149.32C193.157 148.965 192.685 148.788 192.032 148.788C191.397 148.788 190.903 148.989 190.548 149.39C190.203 149.782 190.016 150.309 189.988 150.972H188.756C188.793 149.927 189.111 149.119 189.708 148.55C190.305 147.981 191.075 147.696 192.018 147.696C192.979 147.696 193.74 147.962 194.3 148.494C194.869 149.026 195.154 149.759 195.154 150.692C195.154 151.467 194.921 152.223 194.454 152.96C193.997 153.688 193.474 154.332 192.886 154.892C192.298 155.443 191.547 156.087 190.632 156.824H195.448V157.888H188.714V156.978ZM202.563 150.286C202.357 149.25 201.718 148.732 200.645 148.732C199.814 148.732 199.193 149.054 198.783 149.698C198.372 150.333 198.171 151.383 198.181 152.848C198.395 152.363 198.75 151.985 199.245 151.714C199.749 151.434 200.309 151.294 200.925 151.294C201.886 151.294 202.651 151.593 203.221 152.19C203.799 152.787 204.089 153.613 204.089 154.668C204.089 155.303 203.963 155.872 203.711 156.376C203.468 156.88 203.095 157.281 202.591 157.58C202.096 157.879 201.494 158.028 200.785 158.028C199.823 158.028 199.072 157.813 198.531 157.384C197.989 156.955 197.611 156.362 197.397 155.606C197.182 154.85 197.075 153.917 197.075 152.806C197.075 149.381 198.269 147.668 200.659 147.668C201.573 147.668 202.292 147.915 202.815 148.41C203.337 148.905 203.645 149.53 203.739 150.286H202.563ZM200.659 152.372C200.257 152.372 199.879 152.456 199.525 152.624C199.17 152.783 198.881 153.03 198.657 153.366C198.442 153.693 198.335 154.094 198.335 154.57C198.335 155.279 198.54 155.858 198.951 156.306C199.361 156.745 199.949 156.964 200.715 156.964C201.368 156.964 201.886 156.763 202.269 156.362C202.661 155.951 202.857 155.401 202.857 154.71C202.857 153.982 202.67 153.413 202.297 153.002C201.923 152.582 201.377 152.372 200.659 152.372Z" fill="#444444"/>
<path d="M188.84 184.426C188.905 183.567 189.237 182.895 189.834 182.41C190.431 181.925 191.206 181.682 192.158 181.682C192.793 181.682 193.339 181.799 193.796 182.032C194.263 182.256 194.613 182.564 194.846 182.956C195.089 183.348 195.21 183.791 195.21 184.286C195.21 184.865 195.042 185.364 194.706 185.784C194.379 186.204 193.95 186.475 193.418 186.596V186.666C194.025 186.815 194.505 187.109 194.86 187.548C195.215 187.987 195.392 188.561 195.392 189.27C195.392 189.802 195.271 190.283 195.028 190.712C194.785 191.132 194.421 191.463 193.936 191.706C193.451 191.949 192.867 192.07 192.186 192.07C191.197 192.07 190.385 191.813 189.75 191.3C189.115 190.777 188.761 190.04 188.686 189.088H189.918C189.983 189.648 190.212 190.105 190.604 190.46C190.996 190.815 191.519 190.992 192.172 190.992C192.825 190.992 193.32 190.824 193.656 190.488C194.001 190.143 194.174 189.699 194.174 189.158C194.174 188.458 193.941 187.954 193.474 187.646C193.007 187.338 192.303 187.184 191.36 187.184H191.038V186.12H191.374C192.233 186.111 192.881 185.971 193.32 185.7C193.759 185.42 193.978 184.991 193.978 184.412C193.978 183.917 193.815 183.521 193.488 183.222C193.171 182.923 192.713 182.774 192.116 182.774C191.537 182.774 191.071 182.923 190.716 183.222C190.361 183.521 190.151 183.922 190.086 184.426H188.84ZM196.804 189.746V188.78L201.718 181.976H203.244V188.64H204.644V189.746H203.244V192H201.984V189.746H196.804ZM202.04 183.306L198.274 188.64H202.04V183.306Z" fill="#444444"/>
<path d="M227.098 80.872L223.206 90H221.918L225.866 80.998H220.462V79.906H227.098V80.872Z" fill="#444444"/>
<path d="M220.532 115.04V113.878H223.164V124H221.876V115.04H220.532ZM226.99 121.284C227.084 121.816 227.298 122.227 227.634 122.516C227.98 122.805 228.442 122.95 229.02 122.95C229.795 122.95 230.364 122.647 230.728 122.04C231.102 121.433 231.279 120.411 231.26 118.974C231.064 119.394 230.738 119.725 230.28 119.968C229.823 120.201 229.314 120.318 228.754 120.318C228.129 120.318 227.569 120.192 227.074 119.94C226.589 119.679 226.206 119.301 225.926 118.806C225.646 118.311 225.506 117.714 225.506 117.014C225.506 116.015 225.796 115.213 226.374 114.606C226.953 113.99 227.774 113.682 228.838 113.682C230.145 113.682 231.06 114.107 231.582 114.956C232.114 115.805 232.38 117.07 232.38 118.75C232.38 119.926 232.273 120.897 232.058 121.662C231.853 122.427 231.498 123.011 230.994 123.412C230.5 123.813 229.818 124.014 228.95 124.014C227.998 124.014 227.256 123.757 226.724 123.244C226.192 122.731 225.889 122.077 225.814 121.284H226.99ZM228.964 119.24C229.59 119.24 230.103 119.049 230.504 118.666C230.906 118.274 231.106 117.747 231.106 117.084C231.106 116.384 230.91 115.819 230.518 115.39C230.126 114.961 229.576 114.746 228.866 114.746C228.213 114.746 227.69 114.951 227.298 115.362C226.916 115.773 226.724 116.314 226.724 116.986C226.724 117.667 226.916 118.213 227.298 118.624C227.681 119.035 228.236 119.24 228.964 119.24Z" fill="#444444"/>
<path d="M220.714 156.978C221.899 156.026 222.828 155.247 223.5 154.64C224.172 154.024 224.737 153.385 225.194 152.722C225.661 152.05 225.894 151.392 225.894 150.748C225.894 150.141 225.745 149.665 225.446 149.32C225.157 148.965 224.685 148.788 224.032 148.788C223.397 148.788 222.903 148.989 222.548 149.39C222.203 149.782 222.016 150.309 221.988 150.972H220.756C220.793 149.927 221.111 149.119 221.708 148.55C222.305 147.981 223.075 147.696 224.018 147.696C224.979 147.696 225.74 147.962 226.3 148.494C226.869 149.026 227.154 149.759 227.154 150.692C227.154 151.467 226.921 152.223 226.454 152.96C225.997 153.688 225.474 154.332 224.886 154.892C224.298 155.443 223.547 156.087 222.632 156.824H227.448V157.888H220.714V156.978ZM235.151 148.872L231.259 158H229.971L233.919 148.998H228.515V147.906H235.151V148.872Z" fill="#444444"/>
<path d="M220.84 184.426C220.905 183.567 221.237 182.895 221.834 182.41C222.431 181.925 223.206 181.682 224.158 181.682C224.793 181.682 225.339 181.799 225.796 182.032C226.263 182.256 226.613 182.564 226.846 182.956C227.089 183.348 227.21 183.791 227.21 184.286C227.21 184.865 227.042 185.364 226.706 185.784C226.379 186.204 225.95 186.475 225.418 186.596V186.666C226.025 186.815 226.505 187.109 226.86 187.548C227.215 187.987 227.392 188.561 227.392 189.27C227.392 189.802 227.271 190.283 227.028 190.712C226.785 191.132 226.421 191.463 225.936 191.706C225.451 191.949 224.867 192.07 224.186 192.07C223.197 192.07 222.385 191.813 221.75 191.3C221.115 190.777 220.761 190.04 220.686 189.088H221.918C221.983 189.648 222.212 190.105 222.604 190.46C222.996 190.815 223.519 190.992 224.172 190.992C224.825 190.992 225.32 190.824 225.656 190.488C226.001 190.143 226.174 189.699 226.174 189.158C226.174 188.458 225.941 187.954 225.474 187.646C225.007 187.338 224.303 187.184 223.36 187.184H223.038V186.12H223.374C224.233 186.111 224.881 185.971 225.32 185.7C225.759 185.42 225.978 184.991 225.978 184.412C225.978 183.917 225.815 183.521 225.488 183.222C225.171 182.923 224.713 182.774 224.116 182.774C223.537 182.774 223.071 182.923 222.716 183.222C222.361 183.521 222.151 183.922 222.086 184.426H220.84ZM235.566 182.984H230.652V186.176C230.867 185.877 231.184 185.635 231.604 185.448C232.024 185.252 232.477 185.154 232.962 185.154C233.737 185.154 234.367 185.317 234.852 185.644C235.337 185.961 235.683 186.377 235.888 186.89C236.103 187.394 236.21 187.931 236.21 188.5C236.21 189.172 236.084 189.774 235.832 190.306C235.58 190.838 235.193 191.258 234.67 191.566C234.157 191.874 233.517 192.028 232.752 192.028C231.772 192.028 230.979 191.776 230.372 191.272C229.765 190.768 229.397 190.096 229.266 189.256H230.512C230.633 189.788 230.89 190.203 231.282 190.502C231.674 190.801 232.169 190.95 232.766 190.95C233.503 190.95 234.059 190.731 234.432 190.292C234.805 189.844 234.992 189.256 234.992 188.528C234.992 187.8 234.805 187.24 234.432 186.848C234.059 186.447 233.508 186.246 232.78 186.246C232.285 186.246 231.851 186.367 231.478 186.61C231.114 186.843 230.848 187.165 230.68 187.576H229.476V181.864H235.566V182.984Z" fill="#444444"/>
<path d="M251.716 84.736C251.193 84.5307 250.792 84.232 250.512 83.84C250.232 83.448 250.092 82.972 250.092 82.412C250.092 81.908 250.218 81.4553 250.47 81.054C250.722 80.6433 251.095 80.3213 251.59 80.088C252.094 79.8453 252.701 79.724 253.41 79.724C254.119 79.724 254.721 79.8453 255.216 80.088C255.72 80.3213 256.098 80.6433 256.35 81.054C256.611 81.4553 256.742 81.908 256.742 82.412C256.742 82.9533 256.597 83.4293 256.308 83.84C256.019 84.2413 255.622 84.54 255.118 84.736C255.697 84.9133 256.154 85.226 256.49 85.674C256.835 86.1127 257.008 86.6447 257.008 87.27C257.008 87.8767 256.859 88.4087 256.56 88.866C256.261 89.314 255.837 89.664 255.286 89.916C254.745 90.1587 254.119 90.28 253.41 90.28C252.701 90.28 252.075 90.1587 251.534 89.916C251.002 89.664 250.587 89.314 250.288 88.866C249.989 88.4087 249.84 87.8767 249.84 87.27C249.84 86.6447 250.008 86.108 250.344 85.66C250.68 85.212 251.137 84.904 251.716 84.736ZM255.51 82.566C255.51 81.9967 255.323 81.558 254.95 81.25C254.577 80.942 254.063 80.788 253.41 80.788C252.766 80.788 252.257 80.942 251.884 81.25C251.511 81.558 251.324 82.0013 251.324 82.58C251.324 83.1027 251.515 83.5227 251.898 83.84C252.29 84.1573 252.794 84.316 253.41 84.316C254.035 84.316 254.539 84.1573 254.922 83.84C255.314 83.5133 255.51 83.0887 255.51 82.566ZM253.41 85.296C252.719 85.296 252.155 85.4593 251.716 85.786C251.277 86.1033 251.058 86.584 251.058 87.228C251.058 87.8253 251.268 88.306 251.688 88.67C252.117 89.034 252.691 89.216 253.41 89.216C254.129 89.216 254.698 89.034 255.118 88.67C255.538 88.306 255.748 87.8253 255.748 87.228C255.748 86.6027 255.533 86.1267 255.104 85.8C254.675 85.464 254.11 85.296 253.41 85.296Z" fill="#444444"/>
<path d="M249.714 122.978C250.899 122.026 251.828 121.247 252.5 120.64C253.172 120.024 253.737 119.385 254.194 118.722C254.661 118.05 254.894 117.392 254.894 116.748C254.894 116.141 254.745 115.665 254.446 115.32C254.157 114.965 253.685 114.788 253.032 114.788C252.397 114.788 251.903 114.989 251.548 115.39C251.203 115.782 251.016 116.309 250.988 116.972H249.756C249.793 115.927 250.111 115.119 250.708 114.55C251.305 113.981 252.075 113.696 253.018 113.696C253.979 113.696 254.74 113.962 255.3 114.494C255.869 115.026 256.154 115.759 256.154 116.692C256.154 117.467 255.921 118.223 255.454 118.96C254.997 119.688 254.474 120.332 253.886 120.892C253.298 121.443 252.547 122.087 251.632 122.824H256.448V123.888H249.714V122.978ZM257.921 118.834C257.921 117.229 258.182 115.978 258.705 115.082C259.227 114.177 260.142 113.724 261.449 113.724C262.746 113.724 263.656 114.177 264.179 115.082C264.701 115.978 264.963 117.229 264.963 118.834C264.963 120.467 264.701 121.737 264.179 122.642C263.656 123.547 262.746 124 261.449 124C260.142 124 259.227 123.547 258.705 122.642C258.182 121.737 257.921 120.467 257.921 118.834ZM263.703 118.834C263.703 118.022 263.647 117.336 263.535 116.776C263.432 116.207 263.213 115.749 262.877 115.404C262.55 115.059 262.074 114.886 261.449 114.886C260.814 114.886 260.329 115.059 259.993 115.404C259.666 115.749 259.447 116.207 259.335 116.776C259.232 117.336 259.181 118.022 259.181 118.834C259.181 119.674 259.232 120.379 259.335 120.948C259.447 121.517 259.666 121.975 259.993 122.32C260.329 122.665 260.814 122.838 261.449 122.838C262.074 122.838 262.55 122.665 262.877 122.32C263.213 121.975 263.432 121.517 263.535 120.948C263.647 120.379 263.703 119.674 263.703 118.834Z" fill="#444444"/>
<path d="M249.714 156.978C250.899 156.026 251.828 155.247 252.5 154.64C253.172 154.024 253.737 153.385 254.194 152.722C254.661 152.05 254.894 151.392 254.894 150.748C254.894 150.141 254.745 149.665 254.446 149.32C254.157 148.965 253.685 148.788 253.032 148.788C252.397 148.788 251.903 148.989 251.548 149.39C251.203 149.782 251.016 150.309 250.988 150.972H249.756C249.793 149.927 250.111 149.119 250.708 148.55C251.305 147.981 252.075 147.696 253.018 147.696C253.979 147.696 254.74 147.962 255.3 148.494C255.869 149.026 256.154 149.759 256.154 150.692C256.154 151.467 255.921 152.223 255.454 152.96C254.997 153.688 254.474 154.332 253.886 154.892C253.298 155.443 252.547 156.087 251.632 156.824H256.448V157.888H249.714V156.978ZM259.769 152.736C259.246 152.531 258.845 152.232 258.565 151.84C258.285 151.448 258.145 150.972 258.145 150.412C258.145 149.908 258.271 149.455 258.523 149.054C258.775 148.643 259.148 148.321 259.643 148.088C260.147 147.845 260.753 147.724 261.463 147.724C262.172 147.724 262.774 147.845 263.269 148.088C263.773 148.321 264.151 148.643 264.403 149.054C264.664 149.455 264.795 149.908 264.795 150.412C264.795 150.953 264.65 151.429 264.361 151.84C264.071 152.241 263.675 152.54 263.171 152.736C263.749 152.913 264.207 153.226 264.543 153.674C264.888 154.113 265.061 154.645 265.061 155.27C265.061 155.877 264.911 156.409 264.613 156.866C264.314 157.314 263.889 157.664 263.339 157.916C262.797 158.159 262.172 158.28 261.463 158.28C260.753 158.28 260.128 158.159 259.587 157.916C259.055 157.664 258.639 157.314 258.341 156.866C258.042 156.409 257.893 155.877 257.893 155.27C257.893 154.645 258.061 154.108 258.397 153.66C258.733 153.212 259.19 152.904 259.769 152.736ZM263.563 150.566C263.563 149.997 263.376 149.558 263.003 149.25C262.629 148.942 262.116 148.788 261.463 148.788C260.819 148.788 260.31 148.942 259.937 149.25C259.563 149.558 259.377 150.001 259.377 150.58C259.377 151.103 259.568 151.523 259.951 151.84C260.343 152.157 260.847 152.316 261.463 152.316C262.088 152.316 262.592 152.157 262.975 151.84C263.367 151.513 263.563 151.089 263.563 150.566ZM261.463 153.296C260.772 153.296 260.207 153.459 259.769 153.786C259.33 154.103 259.111 154.584 259.111 155.228C259.111 155.825 259.321 156.306 259.741 156.67C260.17 157.034 260.744 157.216 261.463 157.216C262.181 157.216 262.751 157.034 263.171 156.67C263.591 156.306 263.801 155.825 263.801 155.228C263.801 154.603 263.586 154.127 263.157 153.8C262.727 153.464 262.163 153.296 261.463 153.296Z" fill="#444444"/>
<path d="M249.84 184.426C249.905 183.567 250.237 182.895 250.834 182.41C251.431 181.925 252.206 181.682 253.158 181.682C253.793 181.682 254.339 181.799 254.796 182.032C255.263 182.256 255.613 182.564 255.846 182.956C256.089 183.348 256.21 183.791 256.21 184.286C256.21 184.865 256.042 185.364 255.706 185.784C255.379 186.204 254.95 186.475 254.418 186.596V186.666C255.025 186.815 255.505 187.109 255.86 187.548C256.215 187.987 256.392 188.561 256.392 189.27C256.392 189.802 256.271 190.283 256.028 190.712C255.785 191.132 255.421 191.463 254.936 191.706C254.451 191.949 253.867 192.07 253.186 192.07C252.197 192.07 251.385 191.813 250.75 191.3C250.115 190.777 249.761 190.04 249.686 189.088H250.918C250.983 189.648 251.212 190.105 251.604 190.46C251.996 190.815 252.519 190.992 253.172 190.992C253.825 190.992 254.32 190.824 254.656 190.488C255.001 190.143 255.174 189.699 255.174 189.158C255.174 188.458 254.941 187.954 254.474 187.646C254.007 187.338 253.303 187.184 252.36 187.184H252.038V186.12H252.374C253.233 186.111 253.881 185.971 254.32 185.7C254.759 185.42 254.978 184.991 254.978 184.412C254.978 183.917 254.815 183.521 254.488 183.222C254.171 182.923 253.713 182.774 253.116 182.774C252.537 182.774 252.071 182.923 251.716 183.222C251.361 183.521 251.151 183.922 251.086 184.426H249.84ZM263.754 184.286C263.549 183.25 262.909 182.732 261.836 182.732C261.005 182.732 260.385 183.054 259.974 183.698C259.563 184.333 259.363 185.383 259.372 186.848C259.587 186.363 259.941 185.985 260.436 185.714C260.94 185.434 261.5 185.294 262.116 185.294C263.077 185.294 263.843 185.593 264.412 186.19C264.991 186.787 265.28 187.613 265.28 188.668C265.28 189.303 265.154 189.872 264.902 190.376C264.659 190.88 264.286 191.281 263.782 191.58C263.287 191.879 262.685 192.028 261.976 192.028C261.015 192.028 260.263 191.813 259.722 191.384C259.181 190.955 258.803 190.362 258.588 189.606C258.373 188.85 258.266 187.917 258.266 186.806C258.266 183.381 259.461 181.668 261.85 181.668C262.765 181.668 263.483 181.915 264.006 182.41C264.529 182.905 264.837 183.53 264.93 184.286H263.754ZM261.85 186.372C261.449 186.372 261.071 186.456 260.716 186.624C260.361 186.783 260.072 187.03 259.848 187.366C259.633 187.693 259.526 188.094 259.526 188.57C259.526 189.279 259.731 189.858 260.142 190.306C260.553 190.745 261.141 190.964 261.906 190.964C262.559 190.964 263.077 190.763 263.46 190.362C263.852 189.951 264.048 189.401 264.048 188.71C264.048 187.982 263.861 187.413 263.488 187.002C263.115 186.582 262.569 186.372 261.85 186.372Z" fill="#444444"/>
<line x1="15" y1="64" x2="286" y2="64" stroke="#F5F5F5" stroke-width="2"/>
<path d="M263 40.5C263 36.3583 266.358 33 270.5 33C274.642 33 278 36.3583 278 40.5C278 44.6422 274.642 48 270.5 48C266.358 48 263 44.6422 263 40.5ZM264.125 40.5C264.125 44.0208 266.979 46.875 270.5 46.875C274.021 46.875 276.875 44.0208 276.875 40.5C276.875 36.9797 274.02 34.125 270.5 34.125C266.98 34.125 264.125 36.9797 264.125 40.5ZM268.965 37.5632L269.02 37.5C269.219 37.2999 269.531 37.2811 269.752 37.444L269.815 37.4983L272.43 40.1015C272.63 40.3014 272.649 40.615 272.484 40.8356L272.43 40.8988L269.815 43.502C269.595 43.7212 269.239 43.7204 269.02 43.5003C268.82 43.3002 268.803 42.9876 268.967 42.7678L269.021 42.7048L271.235 40.5009L269.021 38.2955C268.821 38.0962 268.802 37.7838 268.965 37.5632Z" fill="#200E32"/>
<path d="M38 41.5C38 45.6417 34.6417 49 30.5 49C26.3583 49 23 45.6417 23 41.5C23 37.3578 26.3581 34 30.5 34C34.6419 34 38 37.3578 38 41.5ZM36.875 41.5C36.875 37.9792 34.0206 35.125 30.5 35.125C26.9794 35.125 24.125 37.9792 24.125 41.5C24.125 45.0203 26.9797 47.875 30.5 47.875C34.0203 47.875 36.875 45.0203 36.875 41.5ZM32.0347 44.4368L31.9803 44.5C31.7811 44.7001 31.4686 44.7189 31.248 44.556L31.1848 44.5017L28.5703 41.8985C28.3696 41.6986 28.3513 41.385 28.5156 41.1644L28.5703 41.1012L31.1848 38.498C31.405 38.2788 31.7611 38.2796 31.9803 38.4997C32.1796 38.6998 32.1971 39.0124 32.0332 39.2322L31.9786 39.2952L29.765 41.4991L31.9786 43.7045C32.1787 43.9038 32.1976 44.2162 32.0347 44.4368Z" fill="#200E32"/>
<path d="M36.684 227.818V232H36.138V230.104H34.008V232H33.462V227.818H34.008V229.654H36.138V227.818H36.684ZM37.8983 228.178C37.7943 228.178 37.7063 228.142 37.6343 228.07C37.5623 227.998 37.5263 227.91 37.5263 227.806C37.5263 227.702 37.5623 227.614 37.6343 227.542C37.7063 227.47 37.7943 227.434 37.8983 227.434C37.9983 227.434 38.0823 227.47 38.1503 227.542C38.2223 227.614 38.2583 227.702 38.2583 227.806C38.2583 227.91 38.2223 227.998 38.1503 228.07C38.0823 228.142 37.9983 228.178 37.8983 228.178ZM38.1623 228.712V232H37.6163V228.712H38.1623ZM40.4489 228.658C40.7329 228.658 40.9809 228.72 41.1929 228.844C41.4089 228.968 41.5689 229.124 41.6729 229.312V228.712H42.2249V232.072C42.2249 232.372 42.1609 232.638 42.0329 232.87C41.9049 233.106 41.7209 233.29 41.4809 233.422C41.2449 233.554 40.9689 233.62 40.6529 233.62C40.2209 233.62 39.8609 233.518 39.5729 233.314C39.2849 233.11 39.1149 232.832 39.0629 232.48H39.6029C39.6629 232.68 39.7869 232.84 39.9749 232.96C40.1629 233.084 40.3889 233.146 40.6529 233.146C40.9529 233.146 41.1969 233.052 41.3849 232.864C41.5769 232.676 41.6729 232.412 41.6729 232.072V231.382C41.5649 231.574 41.4049 231.734 41.1929 231.862C40.9809 231.99 40.7329 232.054 40.4489 232.054C40.1569 232.054 39.8909 231.982 39.6509 231.838C39.4149 231.694 39.2289 231.492 39.0929 231.232C38.9569 230.972 38.8889 230.676 38.8889 230.344C38.8889 230.008 38.9569 229.714 39.0929 229.462C39.2289 229.206 39.4149 229.008 39.6509 228.868C39.8909 228.728 40.1569 228.658 40.4489 228.658ZM41.6729 230.35C41.6729 230.102 41.6229 229.886 41.5229 229.702C41.4229 229.518 41.2869 229.378 41.1149 229.282C40.9469 229.182 40.7609 229.132 40.5569 229.132C40.3529 229.132 40.1669 229.18 39.9989 229.276C39.8309 229.372 39.6969 229.512 39.5969 229.696C39.4969 229.88 39.4469 230.096 39.4469 230.344C39.4469 230.596 39.4969 230.816 39.5969 231.004C39.6969 231.188 39.8309 231.33 39.9989 231.43C40.1669 231.526 40.3529 231.574 40.5569 231.574C40.7609 231.574 40.9469 231.526 41.1149 231.43C41.2869 231.33 41.4229 231.188 41.5229 231.004C41.6229 230.816 41.6729 230.598 41.6729 230.35ZM43.6935 227.56V232H43.1475V227.56H43.6935ZM44.9061 228.178C44.8021 228.178 44.7141 228.142 44.6421 228.07C44.5701 227.998 44.5341 227.91 44.5341 227.806C44.5341 227.702 44.5701 227.614 44.6421 227.542C44.7141 227.47 44.8021 227.434 44.9061 227.434C45.0061 227.434 45.0901 227.47 45.1581 227.542C45.2301 227.614 45.2661 227.702 45.2661 227.806C45.2661 227.91 45.2301 227.998 45.1581 228.07C45.0901 228.142 45.0061 228.178 44.9061 228.178ZM45.1701 228.712V232H44.6241V228.712H45.1701ZM47.4567 228.658C47.7407 228.658 47.9887 228.72 48.2007 228.844C48.4167 228.968 48.5767 229.124 48.6807 229.312V228.712H49.2327V232.072C49.2327 232.372 49.1687 232.638 49.0407 232.87C48.9127 233.106 48.7287 233.29 48.4887 233.422C48.2527 233.554 47.9767 233.62 47.6607 233.62C47.2287 233.62 46.8687 233.518 46.5807 233.314C46.2927 233.11 46.1227 232.832 46.0707 232.48H46.6107C46.6707 232.68 46.7947 232.84 46.9827 232.96C47.1707 233.084 47.3967 233.146 47.6607 233.146C47.9607 233.146 48.2047 233.052 48.3927 232.864C48.5847 232.676 48.6807 232.412 48.6807 232.072V231.382C48.5727 231.574 48.4127 231.734 48.2007 231.862C47.9887 231.99 47.7407 232.054 47.4567 232.054C47.1647 232.054 46.8987 231.982 46.6587 231.838C46.4227 231.694 46.2367 231.492 46.1007 231.232C45.9647 230.972 45.8967 230.676 45.8967 230.344C45.8967 230.008 45.9647 229.714 46.1007 229.462C46.2367 229.206 46.4227 229.008 46.6587 228.868C46.8987 228.728 47.1647 228.658 47.4567 228.658ZM48.6807 230.35C48.6807 230.102 48.6307 229.886 48.5307 229.702C48.4307 229.518 48.2947 229.378 48.1227 229.282C47.9547 229.182 47.7687 229.132 47.5647 229.132C47.3607 229.132 47.1747 229.18 47.0067 229.276C46.8387 229.372 46.7047 229.512 46.6047 229.696C46.5047 229.88 46.4547 230.096 46.4547 230.344C46.4547 230.596 46.5047 230.816 46.6047 231.004C46.7047 231.188 46.8387 231.33 47.0067 231.43C47.1747 231.526 47.3607 231.574 47.5647 231.574C47.7687 231.574 47.9547 231.526 48.1227 231.43C48.2947 231.33 48.4307 231.188 48.5307 231.004C48.6307 230.816 48.6807 230.598 48.6807 230.35ZM51.7874 228.652C52.0354 228.652 52.2594 228.706 52.4594 228.814C52.6594 228.918 52.8154 229.076 52.9274 229.288C53.0434 229.5 53.1014 229.758 53.1014 230.062V232H52.5614V230.14C52.5614 229.812 52.4794 229.562 52.3154 229.39C52.1514 229.214 51.9274 229.126 51.6434 229.126C51.3554 229.126 51.1254 229.216 50.9534 229.396C50.7854 229.576 50.7014 229.838 50.7014 230.182V232H50.1554V227.56H50.7014V229.18C50.8094 229.012 50.9574 228.882 51.1454 228.79C51.3374 228.698 51.5514 228.652 51.7874 228.652ZM54.6593 229.162V231.1C54.6593 231.26 54.6933 231.374 54.7613 231.442C54.8293 231.506 54.9473 231.538 55.1152 231.538H55.5173V232H55.0253C54.7213 232 54.4933 231.93 54.3413 231.79C54.1893 231.65 54.1133 231.42 54.1133 231.1V229.162H53.6873V228.712H54.1133V227.884H54.6593V228.712H55.5173V229.162H54.6593ZM62.1584 228.712L61.1324 232H60.5684L59.7764 229.39L58.9844 232H58.4204L57.3884 228.712H57.9464L58.7024 231.472L59.5184 228.712H60.0764L60.8744 231.478L61.6184 228.712H62.1584ZM62.4963 230.344C62.4963 230.008 62.5643 229.714 62.7003 229.462C62.8363 229.206 63.0223 229.008 63.2583 228.868C63.4983 228.728 63.7643 228.658 64.0563 228.658C64.3443 228.658 64.5943 228.72 64.8063 228.844C65.0183 228.968 65.1763 229.124 65.2803 229.312V228.712H65.8323V232H65.2803V231.388C65.1723 231.58 65.0103 231.74 64.7943 231.868C64.5823 231.992 64.3343 232.054 64.0503 232.054C63.7583 232.054 63.4943 231.982 63.2583 231.838C63.0223 231.694 62.8363 231.492 62.7003 231.232C62.5643 230.972 62.4963 230.676 62.4963 230.344ZM65.2803 230.35C65.2803 230.102 65.2303 229.886 65.1303 229.702C65.0303 229.518 64.8943 229.378 64.7223 229.282C64.5543 229.182 64.3683 229.132 64.1643 229.132C63.9603 229.132 63.7743 229.18 63.6063 229.276C63.4383 229.372 63.3043 229.512 63.2043 229.696C63.1043 229.88 63.0543 230.096 63.0543 230.344C63.0543 230.596 63.1043 230.816 63.2043 231.004C63.3043 231.188 63.4383 231.33 63.6063 231.43C63.7743 231.526 63.9603 231.574 64.1643 231.574C64.3683 231.574 64.5543 231.526 64.7223 231.43C64.8943 231.33 65.0303 231.188 65.1303 231.004C65.2303 230.816 65.2803 230.598 65.2803 230.35ZM67.301 229.246C67.397 229.058 67.533 228.912 67.709 228.808C67.889 228.704 68.107 228.652 68.363 228.652V229.216H68.219C67.607 229.216 67.301 229.548 67.301 230.212V232H66.755V228.712H67.301V229.246ZM70.5953 228.652C70.9953 228.652 71.3193 228.774 71.5673 229.018C71.8153 229.258 71.9393 229.606 71.9393 230.062V232H71.3993V230.14C71.3993 229.812 71.3173 229.562 71.1533 229.39C70.9893 229.214 70.7653 229.126 70.4813 229.126C70.1933 229.126 69.9633 229.216 69.7913 229.396C69.6233 229.576 69.5393 229.838 69.5393 230.182V232H68.9933V228.712H69.5393V229.18C69.6473 229.012 69.7933 228.882 69.9773 228.79C70.1653 228.698 70.3713 228.652 70.5953 228.652ZM72.6271 230.344C72.6271 230.008 72.6951 229.714 72.8311 229.462C72.9671 229.206 73.1531 229.008 73.3891 228.868C73.6291 228.728 73.8951 228.658 74.1871 228.658C74.4751 228.658 74.7251 228.72 74.9371 228.844C75.1491 228.968 75.3071 229.124 75.4111 229.312V228.712H75.9631V232H75.4111V231.388C75.3031 231.58 75.1411 231.74 74.9251 231.868C74.7131 231.992 74.4651 232.054 74.1811 232.054C73.8891 232.054 73.6251 231.982 73.3891 231.838C73.1531 231.694 72.9671 231.492 72.8311 231.232C72.6951 230.972 72.6271 230.676 72.6271 230.344ZM75.4111 230.35C75.4111 230.102 75.3611 229.886 75.2611 229.702C75.1611 229.518 75.0251 229.378 74.8531 229.282C74.6851 229.182 74.4991 229.132 74.2951 229.132C74.0911 229.132 73.9051 229.18 73.7371 229.276C73.5691 229.372 73.4351 229.512 73.3351 229.696C73.2351 229.88 73.1851 230.096 73.1851 230.344C73.1851 230.596 73.2351 230.816 73.3351 231.004C73.4351 231.188 73.5691 231.33 73.7371 231.43C73.9051 231.526 74.0911 231.574 74.2951 231.574C74.4991 231.574 74.6851 231.526 74.8531 231.43C75.0251 231.33 75.1611 231.188 75.2611 231.004C75.3611 230.816 75.4111 230.598 75.4111 230.35ZM80.1174 228.652C80.3654 228.652 80.5894 228.706 80.7894 228.814C80.9894 228.918 81.1454 229.076 81.2574 229.288C81.3734 229.5 81.4314 229.758 81.4314 230.062V232H80.8914V230.14C80.8914 229.812 80.8094 229.562 80.6454 229.39C80.4814 229.214 80.2574 229.126 79.9734 229.126C79.6854 229.126 79.4554 229.216 79.2834 229.396C79.1154 229.576 79.0314 229.838 79.0314 230.182V232H78.4854V227.56H79.0314V229.18C79.1394 229.012 79.2874 228.882 79.4754 228.79C79.6674 228.698 79.8814 228.652 80.1174 228.652ZM82.6053 228.178C82.5013 228.178 82.4133 228.142 82.3413 228.07C82.2693 227.998 82.2333 227.91 82.2333 227.806C82.2333 227.702 82.2693 227.614 82.3413 227.542C82.4133 227.47 82.5013 227.434 82.6053 227.434C82.7053 227.434 82.7893 227.47 82.8573 227.542C82.9293 227.614 82.9653 227.702 82.9653 227.806C82.9653 227.91 82.9293 227.998 82.8573 228.07C82.7893 228.142 82.7053 228.178 82.6053 228.178ZM82.8693 228.712V232H82.3233V228.712H82.8693ZM84.0939 228.178C83.9899 228.178 83.9019 228.142 83.8299 228.07C83.7619 227.998 83.7279 227.91 83.7279 227.806C83.7279 227.702 83.7619 227.614 83.8299 227.542C83.9019 227.47 83.9899 227.434 84.0939 227.434C84.1979 227.434 84.2839 227.47 84.3519 227.542C84.4239 227.614 84.4599 227.702 84.4599 227.806C84.4599 227.91 84.4239 227.998 84.3519 228.07C84.2839 228.142 84.1979 228.178 84.0939 228.178ZM84.3639 232.714C84.3639 233.006 84.2899 233.22 84.1419 233.356C83.9939 233.492 83.7779 233.56 83.4939 233.56H83.1759V233.098H83.4039C83.5559 233.098 83.6619 233.068 83.7219 233.008C83.7859 232.948 83.8179 232.846 83.8179 232.702V228.712H84.3639V232.714ZM85.0842 230.344C85.0842 230.008 85.1522 229.714 85.2882 229.462C85.4242 229.206 85.6102 229.008 85.8462 228.868C86.0862 228.728 86.3522 228.658 86.6442 228.658C86.9322 228.658 87.1822 228.72 87.3942 228.844C87.6062 228.968 87.7642 229.124 87.8682 229.312V228.712H88.4202V232H87.8682V231.388C87.7602 231.58 87.5982 231.74 87.3822 231.868C87.1702 231.992 86.9222 232.054 86.6382 232.054C86.3462 232.054 86.0822 231.982 85.8462 231.838C85.6102 231.694 85.4242 231.492 85.2882 231.232C85.1522 230.972 85.0842 230.676 85.0842 230.344ZM87.8682 230.35C87.8682 230.102 87.8182 229.886 87.7182 229.702C87.6182 229.518 87.4822 229.378 87.3102 229.282C87.1422 229.182 86.9562 229.132 86.7522 229.132C86.5482 229.132 86.3622 229.18 86.1942 229.276C86.0262 229.372 85.8922 229.512 85.7922 229.696C85.6922 229.88 85.6422 230.096 85.6422 230.344C85.6422 230.596 85.6922 230.816 85.7922 231.004C85.8922 231.188 86.0262 231.33 86.1942 231.43C86.3622 231.526 86.5482 231.574 86.7522 231.574C86.9562 231.574 87.1422 231.526 87.3102 231.43C87.4822 231.33 87.6182 231.188 87.7182 231.004C87.8182 230.816 87.8682 230.598 87.8682 230.35ZM92.2589 228.712V232H91.7129V231.514C91.6089 231.682 91.4629 231.814 91.2749 231.91C91.0909 232.002 90.8869 232.048 90.6629 232.048C90.4069 232.048 90.1769 231.996 89.9729 231.892C89.7689 231.784 89.6069 231.624 89.4869 231.412C89.3709 231.2 89.3129 230.942 89.3129 230.638V228.712H89.8529V230.566C89.8529 230.89 89.9349 231.14 90.0989 231.316C90.2629 231.488 90.4869 231.574 90.7709 231.574C91.0629 231.574 91.2929 231.484 91.4609 231.304C91.6289 231.124 91.7129 230.862 91.7129 230.518V228.712H92.2589ZM98.7344 228.652C98.9904 228.652 99.2184 228.706 99.4184 228.814C99.6184 228.918 99.7764 229.076 99.8924 229.288C100.008 229.5 100.066 229.758 100.066 230.062V232H99.5264V230.14C99.5264 229.812 99.4444 229.562 99.2804 229.39C99.1204 229.214 98.9024 229.126 98.6264 229.126C98.3424 229.126 98.1164 229.218 97.9484 229.402C97.7804 229.582 97.6964 229.844 97.6964 230.188V232H97.1564V230.14C97.1564 229.812 97.0744 229.562 96.9104 229.39C96.7504 229.214 96.5324 229.126 96.2564 229.126C95.9724 229.126 95.7464 229.218 95.5784 229.402C95.4104 229.582 95.3264 229.844 95.3264 230.188V232H94.7804V228.712H95.3264V229.186C95.4344 229.014 95.5784 228.882 95.7584 228.79C95.9424 228.698 96.1444 228.652 96.3644 228.652C96.6404 228.652 96.8844 228.714 97.0964 228.838C97.3084 228.962 97.4664 229.144 97.5704 229.384C97.6624 229.152 97.8144 228.972 98.0264 228.844C98.2384 228.716 98.4744 228.652 98.7344 228.652ZM103.962 230.23C103.962 230.334 103.956 230.444 103.944 230.56H101.316C101.336 230.884 101.446 231.138 101.646 231.322C101.85 231.502 102.096 231.592 102.384 231.592C102.62 231.592 102.816 231.538 102.972 231.43C103.132 231.318 103.244 231.17 103.308 230.986H103.896C103.808 231.302 103.632 231.56 103.368 231.76C103.104 231.956 102.776 232.054 102.384 232.054C102.072 232.054 101.792 231.984 101.544 231.844C101.3 231.704 101.108 231.506 100.968 231.25C100.828 230.99 100.758 230.69 100.758 230.35C100.758 230.01 100.826 229.712 100.962 229.456C101.098 229.2 101.288 229.004 101.532 228.868C101.78 228.728 102.064 228.658 102.384 228.658C102.696 228.658 102.972 228.726 103.212 228.862C103.452 228.998 103.636 229.186 103.764 229.426C103.896 229.662 103.962 229.93 103.962 230.23ZM103.398 230.116C103.398 229.908 103.352 229.73 103.26 229.582C103.168 229.43 103.042 229.316 102.882 229.24C102.726 229.16 102.552 229.12 102.36 229.12C102.084 229.12 101.848 229.208 101.652 229.384C101.46 229.56 101.35 229.804 101.322 230.116H103.398ZM105.229 229.246C105.325 229.058 105.461 228.912 105.637 228.808C105.817 228.704 106.035 228.652 106.291 228.652V229.216H106.147C105.535 229.216 105.229 229.548 105.229 230.212V232H104.683V228.712H105.229V229.246ZM109.837 228.712V232H109.291V231.514C109.187 231.682 109.041 231.814 108.853 231.91C108.669 232.002 108.465 232.048 108.241 232.048C107.985 232.048 107.755 231.996 107.551 231.892C107.347 231.784 107.185 231.624 107.065 231.412C106.949 231.2 106.891 230.942 106.891 230.638V228.712H107.431V230.566C107.431 230.89 107.513 231.14 107.677 231.316C107.841 231.488 108.065 231.574 108.349 231.574C108.641 231.574 108.871 231.484 109.039 231.304C109.207 231.124 109.291 230.862 109.291 230.518V228.712H109.837ZM111.305 229.318C111.413 229.13 111.573 228.974 111.785 228.85C112.001 228.722 112.251 228.658 112.535 228.658C112.827 228.658 113.091 228.728 113.327 228.868C113.567 229.008 113.755 229.206 113.891 229.462C114.027 229.714 114.095 230.008 114.095 230.344C114.095 230.676 114.027 230.972 113.891 231.232C113.755 231.492 113.567 231.694 113.327 231.838C113.091 231.982 112.827 232.054 112.535 232.054C112.255 232.054 112.007 231.992 111.791 231.868C111.579 231.74 111.417 231.582 111.305 231.394V233.56H110.759V228.712H111.305V229.318ZM113.537 230.344C113.537 230.096 113.487 229.88 113.387 229.696C113.287 229.512 113.151 229.372 112.979 229.276C112.811 229.18 112.625 229.132 112.421 229.132C112.221 229.132 112.035 229.182 111.863 229.282C111.695 229.378 111.559 229.52 111.455 229.708C111.355 229.892 111.305 230.106 111.305 230.35C111.305 230.598 111.355 230.816 111.455 231.004C111.559 231.188 111.695 231.33 111.863 231.43C112.035 231.526 112.221 231.574 112.421 231.574C112.625 231.574 112.811 231.526 112.979 231.43C113.151 231.33 113.287 231.188 113.387 231.004C113.487 230.816 113.537 230.596 113.537 230.344ZM114.61 230.344C114.61 230.008 114.678 229.714 114.814 229.462C114.95 229.206 115.136 229.008 115.372 228.868C115.612 228.728 115.878 228.658 116.17 228.658C116.458 228.658 116.708 228.72 116.92 228.844C117.132 228.968 117.29 229.124 117.394 229.312V228.712H117.946V232H117.394V231.388C117.286 231.58 117.124 231.74 116.908 231.868C116.696 231.992 116.448 232.054 116.164 232.054C115.872 232.054 115.608 231.982 115.372 231.838C115.136 231.694 114.95 231.492 114.814 231.232C114.678 230.972 114.61 230.676 114.61 230.344ZM117.394 230.35C117.394 230.102 117.344 229.886 117.244 229.702C117.144 229.518 117.008 229.378 116.836 229.282C116.668 229.182 116.482 229.132 116.278 229.132C116.074 229.132 115.888 229.18 115.72 229.276C115.552 229.372 115.418 229.512 115.318 229.696C115.218 229.88 115.168 230.096 115.168 230.344C115.168 230.596 115.218 230.816 115.318 231.004C115.418 231.188 115.552 231.33 115.72 231.43C115.888 231.526 116.074 231.574 116.278 231.574C116.482 231.574 116.668 231.526 116.836 231.43C117.008 231.33 117.144 231.188 117.244 231.004C117.344 230.816 117.394 230.598 117.394 230.35ZM120.704 232L119.414 230.548V232H118.868V227.56H119.414V230.17L120.68 228.712H121.442L119.894 230.35L121.448 232H120.704ZM121.752 230.344C121.752 230.008 121.82 229.714 121.956 229.462C122.092 229.206 122.278 229.008 122.514 228.868C122.754 228.728 123.02 228.658 123.312 228.658C123.6 228.658 123.85 228.72 124.062 228.844C124.274 228.968 124.432 229.124 124.536 229.312V228.712H125.088V232H124.536V231.388C124.428 231.58 124.266 231.74 124.05 231.868C123.838 231.992 123.59 232.054 123.306 232.054C123.014 232.054 122.75 231.982 122.514 231.838C122.278 231.694 122.092 231.492 121.956 231.232C121.82 230.972 121.752 230.676 121.752 230.344ZM124.536 230.35C124.536 230.102 124.486 229.886 124.386 229.702C124.286 229.518 124.15 229.378 123.978 229.282C123.81 229.182 123.624 229.132 123.42 229.132C123.216 229.132 123.03 229.18 122.862 229.276C122.694 229.372 122.56 229.512 122.46 229.696C122.36 229.88 122.31 230.096 122.31 230.344C122.31 230.596 122.36 230.816 122.46 231.004C122.56 231.188 122.694 231.33 122.862 231.43C123.03 231.526 123.216 231.574 123.42 231.574C123.624 231.574 123.81 231.526 123.978 231.43C124.15 231.33 124.286 231.188 124.386 231.004C124.486 230.816 124.536 230.598 124.536 230.35ZM127.613 228.652C128.013 228.652 128.337 228.774 128.585 229.018C128.833 229.258 128.957 229.606 128.957 230.062V232H128.417V230.14C128.417 229.812 128.335 229.562 128.171 229.39C128.007 229.214 127.783 229.126 127.499 229.126C127.211 229.126 126.981 229.216 126.809 229.396C126.641 229.576 126.557 229.838 126.557 230.182V232H126.011V228.712H126.557V229.18C126.665 229.012 126.811 228.882 126.995 228.79C127.183 228.698 127.389 228.652 127.613 228.652ZM131.994 229.318C132.102 229.13 132.262 228.974 132.474 228.85C132.69 228.722 132.94 228.658 133.224 228.658C133.516 228.658 133.78 228.728 134.016 228.868C134.256 229.008 134.444 229.206 134.58 229.462C134.716 229.714 134.784 230.008 134.784 230.344C134.784 230.676 134.716 230.972 134.58 231.232C134.444 231.492 134.256 231.694 134.016 231.838C133.78 231.982 133.516 232.054 133.224 232.054C132.944 232.054 132.696 231.992 132.48 231.868C132.268 231.74 132.106 231.582 131.994 231.394V233.56H131.448V228.712H131.994V229.318ZM134.226 230.344C134.226 230.096 134.176 229.88 134.076 229.696C133.976 229.512 133.84 229.372 133.668 229.276C133.5 229.18 133.314 229.132 133.11 229.132C132.91 229.132 132.724 229.182 132.552 229.282C132.384 229.378 132.248 229.52 132.144 229.708C132.044 229.892 131.994 230.106 131.994 230.35C131.994 230.598 132.044 230.816 132.144 231.004C132.248 231.188 132.384 231.33 132.552 231.43C132.724 231.526 132.91 231.574 133.11 231.574C133.314 231.574 133.5 231.526 133.668 231.43C133.84 231.33 133.976 231.188 134.076 231.004C134.176 230.816 134.226 230.596 134.226 230.344ZM138.503 230.23C138.503 230.334 138.497 230.444 138.485 230.56H135.857C135.877 230.884 135.987 231.138 136.187 231.322C136.391 231.502 136.637 231.592 136.925 231.592C137.161 231.592 137.357 231.538 137.513 231.43C137.673 231.318 137.785 231.17 137.849 230.986H138.437C138.349 231.302 138.173 231.56 137.909 231.76C137.645 231.956 137.317 232.054 136.925 232.054C136.613 232.054 136.333 231.984 136.085 231.844C135.841 231.704 135.649 231.506 135.509 231.25C135.369 230.99 135.299 230.69 135.299 230.35C135.299 230.01 135.367 229.712 135.503 229.456C135.639 229.2 135.829 229.004 136.073 228.868C136.321 228.728 136.605 228.658 136.925 228.658C137.237 228.658 137.513 228.726 137.753 228.862C137.993 228.998 138.177 229.186 138.305 229.426C138.437 229.662 138.503 229.93 138.503 230.23ZM137.939 230.116C137.939 229.908 137.893 229.73 137.801 229.582C137.709 229.43 137.583 229.316 137.423 229.24C137.267 229.16 137.093 229.12 136.901 229.12C136.625 229.12 136.389 229.208 136.193 229.384C136.001 229.56 135.891 229.804 135.863 230.116H137.939ZM139.77 229.246C139.866 229.058 140.002 228.912 140.178 228.808C140.358 228.704 140.576 228.652 140.832 228.652V229.216H140.688C140.076 229.216 139.77 229.548 139.77 230.212V232H139.224V228.712H139.77V229.246ZM141.744 228.178C141.64 228.178 141.552 228.142 141.48 228.07C141.408 227.998 141.372 227.91 141.372 227.806C141.372 227.702 141.408 227.614 141.48 227.542C141.552 227.47 141.64 227.434 141.744 227.434C141.844 227.434 141.928 227.47 141.996 227.542C142.068 227.614 142.104 227.702 142.104 227.806C142.104 227.91 142.068 227.998 141.996 228.07C141.928 228.142 141.844 228.178 141.744 228.178ZM142.008 228.712V232H141.462V228.712H142.008ZM144.373 232.054C144.065 232.054 143.785 231.984 143.533 231.844C143.285 231.704 143.089 231.506 142.945 231.25C142.805 230.99 142.735 230.69 142.735 230.35C142.735 230.014 142.807 229.718 142.951 229.462C143.099 229.202 143.299 229.004 143.551 228.868C143.803 228.728 144.085 228.658 144.397 228.658C144.709 228.658 144.991 228.728 145.243 228.868C145.495 229.004 145.693 229.2 145.837 229.456C145.985 229.712 146.059 230.01 146.059 230.35C146.059 230.69 145.983 230.99 145.831 231.25C145.683 231.506 145.481 231.704 145.225 231.844C144.969 231.984 144.685 232.054 144.373 232.054ZM144.373 231.574C144.569 231.574 144.753 231.528 144.925 231.436C145.097 231.344 145.235 231.206 145.339 231.022C145.447 230.838 145.501 230.614 145.501 230.35C145.501 230.086 145.449 229.862 145.345 229.678C145.241 229.494 145.105 229.358 144.937 229.27C144.769 229.178 144.587 229.132 144.391 229.132C144.191 229.132 144.007 229.178 143.839 229.27C143.675 229.358 143.543 229.494 143.443 229.678C143.343 229.862 143.293 230.086 143.293 230.35C143.293 230.618 143.341 230.844 143.437 231.028C143.537 231.212 143.669 231.35 143.833 231.442C143.997 231.53 144.177 231.574 144.373 231.574ZM146.572 230.344C146.572 230.008 146.64 229.714 146.776 229.462C146.912 229.206 147.098 229.008 147.334 228.868C147.574 228.728 147.842 228.658 148.138 228.658C148.394 228.658 148.632 228.718 148.852 228.838C149.072 228.954 149.24 229.108 149.356 229.3V227.56H149.908V232H149.356V231.382C149.248 231.578 149.088 231.74 148.876 231.868C148.664 231.992 148.416 232.054 148.132 232.054C147.84 232.054 147.574 231.982 147.334 231.838C147.098 231.694 146.912 231.492 146.776 231.232C146.64 230.972 146.572 230.676 146.572 230.344ZM149.356 230.35C149.356 230.102 149.306 229.886 149.206 229.702C149.106 229.518 148.97 229.378 148.798 229.282C148.63 229.182 148.444 229.132 148.24 229.132C148.036 229.132 147.85 229.18 147.682 229.276C147.514 229.372 147.38 229.512 147.28 229.696C147.18 229.88 147.13 230.096 147.13 230.344C147.13 230.596 147.18 230.816 147.28 231.004C147.38 231.188 147.514 231.33 147.682 231.43C147.85 231.526 148.036 231.574 148.24 231.574C148.444 231.574 148.63 231.526 148.798 231.43C148.97 231.33 149.106 231.188 149.206 231.004C149.306 230.816 149.356 230.598 149.356 230.35ZM153.831 230.23C153.831 230.334 153.825 230.444 153.813 230.56H151.185C151.205 230.884 151.315 231.138 151.515 231.322C151.719 231.502 151.965 231.592 152.253 231.592C152.489 231.592 152.685 231.538 152.841 231.43C153.001 231.318 153.113 231.17 153.177 230.986H153.765C153.677 231.302 153.501 231.56 153.237 231.76C152.973 231.956 152.645 232.054 152.253 232.054C151.941 232.054 151.661 231.984 151.413 231.844C151.169 231.704 150.977 231.506 150.837 231.25C150.697 230.99 150.627 230.69 150.627 230.35C150.627 230.01 150.695 229.712 150.831 229.456C150.967 229.2 151.157 229.004 151.401 228.868C151.649 228.728 151.933 228.658 152.253 228.658C152.565 228.658 152.841 228.726 153.081 228.862C153.321 228.998 153.505 229.186 153.633 229.426C153.765 229.662 153.831 229.93 153.831 230.23ZM153.267 230.116C153.267 229.908 153.221 229.73 153.129 229.582C153.037 229.43 152.911 229.316 152.751 229.24C152.595 229.16 152.421 229.12 152.229 229.12C151.953 229.12 151.717 229.208 151.521 229.384C151.329 229.56 151.219 229.804 151.191 230.116H153.267ZM158.983 228.712L157.003 233.548H156.439L157.087 231.964L155.761 228.712H156.367L157.399 231.376L158.419 228.712H158.983ZM159.328 230.344C159.328 230.008 159.396 229.714 159.532 229.462C159.668 229.206 159.854 229.008 160.09 228.868C160.33 228.728 160.596 228.658 160.888 228.658C161.176 228.658 161.426 228.72 161.638 228.844C161.85 228.968 162.008 229.124 162.112 229.312V228.712H162.664V232H162.112V231.388C162.004 231.58 161.842 231.74 161.626 231.868C161.414 231.992 161.166 232.054 160.882 232.054C160.59 232.054 160.326 231.982 160.09 231.838C159.854 231.694 159.668 231.492 159.532 231.232C159.396 230.972 159.328 230.676 159.328 230.344ZM162.112 230.35C162.112 230.102 162.062 229.886 161.962 229.702C161.862 229.518 161.726 229.378 161.554 229.282C161.386 229.182 161.2 229.132 160.996 229.132C160.792 229.132 160.606 229.18 160.438 229.276C160.27 229.372 160.136 229.512 160.036 229.696C159.936 229.88 159.886 230.096 159.886 230.344C159.886 230.596 159.936 230.816 160.036 231.004C160.136 231.188 160.27 231.33 160.438 231.43C160.606 231.526 160.792 231.574 160.996 231.574C161.2 231.574 161.386 231.526 161.554 231.43C161.726 231.33 161.862 231.188 161.962 231.004C162.062 230.816 162.112 230.598 162.112 230.35ZM165.189 228.652C165.589 228.652 165.913 228.774 166.161 229.018C166.409 229.258 166.533 229.606 166.533 230.062V232H165.993V230.14C165.993 229.812 165.911 229.562 165.747 229.39C165.583 229.214 165.359 229.126 165.075 229.126C164.787 229.126 164.557 229.216 164.385 229.396C164.217 229.576 164.133 229.838 164.133 230.182V232H163.587V228.712H164.133V229.18C164.241 229.012 164.387 228.882 164.571 228.79C164.759 228.698 164.965 228.652 165.189 228.652ZM168.781 228.658C169.065 228.658 169.313 228.72 169.525 228.844C169.741 228.968 169.901 229.124 170.005 229.312V228.712H170.557V232.072C170.557 232.372 170.493 232.638 170.365 232.87C170.237 233.106 170.053 233.29 169.813 233.422C169.577 233.554 169.301 233.62 168.985 233.62C168.553 233.62 168.193 233.518 167.905 233.314C167.617 233.11 167.447 232.832 167.395 232.48H167.935C167.995 232.68 168.119 232.84 168.307 232.96C168.495 233.084 168.721 233.146 168.985 233.146C169.285 233.146 169.529 233.052 169.717 232.864C169.909 232.676 170.005 232.412 170.005 232.072V231.382C169.897 231.574 169.737 231.734 169.525 231.862C169.313 231.99 169.065 232.054 168.781 232.054C168.489 232.054 168.223 231.982 167.983 231.838C167.747 231.694 167.561 231.492 167.425 231.232C167.289 230.972 167.221 230.676 167.221 230.344C167.221 230.008 167.289 229.714 167.425 229.462C167.561 229.206 167.747 229.008 167.983 228.868C168.223 228.728 168.489 228.658 168.781 228.658ZM170.005 230.35C170.005 230.102 169.955 229.886 169.855 229.702C169.755 229.518 169.619 229.378 169.447 229.282C169.279 229.182 169.093 229.132 168.889 229.132C168.685 229.132 168.499 229.18 168.331 229.276C168.163 229.372 168.029 229.512 167.929 229.696C167.829 229.88 167.779 230.096 167.779 230.344C167.779 230.596 167.829 230.816 167.929 231.004C168.029 231.188 168.163 231.33 168.331 231.43C168.499 231.526 168.685 231.574 168.889 231.574C169.093 231.574 169.279 231.526 169.447 231.43C169.619 231.33 169.755 231.188 169.855 231.004C169.955 230.816 170.005 230.598 170.005 230.35ZM174.243 232.054C173.991 232.054 173.765 232.012 173.565 231.928C173.365 231.84 173.207 231.72 173.091 231.568C172.975 231.412 172.911 231.234 172.899 231.034H173.463C173.479 231.198 173.555 231.332 173.691 231.436C173.831 231.54 174.013 231.592 174.237 231.592C174.445 231.592 174.609 231.546 174.729 231.454C174.849 231.362 174.909 231.246 174.909 231.106C174.909 230.962 174.845 230.856 174.717 230.788C174.589 230.716 174.391 230.646 174.123 230.578C173.879 230.514 173.679 230.45 173.523 230.386C173.371 230.318 173.239 230.22 173.127 230.092C173.019 229.96 172.965 229.788 172.965 229.576C172.965 229.408 173.015 229.254 173.115 229.114C173.215 228.974 173.357 228.864 173.541 228.784C173.725 228.7 173.935 228.658 174.171 228.658C174.535 228.658 174.829 228.75 175.053 228.934C175.277 229.118 175.397 229.37 175.413 229.69H174.867C174.855 229.518 174.785 229.38 174.657 229.276C174.533 229.172 174.365 229.12 174.153 229.12C173.957 229.12 173.801 229.162 173.685 229.246C173.569 229.33 173.511 229.44 173.511 229.576C173.511 229.684 173.545 229.774 173.613 229.846C173.685 229.914 173.773 229.97 173.877 230.014C173.985 230.054 174.133 230.1 174.321 230.152C174.557 230.216 174.749 230.28 174.897 230.344C175.045 230.404 175.171 230.496 175.275 230.62C175.383 230.744 175.439 230.906 175.443 231.106C175.443 231.286 175.393 231.448 175.293 231.592C175.193 231.736 175.051 231.85 174.867 231.934C174.687 232.014 174.479 232.054 174.243 232.054ZM179.13 228.712V232H178.584V231.514C178.48 231.682 178.334 231.814 178.146 231.91C177.962 232.002 177.758 232.048 177.534 232.048C177.278 232.048 177.048 231.996 176.844 231.892C176.64 231.784 176.478 231.624 176.358 231.412C176.242 231.2 176.184 230.942 176.184 230.638V228.712H176.724V230.566C176.724 230.89 176.806 231.14 176.97 231.316C177.134 231.488 177.358 231.574 177.642 231.574C177.934 231.574 178.164 231.484 178.332 231.304C178.5 231.124 178.584 230.862 178.584 230.518V228.712H179.13ZM179.848 230.344C179.848 230.008 179.916 229.714 180.052 229.462C180.188 229.206 180.374 229.008 180.61 228.868C180.85 228.728 181.118 228.658 181.414 228.658C181.67 228.658 181.908 228.718 182.128 228.838C182.348 228.954 182.516 229.108 182.632 229.3V227.56H183.184V232H182.632V231.382C182.524 231.578 182.364 231.74 182.152 231.868C181.94 231.992 181.692 232.054 181.408 232.054C181.116 232.054 180.85 231.982 180.61 231.838C180.374 231.694 180.188 231.492 180.052 231.232C179.916 230.972 179.848 230.676 179.848 230.344ZM182.632 230.35C182.632 230.102 182.582 229.886 182.482 229.702C182.382 229.518 182.246 229.378 182.074 229.282C181.906 229.182 181.72 229.132 181.516 229.132C181.312 229.132 181.126 229.18 180.958 229.276C180.79 229.372 180.656 229.512 180.556 229.696C180.456 229.88 180.406 230.096 180.406 230.344C180.406 230.596 180.456 230.816 180.556 231.004C180.656 231.188 180.79 231.33 180.958 231.43C181.126 231.526 181.312 231.574 181.516 231.574C181.72 231.574 181.906 231.526 182.074 231.43C182.246 231.33 182.382 231.188 182.482 231.004C182.582 230.816 182.632 230.598 182.632 230.35ZM183.903 230.344C183.903 230.008 183.971 229.714 184.107 229.462C184.243 229.206 184.429 229.008 184.665 228.868C184.905 228.728 185.171 228.658 185.463 228.658C185.751 228.658 186.001 228.72 186.213 228.844C186.425 228.968 186.583 229.124 186.687 229.312V228.712H187.239V232H186.687V231.388C186.579 231.58 186.417 231.74 186.201 231.868C185.989 231.992 185.741 232.054 185.457 232.054C185.165 232.054 184.901 231.982 184.665 231.838C184.429 231.694 184.243 231.492 184.107 231.232C183.971 230.972 183.903 230.676 183.903 230.344ZM186.687 230.35C186.687 230.102 186.637 229.886 186.537 229.702C186.437 229.518 186.301 229.378 186.129 229.282C185.961 229.182 185.775 229.132 185.571 229.132C185.367 229.132 185.181 229.18 185.013 229.276C184.845 229.372 184.711 229.512 184.611 229.696C184.511 229.88 184.461 230.096 184.461 230.344C184.461 230.596 184.511 230.816 184.611 231.004C184.711 231.188 184.845 231.33 185.013 231.43C185.181 231.526 185.367 231.574 185.571 231.574C185.775 231.574 185.961 231.526 186.129 231.43C186.301 231.33 186.437 231.188 186.537 231.004C186.637 230.816 186.687 230.598 186.687 230.35ZM189.793 228.652C190.041 228.652 190.265 228.706 190.465 228.814C190.665 228.918 190.821 229.076 190.933 229.288C191.049 229.5 191.107 229.758 191.107 230.062V232H190.567V230.14C190.567 229.812 190.485 229.562 190.321 229.39C190.157 229.214 189.933 229.126 189.649 229.126C189.361 229.126 189.131 229.216 188.959 229.396C188.791 229.576 188.707 229.838 188.707 230.182V232H188.161V227.56H188.707V229.18C188.815 229.012 188.963 228.882 189.151 228.79C189.343 228.698 189.557 228.652 189.793 228.652ZM193.395 230.344C193.395 230.008 193.463 229.714 193.599 229.462C193.735 229.206 193.921 229.008 194.157 228.868C194.397 228.728 194.665 228.658 194.961 228.658C195.217 228.658 195.455 228.718 195.675 228.838C195.895 228.954 196.063 229.108 196.179 229.3V227.56H196.731V232H196.179V231.382C196.071 231.578 195.911 231.74 195.699 231.868C195.487 231.992 195.239 232.054 194.955 232.054C194.663 232.054 194.397 231.982 194.157 231.838C193.921 231.694 193.735 231.492 193.599 231.232C193.463 230.972 193.395 230.676 193.395 230.344ZM196.179 230.35C196.179 230.102 196.129 229.886 196.029 229.702C195.929 229.518 195.793 229.378 195.621 229.282C195.453 229.182 195.267 229.132 195.063 229.132C194.859 229.132 194.673 229.18 194.505 229.276C194.337 229.372 194.203 229.512 194.103 229.696C194.003 229.88 193.953 230.096 193.953 230.344C193.953 230.596 194.003 230.816 194.103 231.004C194.203 231.188 194.337 231.33 194.505 231.43C194.673 231.526 194.859 231.574 195.063 231.574C195.267 231.574 195.453 231.526 195.621 231.43C195.793 231.33 195.929 231.188 196.029 231.004C196.129 230.816 196.179 230.598 196.179 230.35ZM197.935 228.178C197.831 228.178 197.743 228.142 197.671 228.07C197.599 227.998 197.563 227.91 197.563 227.806C197.563 227.702 197.599 227.614 197.671 227.542C197.743 227.47 197.831 227.434 197.935 227.434C198.035 227.434 198.119 227.47 198.187 227.542C198.259 227.614 198.295 227.702 198.295 227.806C198.295 227.91 198.259 227.998 198.187 228.07C198.119 228.142 198.035 228.178 197.935 228.178ZM198.199 228.712V232H197.653V228.712H198.199ZM201.012 228.178C200.908 228.178 200.82 228.142 200.748 228.07C200.676 227.998 200.64 227.91 200.64 227.806C200.64 227.702 200.676 227.614 200.748 227.542C200.82 227.47 200.908 227.434 201.012 227.434C201.112 227.434 201.196 227.47 201.264 227.542C201.336 227.614 201.372 227.702 201.372 227.806C201.372 227.91 201.336 227.998 201.264 228.07C201.196 228.142 201.112 228.178 201.012 228.178ZM201.276 228.712V232H200.73V228.712H201.276ZM203.37 232.054C203.118 232.054 202.892 232.012 202.692 231.928C202.492 231.84 202.334 231.72 202.218 231.568C202.102 231.412 202.038 231.234 202.026 231.034H202.59C202.606 231.198 202.682 231.332 202.818 231.436C202.958 231.54 203.14 231.592 203.364 231.592C203.572 231.592 203.736 231.546 203.856 231.454C203.976 231.362 204.036 231.246 204.036 231.106C204.036 230.962 203.972 230.856 203.844 230.788C203.716 230.716 203.518 230.646 203.25 230.578C203.006 230.514 202.806 230.45 202.65 230.386C202.498 230.318 202.366 230.22 202.254 230.092C202.146 229.96 202.092 229.788 202.092 229.576C202.092 229.408 202.142 229.254 202.242 229.114C202.342 228.974 202.484 228.864 202.668 228.784C202.852 228.7 203.062 228.658 203.298 228.658C203.662 228.658 203.956 228.75 204.18 228.934C204.404 229.118 204.524 229.37 204.54 229.69H203.994C203.982 229.518 203.912 229.38 203.784 229.276C203.66 229.172 203.492 229.12 203.28 229.12C203.084 229.12 202.928 229.162 202.812 229.246C202.696 229.33 202.638 229.44 202.638 229.576C202.638 229.684 202.672 229.774 202.74 229.846C202.812 229.914 202.9 229.97 203.004 230.014C203.112 230.054 203.26 230.1 203.448 230.152C203.684 230.216 203.876 230.28 204.024 230.344C204.172 230.404 204.298 230.496 204.402 230.62C204.51 230.744 204.566 230.906 204.57 231.106C204.57 231.286 204.52 231.448 204.42 231.592C204.32 231.736 204.178 231.85 203.994 231.934C203.814 232.014 203.606 232.054 203.37 232.054ZM205.623 228.178C205.519 228.178 205.431 228.142 205.359 228.07C205.287 227.998 205.251 227.91 205.251 227.806C205.251 227.702 205.287 227.614 205.359 227.542C205.431 227.47 205.519 227.434 205.623 227.434C205.723 227.434 205.807 227.47 205.875 227.542C205.947 227.614 205.983 227.702 205.983 227.806C205.983 227.91 205.947 227.998 205.875 228.07C205.807 228.142 205.723 228.178 205.623 228.178ZM205.887 228.712V232H205.341V228.712H205.887Z" fill="#444444" fill-opacity="0.8"/>
<defs>
<filter id="filter0_ddii" x="0" y="0" width="301" height="222" filterUnits="userSpaceOnUse" color-interpolation-filters="sRGB">
<feFlood flood-opacity="0" result="BackgroundImageFix"/>
<feColorMatrix in="SourceAlpha" type="matrix" values="0 0 0 0 0 0 0 0 0 0 0 0 0 0 0 0 0 0 127 0"/>
<feOffset dx="5" dy="-5"/>
<feGaussianBlur stdDeviation="5"/>
<feColorMatrix type="matrix" values="0 0 0 0 0.901961 0 0 0 0 0.901961 0 0 0 0 0.901961 0 0 0 0.2 0"/>
<feBlend mode="normal" in2="BackgroundImageFix" result="effect1_dropShadow"/>
<feColorMatrix in="SourceAlpha" type="matrix" values="0 0 0 0 0 0 0 0 0 0 0 0 0 0 0 0 0 0 127 0"/>
<feOffset dx="-5" dy="5"/>
<feGaussianBlur stdDeviation="5"/>
<feColorMatrix type="matrix" values="0 0 0 0 0.901961 0 0 0 0 0.901961 0 0 0 0 0.901961 0 0 0 0.2 0"/>
<feBlend mode="normal" in2="effect1_dropShadow" result="effect2_dropShadow"/>
<feBlend mode="normal" in="SourceGraphic" in2="effect2_dropShadow" result="shape"/>
<feColorMatrix in="SourceAlpha" type="matrix" values="0 0 0 0 0 0 0 0 0 0 0 0 0 0 0 0 0 0 127 0" result="hardAlpha"/>
<feOffset dx="-1" dy="-1"/>
<feGaussianBlur stdDeviation="1"/>
<feComposite in2="hardAlpha" operator="arithmetic" k2="-1" k3="1"/>
<feColorMatrix type="matrix" values="0 0 0 0 0.901961 0 0 0 0 0.901961 0 0 0 0 0.901961 0 0 0 0.5 0"/>
<feBlend mode="normal" in2="shape" result="effect3_innerShadow"/>
<feColorMatrix in="SourceAlpha" type="matrix" values="0 0 0 0 0 0 0 0 0 0 0 0 0 0 0 0 0 0 127 0" result="hardAlpha"/>
<feOffset dx="1" dy="1"/>
<feGaussianBlur stdDeviation="1"/>
<feComposite in2="hardAlpha" operator="arithmetic" k2="-1" k3="1"/>
<feColorMatrix type="matrix" values="0 0 0 0 1 0 0 0 0 1 0 0 0 0 1 0 0 0 0.3 0"/>
<feBlend mode="normal" in2="effect3_innerShadow" result="effect4_innerShadow"/>
</filter>
</defs>
</svg>
