<svg width="325" height="222" viewBox="0 0 325 222" fill="none" xmlns="http://www.w3.org/2000/svg">
<g filter="url(#filter0_ddii)">
<rect x="15" y="15" width="295" height="192" rx="10" fill="white"/>
</g>
<path d="M29.714 88.978C30.8993 88.026 31.828 87.2467 32.5 86.64C33.172 86.024 33.7367 85.3847 34.194 84.722C34.6607 84.05 34.894 83.392 34.894 82.748C34.894 82.1413 34.7447 81.6653 34.446 81.32C34.1567 80.9653 33.6853 80.788 33.032 80.788C32.3973 80.788 31.9027 80.9887 31.548 81.39C31.2027 81.782 31.016 82.3093 30.988 82.972H29.756C29.7933 81.9267 30.1107 81.1193 30.708 80.55C31.3053 79.9807 32.0753 79.696 33.018 79.696C33.9793 79.696 34.74 79.962 35.3 80.494C35.8693 81.026 36.154 81.7587 36.154 82.692C36.154 83.4667 35.9207 84.2227 35.454 84.96C34.9967 85.688 34.474 86.332 33.886 86.892C33.298 87.4427 32.5467 88.0867 31.632 88.824H36.448V89.888H29.714V88.978ZM37.9207 84.834C37.9207 83.2287 38.1821 81.978 38.7047 81.082C39.2274 80.1767 40.1421 79.724 41.4487 79.724C42.7461 79.724 43.6561 80.1767 44.1787 81.082C44.7014 81.978 44.9627 83.2287 44.9627 84.834C44.9627 86.4673 44.7014 87.7367 44.1787 88.642C43.6561 89.5473 42.7461 90 41.4487 90C40.1421 90 39.2274 89.5473 38.7047 88.642C38.1821 87.7367 37.9207 86.4673 37.9207 84.834ZM43.7027 84.834C43.7027 84.022 43.6467 83.336 43.5347 82.776C43.4321 82.2067 43.2127 81.7493 42.8767 81.404C42.5501 81.0587 42.0741 80.886 41.4487 80.886C40.8141 80.886 40.3287 81.0587 39.9927 81.404C39.6661 81.7493 39.4467 82.2067 39.3347 82.776C39.2321 83.336 39.1807 84.022 39.1807 84.834C39.1807 85.674 39.2321 86.3787 39.3347 86.948C39.4467 87.5173 39.6661 87.9747 39.9927 88.32C40.3287 88.6653 40.8141 88.838 41.4487 88.838C42.0741 88.838 42.5501 88.6653 42.8767 88.32C43.2127 87.9747 43.4321 87.5173 43.5347 86.948C43.6467 86.3787 43.7027 85.674 43.7027 84.834ZM46.7118 84.834C46.7118 83.2287 46.9731 81.978 47.4958 81.082C48.0184 80.1767 48.9331 79.724 50.2398 79.724C51.5371 79.724 52.4471 80.1767 52.9698 81.082C53.4924 81.978 53.7537 83.2287 53.7537 84.834C53.7537 86.4673 53.4924 87.7367 52.9698 88.642C52.4471 89.5473 51.5371 90 50.2398 90C48.9331 90 48.0184 89.5473 47.4958 88.642C46.9731 87.7367 46.7118 86.4673 46.7118 84.834ZM52.4938 84.834C52.4938 84.022 52.4378 83.336 52.3258 82.776C52.2231 82.2067 52.0038 81.7493 51.6678 81.404C51.3411 81.0587 50.8651 80.886 50.2398 80.886C49.6051 80.886 49.1198 81.0587 48.7838 81.404C48.4571 81.7493 48.2378 82.2067 48.1258 82.776C48.0231 83.336 47.9718 84.022 47.9718 84.834C47.9718 85.674 48.0231 86.3787 48.1258 86.948C48.2378 87.5173 48.4571 87.9747 48.7838 88.32C49.1198 88.6653 49.6051 88.838 50.2398 88.838C50.8651 88.838 51.3411 88.6653 51.6678 88.32C52.0038 87.9747 52.2231 87.5173 52.3258 86.948C52.4378 86.3787 52.4938 85.674 52.4938 84.834ZM55.5028 84.834C55.5028 83.2287 55.7641 81.978 56.2868 81.082C56.8094 80.1767 57.7241 79.724 59.0308 79.724C60.3281 79.724 61.2381 80.1767 61.7608 81.082C62.2834 81.978 62.5448 83.2287 62.5448 84.834C62.5448 86.4673 62.2834 87.7367 61.7608 88.642C61.2381 89.5473 60.3281 90 59.0308 90C57.7241 90 56.8094 89.5473 56.2868 88.642C55.7641 87.7367 55.5028 86.4673 55.5028 84.834ZM61.2848 84.834C61.2848 84.022 61.2288 83.336 61.1168 82.776C61.0141 82.2067 60.7948 81.7493 60.4588 81.404C60.1321 81.0587 59.6561 80.886 59.0308 80.886C58.3961 80.886 57.9108 81.0587 57.5748 81.404C57.2481 81.7493 57.0288 82.2067 56.9168 82.776C56.8141 83.336 56.7628 84.022 56.7628 84.834C56.7628 85.674 56.8141 86.3787 56.9168 86.948C57.0288 87.5173 57.2481 87.9747 57.5748 88.32C57.9108 88.6653 58.3961 88.838 59.0308 88.838C59.6561 88.838 60.1321 88.6653 60.4588 88.32C60.7948 87.9747 61.0141 87.5173 61.1168 86.948C61.2288 86.3787 61.2848 85.674 61.2848 84.834Z" fill="#444444"/>
<path d="M29.714 122.978C30.8993 122.026 31.828 121.247 32.5 120.64C33.172 120.024 33.7367 119.385 34.194 118.722C34.6607 118.05 34.894 117.392 34.894 116.748C34.894 116.141 34.7447 115.665 34.446 115.32C34.1567 114.965 33.6853 114.788 33.032 114.788C32.3973 114.788 31.9027 114.989 31.548 115.39C31.2027 115.782 31.016 116.309 30.988 116.972H29.756C29.7933 115.927 30.1107 115.119 30.708 114.55C31.3053 113.981 32.0753 113.696 33.018 113.696C33.9793 113.696 34.74 113.962 35.3 114.494C35.8693 115.026 36.154 115.759 36.154 116.692C36.154 117.467 35.9207 118.223 35.454 118.96C34.9967 119.688 34.474 120.332 33.886 120.892C33.298 121.443 32.5467 122.087 31.632 122.824H36.448V123.888H29.714V122.978ZM37.9207 118.834C37.9207 117.229 38.1821 115.978 38.7047 115.082C39.2274 114.177 40.1421 113.724 41.4487 113.724C42.7461 113.724 43.6561 114.177 44.1787 115.082C44.7014 115.978 44.9627 117.229 44.9627 118.834C44.9627 120.467 44.7014 121.737 44.1787 122.642C43.6561 123.547 42.7461 124 41.4487 124C40.1421 124 39.2274 123.547 38.7047 122.642C38.1821 121.737 37.9207 120.467 37.9207 118.834ZM43.7027 118.834C43.7027 118.022 43.6467 117.336 43.5347 116.776C43.4321 116.207 43.2127 115.749 42.8767 115.404C42.5501 115.059 42.0741 114.886 41.4487 114.886C40.8141 114.886 40.3287 115.059 39.9927 115.404C39.6661 115.749 39.4467 116.207 39.3347 116.776C39.2321 117.336 39.1807 118.022 39.1807 118.834C39.1807 119.674 39.2321 120.379 39.3347 120.948C39.4467 121.517 39.6661 121.975 39.9927 122.32C40.3287 122.665 40.8141 122.838 41.4487 122.838C42.0741 122.838 42.5501 122.665 42.8767 122.32C43.2127 121.975 43.4321 121.517 43.5347 120.948C43.6467 120.379 43.7027 119.674 43.7027 118.834ZM46.7118 118.834C46.7118 117.229 46.9731 115.978 47.4958 115.082C48.0184 114.177 48.9331 113.724 50.2398 113.724C51.5371 113.724 52.4471 114.177 52.9698 115.082C53.4924 115.978 53.7537 117.229 53.7537 118.834C53.7537 120.467 53.4924 121.737 52.9698 122.642C52.4471 123.547 51.5371 124 50.2398 124C48.9331 124 48.0184 123.547 47.4958 122.642C46.9731 121.737 46.7118 120.467 46.7118 118.834ZM52.4938 118.834C52.4938 118.022 52.4378 117.336 52.3258 116.776C52.2231 116.207 52.0038 115.749 51.6678 115.404C51.3411 115.059 50.8651 114.886 50.2398 114.886C49.6051 114.886 49.1198 115.059 48.7838 115.404C48.4571 115.749 48.2378 116.207 48.1258 116.776C48.0231 117.336 47.9718 118.022 47.9718 118.834C47.9718 119.674 48.0231 120.379 48.1258 120.948C48.2378 121.517 48.4571 121.975 48.7838 122.32C49.1198 122.665 49.6051 122.838 50.2398 122.838C50.8651 122.838 51.3411 122.665 51.6678 122.32C52.0038 121.975 52.2231 121.517 52.3258 120.948C52.4378 120.379 52.4938 119.674 52.4938 118.834ZM61.9568 114.984H57.0428V118.176C57.2574 117.877 57.5748 117.635 57.9948 117.448C58.4148 117.252 58.8674 117.154 59.3528 117.154C60.1274 117.154 60.7574 117.317 61.2428 117.644C61.7281 117.961 62.0734 118.377 62.2788 118.89C62.4934 119.394 62.6008 119.931 62.6008 120.5C62.6008 121.172 62.4748 121.774 62.2228 122.306C61.9708 122.838 61.5834 123.258 61.0608 123.566C60.5474 123.874 59.9081 124.028 59.1428 124.028C58.1628 124.028 57.3694 123.776 56.7628 123.272C56.1561 122.768 55.7874 122.096 55.6568 121.256H56.9028C57.0241 121.788 57.2808 122.203 57.6728 122.502C58.0648 122.801 58.5594 122.95 59.1568 122.95C59.8941 122.95 60.4494 122.731 60.8228 122.292C61.1961 121.844 61.3828 121.256 61.3828 120.528C61.3828 119.8 61.1961 119.24 60.8228 118.848C60.4494 118.447 59.8988 118.246 59.1708 118.246C58.6761 118.246 58.2421 118.367 57.8688 118.61C57.5048 118.843 57.2388 119.165 57.0708 119.576H55.8668V113.864H61.9568V114.984Z" fill="#444444"/>
<path d="M29.714 156.978C30.8993 156.026 31.828 155.247 32.5 154.64C33.172 154.024 33.7367 153.385 34.194 152.722C34.6607 152.05 34.894 151.392 34.894 150.748C34.894 150.141 34.7447 149.665 34.446 149.32C34.1567 148.965 33.6853 148.788 33.032 148.788C32.3973 148.788 31.9027 148.989 31.548 149.39C31.2027 149.782 31.016 150.309 30.988 150.972H29.756C29.7933 149.927 30.1107 149.119 30.708 148.55C31.3053 147.981 32.0753 147.696 33.018 147.696C33.9793 147.696 34.74 147.962 35.3 148.494C35.8693 149.026 36.154 149.759 36.154 150.692C36.154 151.467 35.9207 152.223 35.454 152.96C34.9967 153.688 34.474 154.332 33.886 154.892C33.298 155.443 32.5467 156.087 31.632 156.824H36.448V157.888H29.714V156.978ZM37.9207 152.834C37.9207 151.229 38.1821 149.978 38.7047 149.082C39.2274 148.177 40.1421 147.724 41.4487 147.724C42.7461 147.724 43.6561 148.177 44.1787 149.082C44.7014 149.978 44.9627 151.229 44.9627 152.834C44.9627 154.467 44.7014 155.737 44.1787 156.642C43.6561 157.547 42.7461 158 41.4487 158C40.1421 158 39.2274 157.547 38.7047 156.642C38.1821 155.737 37.9207 154.467 37.9207 152.834ZM43.7027 152.834C43.7027 152.022 43.6467 151.336 43.5347 150.776C43.4321 150.207 43.2127 149.749 42.8767 149.404C42.5501 149.059 42.0741 148.886 41.4487 148.886C40.8141 148.886 40.3287 149.059 39.9927 149.404C39.6661 149.749 39.4467 150.207 39.3347 150.776C39.2321 151.336 39.1807 152.022 39.1807 152.834C39.1807 153.674 39.2321 154.379 39.3347 154.948C39.4467 155.517 39.6661 155.975 39.9927 156.32C40.3287 156.665 40.8141 156.838 41.4487 156.838C42.0741 156.838 42.5501 156.665 42.8767 156.32C43.2127 155.975 43.4321 155.517 43.5347 154.948C43.6467 154.379 43.7027 153.674 43.7027 152.834ZM46.3758 149.04V147.878H49.0078V158H47.7198V149.04H46.3758ZM51.1961 152.834C51.1961 151.229 51.4575 149.978 51.9801 149.082C52.5028 148.177 53.4175 147.724 54.7241 147.724C56.0215 147.724 56.9315 148.177 57.4541 149.082C57.9768 149.978 58.2381 151.229 58.2381 152.834C58.2381 154.467 57.9768 155.737 57.4541 156.642C56.9315 157.547 56.0215 158 54.7241 158C53.4175 158 52.5028 157.547 51.9801 156.642C51.4575 155.737 51.1961 154.467 51.1961 152.834ZM56.9781 152.834C56.9781 152.022 56.9221 151.336 56.8101 150.776C56.7075 150.207 56.4881 149.749 56.1521 149.404C55.8255 149.059 55.3495 148.886 54.7241 148.886C54.0895 148.886 53.6041 149.059 53.2681 149.404C52.9415 149.749 52.7221 150.207 52.6101 150.776C52.5075 151.336 52.4561 152.022 52.4561 152.834C52.4561 153.674 52.5075 154.379 52.6101 154.948C52.7221 155.517 52.9415 155.975 53.2681 156.32C53.6041 156.665 54.0895 156.838 54.7241 156.838C55.3495 156.838 55.8255 156.665 56.1521 156.32C56.4881 155.975 56.7075 155.517 56.8101 154.948C56.9221 154.379 56.9781 153.674 56.9781 152.834Z" fill="#444444"/>
<path d="M29.714 190.978C30.8993 190.026 31.828 189.247 32.5 188.64C33.172 188.024 33.7367 187.385 34.194 186.722C34.6607 186.05 34.894 185.392 34.894 184.748C34.894 184.141 34.7447 183.665 34.446 183.32C34.1567 182.965 33.6853 182.788 33.032 182.788C32.3973 182.788 31.9027 182.989 31.548 183.39C31.2027 183.782 31.016 184.309 30.988 184.972H29.756C29.7933 183.927 30.1107 183.119 30.708 182.55C31.3053 181.981 32.0753 181.696 33.018 181.696C33.9793 181.696 34.74 181.962 35.3 182.494C35.8693 183.026 36.154 183.759 36.154 184.692C36.154 185.467 35.9207 186.223 35.454 186.96C34.9967 187.688 34.474 188.332 33.886 188.892C33.298 189.443 32.5467 190.087 31.632 190.824H36.448V191.888H29.714V190.978ZM37.9207 186.834C37.9207 185.229 38.1821 183.978 38.7047 183.082C39.2274 182.177 40.1421 181.724 41.4487 181.724C42.7461 181.724 43.6561 182.177 44.1787 183.082C44.7014 183.978 44.9627 185.229 44.9627 186.834C44.9627 188.467 44.7014 189.737 44.1787 190.642C43.6561 191.547 42.7461 192 41.4487 192C40.1421 192 39.2274 191.547 38.7047 190.642C38.1821 189.737 37.9207 188.467 37.9207 186.834ZM43.7027 186.834C43.7027 186.022 43.6467 185.336 43.5347 184.776C43.4321 184.207 43.2127 183.749 42.8767 183.404C42.5501 183.059 42.0741 182.886 41.4487 182.886C40.8141 182.886 40.3287 183.059 39.9927 183.404C39.6661 183.749 39.4467 184.207 39.3347 184.776C39.2321 185.336 39.1807 186.022 39.1807 186.834C39.1807 187.674 39.2321 188.379 39.3347 188.948C39.4467 189.517 39.6661 189.975 39.9927 190.32C40.3287 190.665 40.8141 190.838 41.4487 190.838C42.0741 190.838 42.5501 190.665 42.8767 190.32C43.2127 189.975 43.4321 189.517 43.5347 188.948C43.6467 188.379 43.7027 187.674 43.7027 186.834ZM46.3758 183.04V181.878H49.0078V192H47.7198V183.04H46.3758ZM57.6501 182.984H52.7361V186.176C52.9508 185.877 53.2681 185.635 53.6881 185.448C54.1081 185.252 54.5608 185.154 55.0461 185.154C55.8208 185.154 56.4508 185.317 56.9361 185.644C57.4215 185.961 57.7668 186.377 57.9721 186.89C58.1868 187.394 58.2941 187.931 58.2941 188.5C58.2941 189.172 58.1681 189.774 57.9161 190.306C57.6641 190.838 57.2768 191.258 56.7541 191.566C56.2408 191.874 55.6015 192.028 54.8361 192.028C53.8561 192.028 53.0628 191.776 52.4561 191.272C51.8495 190.768 51.4808 190.096 51.3501 189.256H52.5961C52.7175 189.788 52.9741 190.203 53.3661 190.502C53.7581 190.801 54.2528 190.95 54.8501 190.95C55.5875 190.95 56.1428 190.731 56.5161 190.292C56.8895 189.844 57.0761 189.256 57.0761 188.528C57.0761 187.8 56.8895 187.24 56.5161 186.848C56.1428 186.447 55.5921 186.246 54.8641 186.246C54.3695 186.246 53.9355 186.367 53.5621 186.61C53.1981 186.843 52.9321 187.165 52.7641 187.576H51.5601V181.864H57.6501V182.984Z" fill="#444444"/>
<path d="M92.714 88.978C93.8993 88.026 94.828 87.2467 95.5 86.64C96.172 86.024 96.7367 85.3847 97.194 84.722C97.6607 84.05 97.894 83.392 97.894 82.748C97.894 82.1413 97.7447 81.6653 97.446 81.32C97.1567 80.9653 96.6853 80.788 96.032 80.788C95.3973 80.788 94.9027 80.9887 94.548 81.39C94.2027 81.782 94.016 82.3093 93.988 82.972H92.756C92.7933 81.9267 93.1107 81.1193 93.708 80.55C94.3053 79.9807 95.0753 79.696 96.018 79.696C96.9793 79.696 97.74 79.962 98.3 80.494C98.8693 81.026 99.154 81.7587 99.154 82.692C99.154 83.4667 98.9207 84.2227 98.454 84.96C97.9967 85.688 97.474 86.332 96.886 86.892C96.298 87.4427 95.5467 88.0867 94.632 88.824H99.448V89.888H92.714V88.978ZM100.921 84.834C100.921 83.2287 101.182 81.978 101.705 81.082C102.227 80.1767 103.142 79.724 104.449 79.724C105.746 79.724 106.656 80.1767 107.179 81.082C107.701 81.978 107.963 83.2287 107.963 84.834C107.963 86.4673 107.701 87.7367 107.179 88.642C106.656 89.5473 105.746 90 104.449 90C103.142 90 102.227 89.5473 101.705 88.642C101.182 87.7367 100.921 86.4673 100.921 84.834ZM106.703 84.834C106.703 84.022 106.647 83.336 106.535 82.776C106.432 82.2067 106.213 81.7493 105.877 81.404C105.55 81.0587 105.074 80.886 104.449 80.886C103.814 80.886 103.329 81.0587 102.993 81.404C102.666 81.7493 102.447 82.2067 102.335 82.776C102.232 83.336 102.181 84.022 102.181 84.834C102.181 85.674 102.232 86.3787 102.335 86.948C102.447 87.5173 102.666 87.9747 102.993 88.32C103.329 88.6653 103.814 88.838 104.449 88.838C105.074 88.838 105.55 88.6653 105.877 88.32C106.213 87.9747 106.432 87.5173 106.535 86.948C106.647 86.3787 106.703 85.674 106.703 84.834ZM109.712 84.834C109.712 83.2287 109.973 81.978 110.496 81.082C111.018 80.1767 111.933 79.724 113.24 79.724C114.537 79.724 115.447 80.1767 115.97 81.082C116.492 81.978 116.754 83.2287 116.754 84.834C116.754 86.4673 116.492 87.7367 115.97 88.642C115.447 89.5473 114.537 90 113.24 90C111.933 90 111.018 89.5473 110.496 88.642C109.973 87.7367 109.712 86.4673 109.712 84.834ZM115.494 84.834C115.494 84.022 115.438 83.336 115.326 82.776C115.223 82.2067 115.004 81.7493 114.668 81.404C114.341 81.0587 113.865 80.886 113.24 80.886C112.605 80.886 112.12 81.0587 111.784 81.404C111.457 81.7493 111.238 82.2067 111.126 82.776C111.023 83.336 110.972 84.022 110.972 84.834C110.972 85.674 111.023 86.3787 111.126 86.948C111.238 87.5173 111.457 87.9747 111.784 88.32C112.12 88.6653 112.605 88.838 113.24 88.838C113.865 88.838 114.341 88.6653 114.668 88.32C115.004 87.9747 115.223 87.5173 115.326 86.948C115.438 86.3787 115.494 85.674 115.494 84.834ZM118.167 81.04V79.878H120.799V90H119.511V81.04H118.167Z" fill="#444444"/>
<path d="M92.714 122.978C93.8993 122.026 94.828 121.247 95.5 120.64C96.172 120.024 96.7367 119.385 97.194 118.722C97.6607 118.05 97.894 117.392 97.894 116.748C97.894 116.141 97.7447 115.665 97.446 115.32C97.1567 114.965 96.6853 114.788 96.032 114.788C95.3973 114.788 94.9027 114.989 94.548 115.39C94.2027 115.782 94.016 116.309 93.988 116.972H92.756C92.7933 115.927 93.1107 115.119 93.708 114.55C94.3053 113.981 95.0753 113.696 96.018 113.696C96.9793 113.696 97.74 113.962 98.3 114.494C98.8693 115.026 99.154 115.759 99.154 116.692C99.154 117.467 98.9207 118.223 98.454 118.96C97.9967 119.688 97.474 120.332 96.886 120.892C96.298 121.443 95.5467 122.087 94.632 122.824H99.448V123.888H92.714V122.978ZM100.921 118.834C100.921 117.229 101.182 115.978 101.705 115.082C102.227 114.177 103.142 113.724 104.449 113.724C105.746 113.724 106.656 114.177 107.179 115.082C107.701 115.978 107.963 117.229 107.963 118.834C107.963 120.467 107.701 121.737 107.179 122.642C106.656 123.547 105.746 124 104.449 124C103.142 124 102.227 123.547 101.705 122.642C101.182 121.737 100.921 120.467 100.921 118.834ZM106.703 118.834C106.703 118.022 106.647 117.336 106.535 116.776C106.432 116.207 106.213 115.749 105.877 115.404C105.55 115.059 105.074 114.886 104.449 114.886C103.814 114.886 103.329 115.059 102.993 115.404C102.666 115.749 102.447 116.207 102.335 116.776C102.232 117.336 102.181 118.022 102.181 118.834C102.181 119.674 102.232 120.379 102.335 120.948C102.447 121.517 102.666 121.975 102.993 122.32C103.329 122.665 103.814 122.838 104.449 122.838C105.074 122.838 105.55 122.665 105.877 122.32C106.213 121.975 106.432 121.517 106.535 120.948C106.647 120.379 106.703 119.674 106.703 118.834ZM109.712 118.834C109.712 117.229 109.973 115.978 110.496 115.082C111.018 114.177 111.933 113.724 113.24 113.724C114.537 113.724 115.447 114.177 115.97 115.082C116.492 115.978 116.754 117.229 116.754 118.834C116.754 120.467 116.492 121.737 115.97 122.642C115.447 123.547 114.537 124 113.24 124C111.933 124 111.018 123.547 110.496 122.642C109.973 121.737 109.712 120.467 109.712 118.834ZM115.494 118.834C115.494 118.022 115.438 117.336 115.326 116.776C115.223 116.207 115.004 115.749 114.668 115.404C114.341 115.059 113.865 114.886 113.24 114.886C112.605 114.886 112.12 115.059 111.784 115.404C111.457 115.749 111.238 116.207 111.126 116.776C111.023 117.336 110.972 118.022 110.972 118.834C110.972 119.674 111.023 120.379 111.126 120.948C111.238 121.517 111.457 121.975 111.784 122.32C112.12 122.665 112.605 122.838 113.24 122.838C113.865 122.838 114.341 122.665 114.668 122.32C115.004 121.975 115.223 121.517 115.326 120.948C115.438 120.379 115.494 119.674 115.494 118.834ZM124.145 116.286C123.939 115.25 123.3 114.732 122.227 114.732C121.396 114.732 120.775 115.054 120.365 115.698C119.954 116.333 119.753 117.383 119.763 118.848C119.977 118.363 120.332 117.985 120.827 117.714C121.331 117.434 121.891 117.294 122.507 117.294C123.468 117.294 124.233 117.593 124.803 118.19C125.381 118.787 125.671 119.613 125.671 120.668C125.671 121.303 125.545 121.872 125.293 122.376C125.05 122.88 124.677 123.281 124.173 123.58C123.678 123.879 123.076 124.028 122.367 124.028C121.405 124.028 120.654 123.813 120.113 123.384C119.571 122.955 119.193 122.362 118.979 121.606C118.764 120.85 118.657 119.917 118.657 118.806C118.657 115.381 119.851 113.668 122.241 113.668C123.155 113.668 123.874 113.915 124.397 114.41C124.919 114.905 125.227 115.53 125.321 116.286H124.145ZM122.241 118.372C121.839 118.372 121.461 118.456 121.107 118.624C120.752 118.783 120.463 119.03 120.239 119.366C120.024 119.693 119.917 120.094 119.917 120.57C119.917 121.279 120.122 121.858 120.533 122.306C120.943 122.745 121.531 122.964 122.297 122.964C122.95 122.964 123.468 122.763 123.851 122.362C124.243 121.951 124.439 121.401 124.439 120.71C124.439 119.982 124.252 119.413 123.879 119.002C123.505 118.582 122.959 118.372 122.241 118.372Z" fill="#444444"/>
<path d="M92.714 156.978C93.8993 156.026 94.828 155.247 95.5 154.64C96.172 154.024 96.7367 153.385 97.194 152.722C97.6607 152.05 97.894 151.392 97.894 150.748C97.894 150.141 97.7447 149.665 97.446 149.32C97.1567 148.965 96.6853 148.788 96.032 148.788C95.3973 148.788 94.9027 148.989 94.548 149.39C94.2027 149.782 94.016 150.309 93.988 150.972H92.756C92.7933 149.927 93.1107 149.119 93.708 148.55C94.3053 147.981 95.0753 147.696 96.018 147.696C96.9793 147.696 97.74 147.962 98.3 148.494C98.8693 149.026 99.154 149.759 99.154 150.692C99.154 151.467 98.9207 152.223 98.454 152.96C97.9967 153.688 97.474 154.332 96.886 154.892C96.298 155.443 95.5467 156.087 94.632 156.824H99.448V157.888H92.714V156.978ZM100.921 152.834C100.921 151.229 101.182 149.978 101.705 149.082C102.227 148.177 103.142 147.724 104.449 147.724C105.746 147.724 106.656 148.177 107.179 149.082C107.701 149.978 107.963 151.229 107.963 152.834C107.963 154.467 107.701 155.737 107.179 156.642C106.656 157.547 105.746 158 104.449 158C103.142 158 102.227 157.547 101.705 156.642C101.182 155.737 100.921 154.467 100.921 152.834ZM106.703 152.834C106.703 152.022 106.647 151.336 106.535 150.776C106.432 150.207 106.213 149.749 105.877 149.404C105.55 149.059 105.074 148.886 104.449 148.886C103.814 148.886 103.329 149.059 102.993 149.404C102.666 149.749 102.447 150.207 102.335 150.776C102.232 151.336 102.181 152.022 102.181 152.834C102.181 153.674 102.232 154.379 102.335 154.948C102.447 155.517 102.666 155.975 102.993 156.32C103.329 156.665 103.814 156.838 104.449 156.838C105.074 156.838 105.55 156.665 105.877 156.32C106.213 155.975 106.432 155.517 106.535 154.948C106.647 154.379 106.703 153.674 106.703 152.834ZM109.376 149.04V147.878H112.008V158H110.72V149.04H109.376ZM113.86 149.04V147.878H116.492V158H115.204V149.04H113.86Z" fill="#444444"/>
<path d="M92.714 190.978C93.8993 190.026 94.828 189.247 95.5 188.64C96.172 188.024 96.7367 187.385 97.194 186.722C97.6607 186.05 97.894 185.392 97.894 184.748C97.894 184.141 97.7447 183.665 97.446 183.32C97.1567 182.965 96.6853 182.788 96.032 182.788C95.3973 182.788 94.9027 182.989 94.548 183.39C94.2027 183.782 94.016 184.309 93.988 184.972H92.756C92.7933 183.927 93.1107 183.119 93.708 182.55C94.3053 181.981 95.0753 181.696 96.018 181.696C96.9793 181.696 97.74 181.962 98.3 182.494C98.8693 183.026 99.154 183.759 99.154 184.692C99.154 185.467 98.9207 186.223 98.454 186.96C97.9967 187.688 97.474 188.332 96.886 188.892C96.298 189.443 95.5467 190.087 94.632 190.824H99.448V191.888H92.714V190.978ZM100.921 186.834C100.921 185.229 101.182 183.978 101.705 183.082C102.227 182.177 103.142 181.724 104.449 181.724C105.746 181.724 106.656 182.177 107.179 183.082C107.701 183.978 107.963 185.229 107.963 186.834C107.963 188.467 107.701 189.737 107.179 190.642C106.656 191.547 105.746 192 104.449 192C103.142 192 102.227 191.547 101.705 190.642C101.182 189.737 100.921 188.467 100.921 186.834ZM106.703 186.834C106.703 186.022 106.647 185.336 106.535 184.776C106.432 184.207 106.213 183.749 105.877 183.404C105.55 183.059 105.074 182.886 104.449 182.886C103.814 182.886 103.329 183.059 102.993 183.404C102.666 183.749 102.447 184.207 102.335 184.776C102.232 185.336 102.181 186.022 102.181 186.834C102.181 187.674 102.232 188.379 102.335 188.948C102.447 189.517 102.666 189.975 102.993 190.32C103.329 190.665 103.814 190.838 104.449 190.838C105.074 190.838 105.55 190.665 105.877 190.32C106.213 189.975 106.432 189.517 106.535 188.948C106.647 188.379 106.703 187.674 106.703 186.834ZM109.376 183.04V181.878H112.008V192H110.72V183.04H109.376ZM119.838 184.286C119.633 183.25 118.993 182.732 117.92 182.732C117.089 182.732 116.469 183.054 116.058 183.698C115.647 184.333 115.447 185.383 115.456 186.848C115.671 186.363 116.025 185.985 116.52 185.714C117.024 185.434 117.584 185.294 118.2 185.294C119.161 185.294 119.927 185.593 120.496 186.19C121.075 186.787 121.364 187.613 121.364 188.668C121.364 189.303 121.238 189.872 120.986 190.376C120.743 190.88 120.37 191.281 119.866 191.58C119.371 191.879 118.769 192.028 118.06 192.028C117.099 192.028 116.347 191.813 115.806 191.384C115.265 190.955 114.887 190.362 114.672 189.606C114.457 188.85 114.35 187.917 114.35 186.806C114.35 183.381 115.545 181.668 117.934 181.668C118.849 181.668 119.567 181.915 120.09 182.41C120.613 182.905 120.921 183.53 121.014 184.286H119.838ZM117.934 186.372C117.533 186.372 117.155 186.456 116.8 186.624C116.445 186.783 116.156 187.03 115.932 187.366C115.717 187.693 115.61 188.094 115.61 188.57C115.61 189.279 115.815 189.858 116.226 190.306C116.637 190.745 117.225 190.964 117.99 190.964C118.643 190.964 119.161 190.763 119.544 190.362C119.936 189.951 120.132 189.401 120.132 188.71C120.132 187.982 119.945 187.413 119.572 187.002C119.199 186.582 118.653 186.372 117.934 186.372Z" fill="#444444"/>
<path d="M154.714 88.978C155.899 88.026 156.828 87.2467 157.5 86.64C158.172 86.024 158.737 85.3847 159.194 84.722C159.661 84.05 159.894 83.392 159.894 82.748C159.894 82.1413 159.745 81.6653 159.446 81.32C159.157 80.9653 158.685 80.788 158.032 80.788C157.397 80.788 156.903 80.9887 156.548 81.39C156.203 81.782 156.016 82.3093 155.988 82.972H154.756C154.793 81.9267 155.111 81.1193 155.708 80.55C156.305 79.9807 157.075 79.696 158.018 79.696C158.979 79.696 159.74 79.962 160.3 80.494C160.869 81.026 161.154 81.7587 161.154 82.692C161.154 83.4667 160.921 84.2227 160.454 84.96C159.997 85.688 159.474 86.332 158.886 86.892C158.298 87.4427 157.547 88.0867 156.632 88.824H161.448V89.888H154.714V88.978ZM162.921 84.834C162.921 83.2287 163.182 81.978 163.705 81.082C164.227 80.1767 165.142 79.724 166.449 79.724C167.746 79.724 168.656 80.1767 169.179 81.082C169.701 81.978 169.963 83.2287 169.963 84.834C169.963 86.4673 169.701 87.7367 169.179 88.642C168.656 89.5473 167.746 90 166.449 90C165.142 90 164.227 89.5473 163.705 88.642C163.182 87.7367 162.921 86.4673 162.921 84.834ZM168.703 84.834C168.703 84.022 168.647 83.336 168.535 82.776C168.432 82.2067 168.213 81.7493 167.877 81.404C167.55 81.0587 167.074 80.886 166.449 80.886C165.814 80.886 165.329 81.0587 164.993 81.404C164.666 81.7493 164.447 82.2067 164.335 82.776C164.232 83.336 164.181 84.022 164.181 84.834C164.181 85.674 164.232 86.3787 164.335 86.948C164.447 87.5173 164.666 87.9747 164.993 88.32C165.329 88.6653 165.814 88.838 166.449 88.838C167.074 88.838 167.55 88.6653 167.877 88.32C168.213 87.9747 168.432 87.5173 168.535 86.948C168.647 86.3787 168.703 85.674 168.703 84.834ZM171.712 84.834C171.712 83.2287 171.973 81.978 172.496 81.082C173.018 80.1767 173.933 79.724 175.24 79.724C176.537 79.724 177.447 80.1767 177.97 81.082C178.492 81.978 178.754 83.2287 178.754 84.834C178.754 86.4673 178.492 87.7367 177.97 88.642C177.447 89.5473 176.537 90 175.24 90C173.933 90 173.018 89.5473 172.496 88.642C171.973 87.7367 171.712 86.4673 171.712 84.834ZM177.494 84.834C177.494 84.022 177.438 83.336 177.326 82.776C177.223 82.2067 177.004 81.7493 176.668 81.404C176.341 81.0587 175.865 80.886 175.24 80.886C174.605 80.886 174.12 81.0587 173.784 81.404C173.457 81.7493 173.238 82.2067 173.126 82.776C173.023 83.336 172.972 84.022 172.972 84.834C172.972 85.674 173.023 86.3787 173.126 86.948C173.238 87.5173 173.457 87.9747 173.784 88.32C174.12 88.6653 174.605 88.838 175.24 88.838C175.865 88.838 176.341 88.6653 176.668 88.32C177.004 87.9747 177.223 87.5173 177.326 86.948C177.438 86.3787 177.494 85.674 177.494 84.834ZM180.349 88.978C181.534 88.026 182.463 87.2467 183.135 86.64C183.807 86.024 184.371 85.3847 184.829 84.722C185.295 84.05 185.529 83.392 185.529 82.748C185.529 82.1413 185.379 81.6653 185.081 81.32C184.791 80.9653 184.32 80.788 183.667 80.788C183.032 80.788 182.537 80.9887 182.183 81.39C181.837 81.782 181.651 82.3093 181.623 82.972H180.391C180.428 81.9267 180.745 81.1193 181.343 80.55C181.94 79.9807 182.71 79.696 183.653 79.696C184.614 79.696 185.375 79.962 185.935 80.494C186.504 81.026 186.789 81.7587 186.789 82.692C186.789 83.4667 186.555 84.2227 186.089 84.96C185.631 85.688 185.109 86.332 184.521 86.892C183.933 87.4427 183.181 88.0867 182.267 88.824H187.083V89.888H180.349V88.978Z" fill="#444444"/>
<path d="M154.714 122.978C155.899 122.026 156.828 121.247 157.5 120.64C158.172 120.024 158.737 119.385 159.194 118.722C159.661 118.05 159.894 117.392 159.894 116.748C159.894 116.141 159.745 115.665 159.446 115.32C159.157 114.965 158.685 114.788 158.032 114.788C157.397 114.788 156.903 114.989 156.548 115.39C156.203 115.782 156.016 116.309 155.988 116.972H154.756C154.793 115.927 155.111 115.119 155.708 114.55C156.305 113.981 157.075 113.696 158.018 113.696C158.979 113.696 159.74 113.962 160.3 114.494C160.869 115.026 161.154 115.759 161.154 116.692C161.154 117.467 160.921 118.223 160.454 118.96C159.997 119.688 159.474 120.332 158.886 120.892C158.298 121.443 157.547 122.087 156.632 122.824H161.448V123.888H154.714V122.978ZM162.921 118.834C162.921 117.229 163.182 115.978 163.705 115.082C164.227 114.177 165.142 113.724 166.449 113.724C167.746 113.724 168.656 114.177 169.179 115.082C169.701 115.978 169.963 117.229 169.963 118.834C169.963 120.467 169.701 121.737 169.179 122.642C168.656 123.547 167.746 124 166.449 124C165.142 124 164.227 123.547 163.705 122.642C163.182 121.737 162.921 120.467 162.921 118.834ZM168.703 118.834C168.703 118.022 168.647 117.336 168.535 116.776C168.432 116.207 168.213 115.749 167.877 115.404C167.55 115.059 167.074 114.886 166.449 114.886C165.814 114.886 165.329 115.059 164.993 115.404C164.666 115.749 164.447 116.207 164.335 116.776C164.232 117.336 164.181 118.022 164.181 118.834C164.181 119.674 164.232 120.379 164.335 120.948C164.447 121.517 164.666 121.975 164.993 122.32C165.329 122.665 165.814 122.838 166.449 122.838C167.074 122.838 167.55 122.665 167.877 122.32C168.213 121.975 168.432 121.517 168.535 120.948C168.647 120.379 168.703 119.674 168.703 118.834ZM171.712 118.834C171.712 117.229 171.973 115.978 172.496 115.082C173.018 114.177 173.933 113.724 175.24 113.724C176.537 113.724 177.447 114.177 177.97 115.082C178.492 115.978 178.754 117.229 178.754 118.834C178.754 120.467 178.492 121.737 177.97 122.642C177.447 123.547 176.537 124 175.24 124C173.933 124 173.018 123.547 172.496 122.642C171.973 121.737 171.712 120.467 171.712 118.834ZM177.494 118.834C177.494 118.022 177.438 117.336 177.326 116.776C177.223 116.207 177.004 115.749 176.668 115.404C176.341 115.059 175.865 114.886 175.24 114.886C174.605 114.886 174.12 115.059 173.784 115.404C173.457 115.749 173.238 116.207 173.126 116.776C173.023 117.336 172.972 118.022 172.972 118.834C172.972 119.674 173.023 120.379 173.126 120.948C173.238 121.517 173.457 121.975 173.784 122.32C174.12 122.665 174.605 122.838 175.24 122.838C175.865 122.838 176.341 122.665 176.668 122.32C177.004 121.975 177.223 121.517 177.326 120.948C177.438 120.379 177.494 119.674 177.494 118.834ZM186.733 114.872L182.841 124H181.553L185.501 114.998H180.097V113.906H186.733V114.872Z" fill="#444444"/>
<path d="M154.714 156.978C155.899 156.026 156.828 155.247 157.5 154.64C158.172 154.024 158.737 153.385 159.194 152.722C159.661 152.05 159.894 151.392 159.894 150.748C159.894 150.141 159.745 149.665 159.446 149.32C159.157 148.965 158.685 148.788 158.032 148.788C157.397 148.788 156.903 148.989 156.548 149.39C156.203 149.782 156.016 150.309 155.988 150.972H154.756C154.793 149.927 155.111 149.119 155.708 148.55C156.305 147.981 157.075 147.696 158.018 147.696C158.979 147.696 159.74 147.962 160.3 148.494C160.869 149.026 161.154 149.759 161.154 150.692C161.154 151.467 160.921 152.223 160.454 152.96C159.997 153.688 159.474 154.332 158.886 154.892C158.298 155.443 157.547 156.087 156.632 156.824H161.448V157.888H154.714V156.978ZM162.921 152.834C162.921 151.229 163.182 149.978 163.705 149.082C164.227 148.177 165.142 147.724 166.449 147.724C167.746 147.724 168.656 148.177 169.179 149.082C169.701 149.978 169.963 151.229 169.963 152.834C169.963 154.467 169.701 155.737 169.179 156.642C168.656 157.547 167.746 158 166.449 158C165.142 158 164.227 157.547 163.705 156.642C163.182 155.737 162.921 154.467 162.921 152.834ZM168.703 152.834C168.703 152.022 168.647 151.336 168.535 150.776C168.432 150.207 168.213 149.749 167.877 149.404C167.55 149.059 167.074 148.886 166.449 148.886C165.814 148.886 165.329 149.059 164.993 149.404C164.666 149.749 164.447 150.207 164.335 150.776C164.232 151.336 164.181 152.022 164.181 152.834C164.181 153.674 164.232 154.379 164.335 154.948C164.447 155.517 164.666 155.975 164.993 156.32C165.329 156.665 165.814 156.838 166.449 156.838C167.074 156.838 167.55 156.665 167.877 156.32C168.213 155.975 168.432 155.517 168.535 154.948C168.647 154.379 168.703 153.674 168.703 152.834ZM171.376 149.04V147.878H174.008V158H172.72V149.04H171.376ZM176.042 156.978C177.227 156.026 178.156 155.247 178.828 154.64C179.5 154.024 180.065 153.385 180.522 152.722C180.989 152.05 181.222 151.392 181.222 150.748C181.222 150.141 181.073 149.665 180.774 149.32C180.485 148.965 180.013 148.788 179.36 148.788C178.725 148.788 178.231 148.989 177.876 149.39C177.531 149.782 177.344 150.309 177.316 150.972H176.084C176.121 149.927 176.439 149.119 177.036 148.55C177.633 147.981 178.403 147.696 179.346 147.696C180.307 147.696 181.068 147.962 181.628 148.494C182.197 149.026 182.482 149.759 182.482 150.692C182.482 151.467 182.249 152.223 181.782 152.96C181.325 153.688 180.802 154.332 180.214 154.892C179.626 155.443 178.875 156.087 177.96 156.824H182.776V157.888H176.042V156.978Z" fill="#444444"/>
<path d="M154.714 190.978C155.899 190.026 156.828 189.247 157.5 188.64C158.172 188.024 158.737 187.385 159.194 186.722C159.661 186.05 159.894 185.392 159.894 184.748C159.894 184.141 159.745 183.665 159.446 183.32C159.157 182.965 158.685 182.788 158.032 182.788C157.397 182.788 156.903 182.989 156.548 183.39C156.203 183.782 156.016 184.309 155.988 184.972H154.756C154.793 183.927 155.111 183.119 155.708 182.55C156.305 181.981 157.075 181.696 158.018 181.696C158.979 181.696 159.74 181.962 160.3 182.494C160.869 183.026 161.154 183.759 161.154 184.692C161.154 185.467 160.921 186.223 160.454 186.96C159.997 187.688 159.474 188.332 158.886 188.892C158.298 189.443 157.547 190.087 156.632 190.824H161.448V191.888H154.714V190.978ZM162.921 186.834C162.921 185.229 163.182 183.978 163.705 183.082C164.227 182.177 165.142 181.724 166.449 181.724C167.746 181.724 168.656 182.177 169.179 183.082C169.701 183.978 169.963 185.229 169.963 186.834C169.963 188.467 169.701 189.737 169.179 190.642C168.656 191.547 167.746 192 166.449 192C165.142 192 164.227 191.547 163.705 190.642C163.182 189.737 162.921 188.467 162.921 186.834ZM168.703 186.834C168.703 186.022 168.647 185.336 168.535 184.776C168.432 184.207 168.213 183.749 167.877 183.404C167.55 183.059 167.074 182.886 166.449 182.886C165.814 182.886 165.329 183.059 164.993 183.404C164.666 183.749 164.447 184.207 164.335 184.776C164.232 185.336 164.181 186.022 164.181 186.834C164.181 187.674 164.232 188.379 164.335 188.948C164.447 189.517 164.666 189.975 164.993 190.32C165.329 190.665 165.814 190.838 166.449 190.838C167.074 190.838 167.55 190.665 167.877 190.32C168.213 189.975 168.432 189.517 168.535 188.948C168.647 188.379 168.703 187.674 168.703 186.834ZM171.376 183.04V181.878H174.008V192H172.72V183.04H171.376ZM182.426 182.872L178.534 192H177.246L181.194 182.998H175.79V181.906H182.426V182.872Z" fill="#444444"/>
<path d="M212.714 88.978C213.899 88.026 214.828 87.2467 215.5 86.64C216.172 86.024 216.737 85.3847 217.194 84.722C217.661 84.05 217.894 83.392 217.894 82.748C217.894 82.1413 217.745 81.6653 217.446 81.32C217.157 80.9653 216.685 80.788 216.032 80.788C215.397 80.788 214.903 80.9887 214.548 81.39C214.203 81.782 214.016 82.3093 213.988 82.972H212.756C212.793 81.9267 213.111 81.1193 213.708 80.55C214.305 79.9807 215.075 79.696 216.018 79.696C216.979 79.696 217.74 79.962 218.3 80.494C218.869 81.026 219.154 81.7587 219.154 82.692C219.154 83.4667 218.921 84.2227 218.454 84.96C217.997 85.688 217.474 86.332 216.886 86.892C216.298 87.4427 215.547 88.0867 214.632 88.824H219.448V89.888H212.714V88.978ZM220.921 84.834C220.921 83.2287 221.182 81.978 221.705 81.082C222.227 80.1767 223.142 79.724 224.449 79.724C225.746 79.724 226.656 80.1767 227.179 81.082C227.701 81.978 227.963 83.2287 227.963 84.834C227.963 86.4673 227.701 87.7367 227.179 88.642C226.656 89.5473 225.746 90 224.449 90C223.142 90 222.227 89.5473 221.705 88.642C221.182 87.7367 220.921 86.4673 220.921 84.834ZM226.703 84.834C226.703 84.022 226.647 83.336 226.535 82.776C226.432 82.2067 226.213 81.7493 225.877 81.404C225.55 81.0587 225.074 80.886 224.449 80.886C223.814 80.886 223.329 81.0587 222.993 81.404C222.666 81.7493 222.447 82.2067 222.335 82.776C222.232 83.336 222.181 84.022 222.181 84.834C222.181 85.674 222.232 86.3787 222.335 86.948C222.447 87.5173 222.666 87.9747 222.993 88.32C223.329 88.6653 223.814 88.838 224.449 88.838C225.074 88.838 225.55 88.6653 225.877 88.32C226.213 87.9747 226.432 87.5173 226.535 86.948C226.647 86.3787 226.703 85.674 226.703 84.834ZM229.712 84.834C229.712 83.2287 229.973 81.978 230.496 81.082C231.018 80.1767 231.933 79.724 233.24 79.724C234.537 79.724 235.447 80.1767 235.97 81.082C236.492 81.978 236.754 83.2287 236.754 84.834C236.754 86.4673 236.492 87.7367 235.97 88.642C235.447 89.5473 234.537 90 233.24 90C231.933 90 231.018 89.5473 230.496 88.642C229.973 87.7367 229.712 86.4673 229.712 84.834ZM235.494 84.834C235.494 84.022 235.438 83.336 235.326 82.776C235.223 82.2067 235.004 81.7493 234.668 81.404C234.341 81.0587 233.865 80.886 233.24 80.886C232.605 80.886 232.12 81.0587 231.784 81.404C231.457 81.7493 231.238 82.2067 231.126 82.776C231.023 83.336 230.972 84.022 230.972 84.834C230.972 85.674 231.023 86.3787 231.126 86.948C231.238 87.5173 231.457 87.9747 231.784 88.32C232.12 88.6653 232.605 88.838 233.24 88.838C233.865 88.838 234.341 88.6653 234.668 88.32C235.004 87.9747 235.223 87.5173 235.326 86.948C235.438 86.3787 235.494 85.674 235.494 84.834ZM238.475 82.426C238.54 81.5673 238.871 80.8953 239.469 80.41C240.066 79.9247 240.841 79.682 241.793 79.682C242.427 79.682 242.973 79.7987 243.431 80.032C243.897 80.256 244.247 80.564 244.481 80.956C244.723 81.348 244.845 81.7913 244.845 82.286C244.845 82.8647 244.677 83.364 244.341 83.784C244.014 84.204 243.585 84.4747 243.053 84.596V84.666C243.659 84.8153 244.14 85.1093 244.495 85.548C244.849 85.9867 245.027 86.5607 245.027 87.27C245.027 87.802 244.905 88.2827 244.663 88.712C244.42 89.132 244.056 89.4633 243.571 89.706C243.085 89.9487 242.502 90.07 241.821 90.07C240.831 90.07 240.019 89.8133 239.385 89.3C238.75 88.7773 238.395 88.04 238.321 87.088H239.553C239.618 87.648 239.847 88.1053 240.239 88.46C240.631 88.8147 241.153 88.992 241.807 88.992C242.46 88.992 242.955 88.824 243.291 88.488C243.636 88.1427 243.809 87.6993 243.809 87.158C243.809 86.458 243.575 85.954 243.109 85.646C242.642 85.338 241.937 85.184 240.995 85.184H240.673V84.12H241.009C241.867 84.1107 242.516 83.9707 242.955 83.7C243.393 83.42 243.613 82.9907 243.613 82.412C243.613 81.9173 243.449 81.5207 243.123 81.222C242.805 80.9233 242.348 80.774 241.751 80.774C241.172 80.774 240.705 80.9233 240.351 81.222C239.996 81.5207 239.786 81.922 239.721 82.426H238.475Z" fill="#444444"/>
<path d="M212.714 122.978C213.899 122.026 214.828 121.247 215.5 120.64C216.172 120.024 216.737 119.385 217.194 118.722C217.661 118.05 217.894 117.392 217.894 116.748C217.894 116.141 217.745 115.665 217.446 115.32C217.157 114.965 216.685 114.788 216.032 114.788C215.397 114.788 214.903 114.989 214.548 115.39C214.203 115.782 214.016 116.309 213.988 116.972H212.756C212.793 115.927 213.111 115.119 213.708 114.55C214.305 113.981 215.075 113.696 216.018 113.696C216.979 113.696 217.74 113.962 218.3 114.494C218.869 115.026 219.154 115.759 219.154 116.692C219.154 117.467 218.921 118.223 218.454 118.96C217.997 119.688 217.474 120.332 216.886 120.892C216.298 121.443 215.547 122.087 214.632 122.824H219.448V123.888H212.714V122.978ZM220.921 118.834C220.921 117.229 221.182 115.978 221.705 115.082C222.227 114.177 223.142 113.724 224.449 113.724C225.746 113.724 226.656 114.177 227.179 115.082C227.701 115.978 227.963 117.229 227.963 118.834C227.963 120.467 227.701 121.737 227.179 122.642C226.656 123.547 225.746 124 224.449 124C223.142 124 222.227 123.547 221.705 122.642C221.182 121.737 220.921 120.467 220.921 118.834ZM226.703 118.834C226.703 118.022 226.647 117.336 226.535 116.776C226.432 116.207 226.213 115.749 225.877 115.404C225.55 115.059 225.074 114.886 224.449 114.886C223.814 114.886 223.329 115.059 222.993 115.404C222.666 115.749 222.447 116.207 222.335 116.776C222.232 117.336 222.181 118.022 222.181 118.834C222.181 119.674 222.232 120.379 222.335 120.948C222.447 121.517 222.666 121.975 222.993 122.32C223.329 122.665 223.814 122.838 224.449 122.838C225.074 122.838 225.55 122.665 225.877 122.32C226.213 121.975 226.432 121.517 226.535 120.948C226.647 120.379 226.703 119.674 226.703 118.834ZM229.712 118.834C229.712 117.229 229.973 115.978 230.496 115.082C231.018 114.177 231.933 113.724 233.24 113.724C234.537 113.724 235.447 114.177 235.97 115.082C236.492 115.978 236.754 117.229 236.754 118.834C236.754 120.467 236.492 121.737 235.97 122.642C235.447 123.547 234.537 124 233.24 124C231.933 124 231.018 123.547 230.496 122.642C229.973 121.737 229.712 120.467 229.712 118.834ZM235.494 118.834C235.494 118.022 235.438 117.336 235.326 116.776C235.223 116.207 235.004 115.749 234.668 115.404C234.341 115.059 233.865 114.886 233.24 114.886C232.605 114.886 232.12 115.059 231.784 115.404C231.457 115.749 231.238 116.207 231.126 116.776C231.023 117.336 230.972 118.022 230.972 118.834C230.972 119.674 231.023 120.379 231.126 120.948C231.238 121.517 231.457 121.975 231.784 122.32C232.12 122.665 232.605 122.838 233.24 122.838C233.865 122.838 234.341 122.665 234.668 122.32C235.004 121.975 235.223 121.517 235.326 120.948C235.438 120.379 235.494 119.674 235.494 118.834ZM240.351 118.736C239.828 118.531 239.427 118.232 239.147 117.84C238.867 117.448 238.727 116.972 238.727 116.412C238.727 115.908 238.853 115.455 239.105 115.054C239.357 114.643 239.73 114.321 240.225 114.088C240.729 113.845 241.335 113.724 242.045 113.724C242.754 113.724 243.356 113.845 243.851 114.088C244.355 114.321 244.733 114.643 244.985 115.054C245.246 115.455 245.377 115.908 245.377 116.412C245.377 116.953 245.232 117.429 244.943 117.84C244.653 118.241 244.257 118.54 243.753 118.736C244.331 118.913 244.789 119.226 245.125 119.674C245.47 120.113 245.643 120.645 245.643 121.27C245.643 121.877 245.493 122.409 245.195 122.866C244.896 123.314 244.471 123.664 243.921 123.916C243.379 124.159 242.754 124.28 242.045 124.28C241.335 124.28 240.71 124.159 240.169 123.916C239.637 123.664 239.221 123.314 238.923 122.866C238.624 122.409 238.475 121.877 238.475 121.27C238.475 120.645 238.643 120.108 238.979 119.66C239.315 119.212 239.772 118.904 240.351 118.736ZM244.145 116.566C244.145 115.997 243.958 115.558 243.585 115.25C243.211 114.942 242.698 114.788 242.045 114.788C241.401 114.788 240.892 114.942 240.519 115.25C240.145 115.558 239.959 116.001 239.959 116.58C239.959 117.103 240.15 117.523 240.533 117.84C240.925 118.157 241.429 118.316 242.045 118.316C242.67 118.316 243.174 118.157 243.557 117.84C243.949 117.513 244.145 117.089 244.145 116.566ZM242.045 119.296C241.354 119.296 240.789 119.459 240.351 119.786C239.912 120.103 239.693 120.584 239.693 121.228C239.693 121.825 239.903 122.306 240.323 122.67C240.752 123.034 241.326 123.216 242.045 123.216C242.763 123.216 243.333 123.034 243.753 122.67C244.173 122.306 244.383 121.825 244.383 121.228C244.383 120.603 244.168 120.127 243.739 119.8C243.309 119.464 242.745 119.296 242.045 119.296Z" fill="#444444"/>
<path d="M212.714 156.978C213.899 156.026 214.828 155.247 215.5 154.64C216.172 154.024 216.737 153.385 217.194 152.722C217.661 152.05 217.894 151.392 217.894 150.748C217.894 150.141 217.745 149.665 217.446 149.32C217.157 148.965 216.685 148.788 216.032 148.788C215.397 148.788 214.903 148.989 214.548 149.39C214.203 149.782 214.016 150.309 213.988 150.972H212.756C212.793 149.927 213.111 149.119 213.708 148.55C214.305 147.981 215.075 147.696 216.018 147.696C216.979 147.696 217.74 147.962 218.3 148.494C218.869 149.026 219.154 149.759 219.154 150.692C219.154 151.467 218.921 152.223 218.454 152.96C217.997 153.688 217.474 154.332 216.886 154.892C216.298 155.443 215.547 156.087 214.632 156.824H219.448V157.888H212.714V156.978ZM220.921 152.834C220.921 151.229 221.182 149.978 221.705 149.082C222.227 148.177 223.142 147.724 224.449 147.724C225.746 147.724 226.656 148.177 227.179 149.082C227.701 149.978 227.963 151.229 227.963 152.834C227.963 154.467 227.701 155.737 227.179 156.642C226.656 157.547 225.746 158 224.449 158C223.142 158 222.227 157.547 221.705 156.642C221.182 155.737 220.921 154.467 220.921 152.834ZM226.703 152.834C226.703 152.022 226.647 151.336 226.535 150.776C226.432 150.207 226.213 149.749 225.877 149.404C225.55 149.059 225.074 148.886 224.449 148.886C223.814 148.886 223.329 149.059 222.993 149.404C222.666 149.749 222.447 150.207 222.335 150.776C222.232 151.336 222.181 152.022 222.181 152.834C222.181 153.674 222.232 154.379 222.335 154.948C222.447 155.517 222.666 155.975 222.993 156.32C223.329 156.665 223.814 156.838 224.449 156.838C225.074 156.838 225.55 156.665 225.877 156.32C226.213 155.975 226.432 155.517 226.535 154.948C226.647 154.379 226.703 153.674 226.703 152.834ZM229.376 149.04V147.878H232.008V158H230.72V149.04H229.376ZM234.168 150.426C234.233 149.567 234.565 148.895 235.162 148.41C235.759 147.925 236.534 147.682 237.486 147.682C238.121 147.682 238.667 147.799 239.124 148.032C239.591 148.256 239.941 148.564 240.174 148.956C240.417 149.348 240.538 149.791 240.538 150.286C240.538 150.865 240.37 151.364 240.034 151.784C239.707 152.204 239.278 152.475 238.746 152.596V152.666C239.353 152.815 239.833 153.109 240.188 153.548C240.543 153.987 240.72 154.561 240.72 155.27C240.72 155.802 240.599 156.283 240.356 156.712C240.113 157.132 239.749 157.463 239.264 157.706C238.779 157.949 238.195 158.07 237.514 158.07C236.525 158.07 235.713 157.813 235.078 157.3C234.443 156.777 234.089 156.04 234.014 155.088H235.246C235.311 155.648 235.54 156.105 235.932 156.46C236.324 156.815 236.847 156.992 237.5 156.992C238.153 156.992 238.648 156.824 238.984 156.488C239.329 156.143 239.502 155.699 239.502 155.158C239.502 154.458 239.269 153.954 238.802 153.646C238.335 153.338 237.631 153.184 236.688 153.184H236.366V152.12H236.702C237.561 152.111 238.209 151.971 238.648 151.7C239.087 151.42 239.306 150.991 239.306 150.412C239.306 149.917 239.143 149.521 238.816 149.222C238.499 148.923 238.041 148.774 237.444 148.774C236.865 148.774 236.399 148.923 236.044 149.222C235.689 149.521 235.479 149.922 235.414 150.426H234.168Z" fill="#444444"/>
<path d="M212.714 190.978C213.899 190.026 214.828 189.247 215.5 188.64C216.172 188.024 216.737 187.385 217.194 186.722C217.661 186.05 217.894 185.392 217.894 184.748C217.894 184.141 217.745 183.665 217.446 183.32C217.157 182.965 216.685 182.788 216.032 182.788C215.397 182.788 214.903 182.989 214.548 183.39C214.203 183.782 214.016 184.309 213.988 184.972H212.756C212.793 183.927 213.111 183.119 213.708 182.55C214.305 181.981 215.075 181.696 216.018 181.696C216.979 181.696 217.74 181.962 218.3 182.494C218.869 183.026 219.154 183.759 219.154 184.692C219.154 185.467 218.921 186.223 218.454 186.96C217.997 187.688 217.474 188.332 216.886 188.892C216.298 189.443 215.547 190.087 214.632 190.824H219.448V191.888H212.714V190.978ZM220.921 186.834C220.921 185.229 221.182 183.978 221.705 183.082C222.227 182.177 223.142 181.724 224.449 181.724C225.746 181.724 226.656 182.177 227.179 183.082C227.701 183.978 227.963 185.229 227.963 186.834C227.963 188.467 227.701 189.737 227.179 190.642C226.656 191.547 225.746 192 224.449 192C223.142 192 222.227 191.547 221.705 190.642C221.182 189.737 220.921 188.467 220.921 186.834ZM226.703 186.834C226.703 186.022 226.647 185.336 226.535 184.776C226.432 184.207 226.213 183.749 225.877 183.404C225.55 183.059 225.074 182.886 224.449 182.886C223.814 182.886 223.329 183.059 222.993 183.404C222.666 183.749 222.447 184.207 222.335 184.776C222.232 185.336 222.181 186.022 222.181 186.834C222.181 187.674 222.232 188.379 222.335 188.948C222.447 189.517 222.666 189.975 222.993 190.32C223.329 190.665 223.814 190.838 224.449 190.838C225.074 190.838 225.55 190.665 225.877 190.32C226.213 189.975 226.432 189.517 226.535 188.948C226.647 188.379 226.703 187.674 226.703 186.834ZM229.376 183.04V181.878H232.008V192H230.72V183.04H229.376ZM236.044 186.736C235.521 186.531 235.12 186.232 234.84 185.84C234.56 185.448 234.42 184.972 234.42 184.412C234.42 183.908 234.546 183.455 234.798 183.054C235.05 182.643 235.423 182.321 235.918 182.088C236.422 181.845 237.029 181.724 237.738 181.724C238.447 181.724 239.049 181.845 239.544 182.088C240.048 182.321 240.426 182.643 240.678 183.054C240.939 183.455 241.07 183.908 241.07 184.412C241.07 184.953 240.925 185.429 240.636 185.84C240.347 186.241 239.95 186.54 239.446 186.736C240.025 186.913 240.482 187.226 240.818 187.674C241.163 188.113 241.336 188.645 241.336 189.27C241.336 189.877 241.187 190.409 240.888 190.866C240.589 191.314 240.165 191.664 239.614 191.916C239.073 192.159 238.447 192.28 237.738 192.28C237.029 192.28 236.403 192.159 235.862 191.916C235.33 191.664 234.915 191.314 234.616 190.866C234.317 190.409 234.168 189.877 234.168 189.27C234.168 188.645 234.336 188.108 234.672 187.66C235.008 187.212 235.465 186.904 236.044 186.736ZM239.838 184.566C239.838 183.997 239.651 183.558 239.278 183.25C238.905 182.942 238.391 182.788 237.738 182.788C237.094 182.788 236.585 182.942 236.212 183.25C235.839 183.558 235.652 184.001 235.652 184.58C235.652 185.103 235.843 185.523 236.226 185.84C236.618 186.157 237.122 186.316 237.738 186.316C238.363 186.316 238.867 186.157 239.25 185.84C239.642 185.513 239.838 185.089 239.838 184.566ZM237.738 187.296C237.047 187.296 236.483 187.459 236.044 187.786C235.605 188.103 235.386 188.584 235.386 189.228C235.386 189.825 235.596 190.306 236.016 190.67C236.445 191.034 237.019 191.216 237.738 191.216C238.457 191.216 239.026 191.034 239.446 190.67C239.866 190.306 240.076 189.825 240.076 189.228C240.076 188.603 239.861 188.127 239.432 187.8C239.003 187.464 238.438 187.296 237.738 187.296Z" fill="#444444"/>
<path d="M262.714 88.978C263.899 88.026 264.828 87.2467 265.5 86.64C266.172 86.024 266.737 85.3847 267.194 84.722C267.661 84.05 267.894 83.392 267.894 82.748C267.894 82.1413 267.745 81.6653 267.446 81.32C267.157 80.9653 266.685 80.788 266.032 80.788C265.397 80.788 264.903 80.9887 264.548 81.39C264.203 81.782 264.016 82.3093 263.988 82.972H262.756C262.793 81.9267 263.111 81.1193 263.708 80.55C264.305 79.9807 265.075 79.696 266.018 79.696C266.979 79.696 267.74 79.962 268.3 80.494C268.869 81.026 269.154 81.7587 269.154 82.692C269.154 83.4667 268.921 84.2227 268.454 84.96C267.997 85.688 267.474 86.332 266.886 86.892C266.298 87.4427 265.547 88.0867 264.632 88.824H269.448V89.888H262.714V88.978ZM270.921 84.834C270.921 83.2287 271.182 81.978 271.705 81.082C272.227 80.1767 273.142 79.724 274.449 79.724C275.746 79.724 276.656 80.1767 277.179 81.082C277.701 81.978 277.963 83.2287 277.963 84.834C277.963 86.4673 277.701 87.7367 277.179 88.642C276.656 89.5473 275.746 90 274.449 90C273.142 90 272.227 89.5473 271.705 88.642C271.182 87.7367 270.921 86.4673 270.921 84.834ZM276.703 84.834C276.703 84.022 276.647 83.336 276.535 82.776C276.432 82.2067 276.213 81.7493 275.877 81.404C275.55 81.0587 275.074 80.886 274.449 80.886C273.814 80.886 273.329 81.0587 272.993 81.404C272.666 81.7493 272.447 82.2067 272.335 82.776C272.232 83.336 272.181 84.022 272.181 84.834C272.181 85.674 272.232 86.3787 272.335 86.948C272.447 87.5173 272.666 87.9747 272.993 88.32C273.329 88.6653 273.814 88.838 274.449 88.838C275.074 88.838 275.55 88.6653 275.877 88.32C276.213 87.9747 276.432 87.5173 276.535 86.948C276.647 86.3787 276.703 85.674 276.703 84.834ZM279.712 84.834C279.712 83.2287 279.973 81.978 280.496 81.082C281.018 80.1767 281.933 79.724 283.24 79.724C284.537 79.724 285.447 80.1767 285.97 81.082C286.492 81.978 286.754 83.2287 286.754 84.834C286.754 86.4673 286.492 87.7367 285.97 88.642C285.447 89.5473 284.537 90 283.24 90C281.933 90 281.018 89.5473 280.496 88.642C279.973 87.7367 279.712 86.4673 279.712 84.834ZM285.494 84.834C285.494 84.022 285.438 83.336 285.326 82.776C285.223 82.2067 285.004 81.7493 284.668 81.404C284.341 81.0587 283.865 80.886 283.24 80.886C282.605 80.886 282.12 81.0587 281.784 81.404C281.457 81.7493 281.238 82.2067 281.126 82.776C281.023 83.336 280.972 84.022 280.972 84.834C280.972 85.674 281.023 86.3787 281.126 86.948C281.238 87.5173 281.457 87.9747 281.784 88.32C282.12 88.6653 282.605 88.838 283.24 88.838C283.865 88.838 284.341 88.6653 284.668 88.32C285.004 87.9747 285.223 87.5173 285.326 86.948C285.438 86.3787 285.494 85.674 285.494 84.834ZM288.195 87.746V86.78L293.109 79.976H294.635V86.64H296.035V87.746H294.635V90H293.375V87.746H288.195ZM293.431 81.306L289.665 86.64H293.431V81.306Z" fill="#444444"/>
<path d="M262.714 122.978C263.899 122.026 264.828 121.247 265.5 120.64C266.172 120.024 266.737 119.385 267.194 118.722C267.661 118.05 267.894 117.392 267.894 116.748C267.894 116.141 267.745 115.665 267.446 115.32C267.157 114.965 266.685 114.788 266.032 114.788C265.397 114.788 264.903 114.989 264.548 115.39C264.203 115.782 264.016 116.309 263.988 116.972H262.756C262.793 115.927 263.111 115.119 263.708 114.55C264.305 113.981 265.075 113.696 266.018 113.696C266.979 113.696 267.74 113.962 268.3 114.494C268.869 115.026 269.154 115.759 269.154 116.692C269.154 117.467 268.921 118.223 268.454 118.96C267.997 119.688 267.474 120.332 266.886 120.892C266.298 121.443 265.547 122.087 264.632 122.824H269.448V123.888H262.714V122.978ZM270.921 118.834C270.921 117.229 271.182 115.978 271.705 115.082C272.227 114.177 273.142 113.724 274.449 113.724C275.746 113.724 276.656 114.177 277.179 115.082C277.701 115.978 277.963 117.229 277.963 118.834C277.963 120.467 277.701 121.737 277.179 122.642C276.656 123.547 275.746 124 274.449 124C273.142 124 272.227 123.547 271.705 122.642C271.182 121.737 270.921 120.467 270.921 118.834ZM276.703 118.834C276.703 118.022 276.647 117.336 276.535 116.776C276.432 116.207 276.213 115.749 275.877 115.404C275.55 115.059 275.074 114.886 274.449 114.886C273.814 114.886 273.329 115.059 272.993 115.404C272.666 115.749 272.447 116.207 272.335 116.776C272.232 117.336 272.181 118.022 272.181 118.834C272.181 119.674 272.232 120.379 272.335 120.948C272.447 121.517 272.666 121.975 272.993 122.32C273.329 122.665 273.814 122.838 274.449 122.838C275.074 122.838 275.55 122.665 275.877 122.32C276.213 121.975 276.432 121.517 276.535 120.948C276.647 120.379 276.703 119.674 276.703 118.834ZM279.712 118.834C279.712 117.229 279.973 115.978 280.496 115.082C281.018 114.177 281.933 113.724 283.24 113.724C284.537 113.724 285.447 114.177 285.97 115.082C286.492 115.978 286.754 117.229 286.754 118.834C286.754 120.467 286.492 121.737 285.97 122.642C285.447 123.547 284.537 124 283.24 124C281.933 124 281.018 123.547 280.496 122.642C279.973 121.737 279.712 120.467 279.712 118.834ZM285.494 118.834C285.494 118.022 285.438 117.336 285.326 116.776C285.223 116.207 285.004 115.749 284.668 115.404C284.341 115.059 283.865 114.886 283.24 114.886C282.605 114.886 282.12 115.059 281.784 115.404C281.457 115.749 281.238 116.207 281.126 116.776C281.023 117.336 280.972 118.022 280.972 118.834C280.972 119.674 281.023 120.379 281.126 120.948C281.238 121.517 281.457 121.975 281.784 122.32C282.12 122.665 282.605 122.838 283.24 122.838C283.865 122.838 284.341 122.665 284.668 122.32C285.004 121.975 285.223 121.517 285.326 120.948C285.438 120.379 285.494 119.674 285.494 118.834ZM290.141 121.284C290.234 121.816 290.449 122.227 290.785 122.516C291.13 122.805 291.592 122.95 292.171 122.95C292.945 122.95 293.515 122.647 293.879 122.04C294.252 121.433 294.429 120.411 294.411 118.974C294.215 119.394 293.888 119.725 293.431 119.968C292.973 120.201 292.465 120.318 291.905 120.318C291.279 120.318 290.719 120.192 290.225 119.94C289.739 119.679 289.357 119.301 289.077 118.806C288.797 118.311 288.657 117.714 288.657 117.014C288.657 116.015 288.946 115.213 289.525 114.606C290.103 113.99 290.925 113.682 291.989 113.682C293.295 113.682 294.21 114.107 294.733 114.956C295.265 115.805 295.531 117.07 295.531 118.75C295.531 119.926 295.423 120.897 295.209 121.662C295.003 122.427 294.649 123.011 294.145 123.412C293.65 123.813 292.969 124.014 292.101 124.014C291.149 124.014 290.407 123.757 289.875 123.244C289.343 122.731 289.039 122.077 288.965 121.284H290.141ZM292.115 119.24C292.74 119.24 293.253 119.049 293.655 118.666C294.056 118.274 294.257 117.747 294.257 117.084C294.257 116.384 294.061 115.819 293.669 115.39C293.277 114.961 292.726 114.746 292.017 114.746C291.363 114.746 290.841 114.951 290.449 115.362C290.066 115.773 289.875 116.314 289.875 116.986C289.875 117.667 290.066 118.213 290.449 118.624C290.831 119.035 291.387 119.24 292.115 119.24Z" fill="#444444"/>
<path d="M262.714 156.978C263.899 156.026 264.828 155.247 265.5 154.64C266.172 154.024 266.737 153.385 267.194 152.722C267.661 152.05 267.894 151.392 267.894 150.748C267.894 150.141 267.745 149.665 267.446 149.32C267.157 148.965 266.685 148.788 266.032 148.788C265.397 148.788 264.903 148.989 264.548 149.39C264.203 149.782 264.016 150.309 263.988 150.972H262.756C262.793 149.927 263.111 149.119 263.708 148.55C264.305 147.981 265.075 147.696 266.018 147.696C266.979 147.696 267.74 147.962 268.3 148.494C268.869 149.026 269.154 149.759 269.154 150.692C269.154 151.467 268.921 152.223 268.454 152.96C267.997 153.688 267.474 154.332 266.886 154.892C266.298 155.443 265.547 156.087 264.632 156.824H269.448V157.888H262.714V156.978ZM270.921 152.834C270.921 151.229 271.182 149.978 271.705 149.082C272.227 148.177 273.142 147.724 274.449 147.724C275.746 147.724 276.656 148.177 277.179 149.082C277.701 149.978 277.963 151.229 277.963 152.834C277.963 154.467 277.701 155.737 277.179 156.642C276.656 157.547 275.746 158 274.449 158C273.142 158 272.227 157.547 271.705 156.642C271.182 155.737 270.921 154.467 270.921 152.834ZM276.703 152.834C276.703 152.022 276.647 151.336 276.535 150.776C276.432 150.207 276.213 149.749 275.877 149.404C275.55 149.059 275.074 148.886 274.449 148.886C273.814 148.886 273.329 149.059 272.993 149.404C272.666 149.749 272.447 150.207 272.335 150.776C272.232 151.336 272.181 152.022 272.181 152.834C272.181 153.674 272.232 154.379 272.335 154.948C272.447 155.517 272.666 155.975 272.993 156.32C273.329 156.665 273.814 156.838 274.449 156.838C275.074 156.838 275.55 156.665 275.877 156.32C276.213 155.975 276.432 155.517 276.535 154.948C276.647 154.379 276.703 153.674 276.703 152.834ZM279.376 149.04V147.878H282.008V158H280.72V149.04H279.376ZM283.888 155.746V154.78L288.802 147.976H290.328V154.64H291.728V155.746H290.328V158H289.068V155.746H283.888ZM289.124 149.306L285.358 154.64H289.124V149.306Z" fill="#444444"/>
<path d="M262.714 190.978C263.899 190.026 264.828 189.247 265.5 188.64C266.172 188.024 266.737 187.385 267.194 186.722C267.661 186.05 267.894 185.392 267.894 184.748C267.894 184.141 267.745 183.665 267.446 183.32C267.157 182.965 266.685 182.788 266.032 182.788C265.397 182.788 264.903 182.989 264.548 183.39C264.203 183.782 264.016 184.309 263.988 184.972H262.756C262.793 183.927 263.111 183.119 263.708 182.55C264.305 181.981 265.075 181.696 266.018 181.696C266.979 181.696 267.74 181.962 268.3 182.494C268.869 183.026 269.154 183.759 269.154 184.692C269.154 185.467 268.921 186.223 268.454 186.96C267.997 187.688 267.474 188.332 266.886 188.892C266.298 189.443 265.547 190.087 264.632 190.824H269.448V191.888H262.714V190.978ZM270.921 186.834C270.921 185.229 271.182 183.978 271.705 183.082C272.227 182.177 273.142 181.724 274.449 181.724C275.746 181.724 276.656 182.177 277.179 183.082C277.701 183.978 277.963 185.229 277.963 186.834C277.963 188.467 277.701 189.737 277.179 190.642C276.656 191.547 275.746 192 274.449 192C273.142 192 272.227 191.547 271.705 190.642C271.182 189.737 270.921 188.467 270.921 186.834ZM276.703 186.834C276.703 186.022 276.647 185.336 276.535 184.776C276.432 184.207 276.213 183.749 275.877 183.404C275.55 183.059 275.074 182.886 274.449 182.886C273.814 182.886 273.329 183.059 272.993 183.404C272.666 183.749 272.447 184.207 272.335 184.776C272.232 185.336 272.181 186.022 272.181 186.834C272.181 187.674 272.232 188.379 272.335 188.948C272.447 189.517 272.666 189.975 272.993 190.32C273.329 190.665 273.814 190.838 274.449 190.838C275.074 190.838 275.55 190.665 275.877 190.32C276.213 189.975 276.432 189.517 276.535 188.948C276.647 188.379 276.703 187.674 276.703 186.834ZM279.376 183.04V181.878H282.008V192H280.72V183.04H279.376ZM285.834 189.284C285.927 189.816 286.142 190.227 286.478 190.516C286.823 190.805 287.285 190.95 287.864 190.95C288.639 190.95 289.208 190.647 289.572 190.04C289.945 189.433 290.123 188.411 290.104 186.974C289.908 187.394 289.581 187.725 289.124 187.968C288.667 188.201 288.158 188.318 287.598 188.318C286.973 188.318 286.413 188.192 285.918 187.94C285.433 187.679 285.05 187.301 284.77 186.806C284.49 186.311 284.35 185.714 284.35 185.014C284.35 184.015 284.639 183.213 285.218 182.606C285.797 181.99 286.618 181.682 287.682 181.682C288.989 181.682 289.903 182.107 290.426 182.956C290.958 183.805 291.224 185.07 291.224 186.75C291.224 187.926 291.117 188.897 290.902 189.662C290.697 190.427 290.342 191.011 289.838 191.412C289.343 191.813 288.662 192.014 287.794 192.014C286.842 192.014 286.1 191.757 285.568 191.244C285.036 190.731 284.733 190.077 284.658 189.284H285.834ZM287.808 187.24C288.433 187.24 288.947 187.049 289.348 186.666C289.749 186.274 289.95 185.747 289.95 185.084C289.95 184.384 289.754 183.819 289.362 183.39C288.97 182.961 288.419 182.746 287.71 182.746C287.057 182.746 286.534 182.951 286.142 183.362C285.759 183.773 285.568 184.314 285.568 184.986C285.568 185.667 285.759 186.213 286.142 186.624C286.525 187.035 287.08 187.24 287.808 187.24Z" fill="#444444"/>
<path d="M146.336 35.27V36.572H143.746V45H142.15V36.572H139.546V35.27H146.336ZM147.42 41.108C147.42 40.3333 147.579 39.6473 147.896 39.05C148.223 38.4527 148.662 37.9907 149.212 37.664C149.772 37.328 150.388 37.16 151.06 37.16C151.667 37.16 152.194 37.2813 152.642 37.524C153.1 37.7573 153.464 38.0513 153.734 38.406V37.286H155.344V45H153.734V43.852C153.464 44.216 153.095 44.5193 152.628 44.762C152.162 45.0047 151.63 45.126 151.032 45.126C150.37 45.126 149.763 44.958 149.212 44.622C148.662 44.2767 148.223 43.8007 147.896 43.194C147.579 42.578 147.42 41.8827 147.42 41.108ZM153.734 41.136C153.734 40.604 153.622 40.142 153.398 39.75C153.184 39.358 152.899 39.0593 152.544 38.854C152.19 38.6487 151.807 38.546 151.396 38.546C150.986 38.546 150.603 38.6487 150.248 38.854C149.894 39.05 149.604 39.344 149.38 39.736C149.166 40.1187 149.058 40.576 149.058 41.108C149.058 41.64 149.166 42.1067 149.38 42.508C149.604 42.9093 149.894 43.2173 150.248 43.432C150.612 43.6373 150.995 43.74 151.396 43.74C151.807 43.74 152.19 43.6373 152.544 43.432C152.899 43.2267 153.184 42.928 153.398 42.536C153.622 42.1347 153.734 41.668 153.734 41.136ZM161.431 37.16C162.019 37.16 162.541 37.286 162.999 37.538C163.465 37.79 163.829 38.1633 164.091 38.658C164.361 39.1527 164.497 39.75 164.497 40.45V45H162.915V40.688C162.915 39.9973 162.742 39.47 162.397 39.106C162.051 38.7327 161.58 38.546 160.983 38.546C160.385 38.546 159.909 38.7327 159.555 39.106C159.209 39.47 159.037 39.9973 159.037 40.688V45H157.441V34.64H159.037V38.182C159.307 37.8553 159.648 37.6033 160.059 37.426C160.479 37.2487 160.936 37.16 161.431 37.16ZM173.518 37.286V45H171.922V44.09C171.67 44.4073 171.339 44.6593 170.928 44.846C170.527 45.0233 170.098 45.112 169.64 45.112C169.034 45.112 168.488 44.986 168.002 44.734C167.526 44.482 167.148 44.1087 166.868 43.614C166.598 43.1193 166.462 42.522 166.462 41.822V37.286H168.044V41.584C168.044 42.2747 168.217 42.8067 168.562 43.18C168.908 43.544 169.379 43.726 169.976 43.726C170.574 43.726 171.045 43.544 171.39 43.18C171.745 42.8067 171.922 42.2747 171.922 41.584V37.286H173.518ZM179.516 37.16C180.123 37.16 180.664 37.286 181.14 37.538C181.626 37.79 182.004 38.1633 182.274 38.658C182.545 39.1527 182.68 39.75 182.68 40.45V45H181.098V40.688C181.098 39.9973 180.926 39.47 180.58 39.106C180.235 38.7327 179.764 38.546 179.166 38.546C178.569 38.546 178.093 38.7327 177.738 39.106C177.393 39.47 177.22 39.9973 177.22 40.688V45H175.624V37.286H177.22V38.168C177.482 37.8507 177.813 37.6033 178.214 37.426C178.625 37.2487 179.059 37.16 179.516 37.16Z" fill="#444444"/>
<line x1="15" y1="64" x2="310" y2="64" stroke="#F5F5F5" stroke-width="2"/>
<path d="M274 39.5C274 35.3583 277.358 32 281.5 32C285.642 32 289 35.3583 289 39.5C289 43.6422 285.642 47 281.5 47C277.358 47 274 43.6422 274 39.5ZM275.125 39.5C275.125 43.0208 277.979 45.875 281.5 45.875C285.021 45.875 287.875 43.0208 287.875 39.5C287.875 35.9797 285.02 33.125 281.5 33.125C277.98 33.125 275.125 35.9797 275.125 39.5ZM279.965 36.5632L280.02 36.5C280.219 36.2999 280.531 36.2811 280.752 36.444L280.815 36.4983L283.43 39.1015C283.63 39.3014 283.649 39.615 283.484 39.8356L283.43 39.8988L280.815 42.502C280.595 42.7212 280.239 42.7204 280.02 42.5003C279.82 42.3002 279.803 41.9876 279.967 41.7678L280.021 41.7048L282.235 39.5009L280.021 37.2955C279.821 37.0962 279.802 36.7838 279.965 36.5632Z" fill="#200E32"/>
<path d="M49 40.5C49 44.6417 45.6417 48 41.5 48C37.3583 48 34 44.6417 34 40.5C34 36.3578 37.3581 33 41.5 33C45.6419 33 49 36.3578 49 40.5ZM47.875 40.5C47.875 36.9792 45.0206 34.125 41.5 34.125C37.9794 34.125 35.125 36.9792 35.125 40.5C35.125 44.0203 37.9797 46.875 41.5 46.875C45.0203 46.875 47.875 44.0203 47.875 40.5ZM43.0347 43.4368L42.9803 43.5C42.7811 43.7001 42.4686 43.7189 42.248 43.556L42.1848 43.5017L39.5703 40.8985C39.3696 40.6986 39.3513 40.385 39.5156 40.1644L39.5703 40.1012L42.1848 37.498C42.405 37.2788 42.7611 37.2796 42.9803 37.4997C43.1796 37.6998 43.1971 38.0124 43.0332 38.2322L42.9786 38.2952L40.765 40.4991L42.9786 42.7045C43.1787 42.9038 43.1976 43.2162 43.0347 43.4368Z" fill="#200E32"/>
<defs>
<filter id="filter0_ddii" x="0" y="0" width="325" height="222" filterUnits="userSpaceOnUse" color-interpolation-filters="sRGB">
<feFlood flood-opacity="0" result="BackgroundImageFix"/>
<feColorMatrix in="SourceAlpha" type="matrix" values="0 0 0 0 0 0 0 0 0 0 0 0 0 0 0 0 0 0 127 0"/>
<feOffset dx="5" dy="-5"/>
<feGaussianBlur stdDeviation="5"/>
<feColorMatrix type="matrix" values="0 0 0 0 0.901961 0 0 0 0 0.901961 0 0 0 0 0.901961 0 0 0 0.2 0"/>
<feBlend mode="normal" in2="BackgroundImageFix" result="effect1_dropShadow"/>
<feColorMatrix in="SourceAlpha" type="matrix" values="0 0 0 0 0 0 0 0 0 0 0 0 0 0 0 0 0 0 127 0"/>
<feOffset dx="-5" dy="5"/>
<feGaussianBlur stdDeviation="5"/>
<feColorMatrix type="matrix" values="0 0 0 0 0.901961 0 0 0 0 0.901961 0 0 0 0 0.901961 0 0 0 0.2 0"/>
<feBlend mode="normal" in2="effect1_dropShadow" result="effect2_dropShadow"/>
<feBlend mode="normal" in="SourceGraphic" in2="effect2_dropShadow" result="shape"/>
<feColorMatrix in="SourceAlpha" type="matrix" values="0 0 0 0 0 0 0 0 0 0 0 0 0 0 0 0 0 0 127 0" result="hardAlpha"/>
<feOffset dx="-1" dy="-1"/>
<feGaussianBlur stdDeviation="1"/>
<feComposite in2="hardAlpha" operator="arithmetic" k2="-1" k3="1"/>
<feColorMatrix type="matrix" values="0 0 0 0 0.901961 0 0 0 0 0.901961 0 0 0 0 0.901961 0 0 0 0.5 0"/>
<feBlend mode="normal" in2="shape" result="effect3_innerShadow"/>
<feColorMatrix in="SourceAlpha" type="matrix" values="0 0 0 0 0 0 0 0 0 0 0 0 0 0 0 0 0 0 127 0" result="hardAlpha"/>
<feOffset dx="1" dy="1"/>
<feGaussianBlur stdDeviation="1"/>
<feComposite in2="hardAlpha" operator="arithmetic" k2="-1" k3="1"/>
<feColorMatrix type="matrix" values="0 0 0 0 1 0 0 0 0 1 0 0 0 0 1 0 0 0 0.3 0"/>
<feBlend mode="normal" in2="effect3_innerShadow" result="effect4_innerShadow"/>
</filter>
</defs>
</svg>
