<svg width="40" height="40" viewBox="0 0 40 40" fill="none" xmlns="http://www.w3.org/2000/svg">
<path d="M20 0C31.0457 0 40 8.95432 40 20C40 31.0457 31.0457 40 20 40C8.95432 40 0 31.0457 0 20C0 8.95432 8.95432 0 20 0ZM20 2.7907C10.4956 2.7907 2.7907 10.4956 2.7907 20C2.7907 29.5044 10.4956 37.2093 20 37.2093C29.5044 37.2093 37.2093 29.5044 37.2093 20C37.2093 10.4956 29.5044 2.7907 20 2.7907ZM17.5349 12.0893L17.743 12.1091C18.119 12.166 18.6276 12.3368 19.0786 12.515C21.129 13.3117 25.143 16.0073 26.677 17.6422L27.1242 18.1197L27.2836 18.304C27.6097 18.7174 27.7807 19.2241 27.7807 19.7431C27.7807 20.2316 27.6275 20.714 27.3338 21.1133C27.255 21.2208 27.1621 21.3234 26.9556 21.5441L26.416 22.1056C24.7914 23.6927 21.2754 26.0465 19.2788 26.8864C18.7244 27.1191 17.9272 27.3841 17.5477 27.3926C16.6579 27.4208 15.8206 26.9297 15.4091 26.1346C15.3012 25.9252 15.1665 25.4283 15.0652 24.9621L14.9634 24.4378C14.7777 23.2965 14.6773 21.5643 14.6791 19.7445L14.682 19.1677C14.7004 17.4525 14.8088 15.8896 14.9952 14.8733C15.0694 14.4598 15.2344 13.7477 15.3298 13.5171C15.5375 13.0188 15.9119 12.6164 16.3758 12.368C16.7342 12.1747 17.1408 12.0758 17.5349 12.0893ZM17.8121 15.0233L17.7596 15.2751L17.6917 15.6728C17.5504 16.638 17.4683 18.1375 17.4699 19.7446L17.4728 20.302C17.4894 21.7754 17.5779 23.1292 17.717 23.9844L17.814 24.454L18.1977 24.3136C19.9644 23.5704 23.4707 21.193 24.6581 19.9128L24.8186 19.7395L24.3948 19.303C22.9709 17.9397 19.6333 15.7245 18.0604 15.1133L17.8121 15.0233Z" fill="white"/>
</svg>
