<svg width="18" height="18" viewBox="0 0 18 18" fill="none" xmlns="http://www.w3.org/2000/svg">
<path d="M12.9229 0C15.9751 0 18 2.17499 18 5.30385V12.6961C18 15.825 15.9751 18 12.9229 18H5.07708C2.02493 18 0 15.825 0 12.6961V5.30385C0 2.17791 2.03027 0 5.07708 0H12.9229ZM12.9229 1.25581H5.07708C2.74431 1.25581 1.25581 2.85254 1.25581 5.30385V12.6961C1.25581 15.1507 2.73935 16.7442 5.07708 16.7442H12.9229C15.2607 16.7442 16.7442 15.1507 16.7442 12.6961V5.30385C16.7442 2.84929 15.2607 1.25581 12.9229 1.25581ZM9 5.29728C9.31788 5.29728 9.5806 5.5335 9.62217 5.83998L9.62791 5.92519L9.6273 8.3637L12.0698 8.36413C12.4166 8.36413 12.6977 8.64525 12.6977 8.99203C12.6977 9.30992 12.4615 9.57263 12.155 9.61421L12.0698 9.61994L9.6273 9.6192L9.62791 12.0589C9.62791 12.4057 9.34678 12.6868 9 12.6868C8.68211 12.6868 8.4194 12.4506 8.37782 12.1441L8.37209 12.0589L8.3718 9.6192L5.93023 9.61994C5.58345 9.61994 5.30233 9.33882 5.30233 8.99203C5.30233 8.67415 5.53855 8.41144 5.84503 8.36986L5.93023 8.36413L8.3718 8.3637L8.37209 5.92519C8.37209 5.5784 8.65322 5.29728 9 5.29728Z" fill="white" fill-opacity="0.9"/>
</svg>
