<svg width="40" height="40" viewBox="0 0 40 40" fill="none" xmlns="http://www.w3.org/2000/svg">
<path d="M19.9998 11.9997C20.6875 11.9997 21.2559 12.5112 21.3458 13.1748L21.3582 13.3593L21.3569 18.6392L26.6413 18.6402C27.3915 18.6402 27.9998 19.2489 27.9998 19.9997C27.9998 20.688 27.4887 21.2569 26.8256 21.3469L26.6413 21.3593L21.3569 21.3577L21.3582 26.6402C21.3582 27.391 20.75 27.9997 19.9998 27.9997C19.312 27.9997 18.7436 27.4882 18.6537 26.8246L18.6413 26.6402L18.6406 21.3577L13.3582 21.3593C12.608 21.3593 11.9998 20.7506 11.9998 19.9997C11.9998 19.3114 12.5108 18.7426 13.1739 18.6526L13.3582 18.6402L18.6406 18.6392L18.6413 13.3593C18.6413 12.6084 19.2495 11.9997 19.9998 11.9997Z" fill="#444444"/>
<circle cx="20" cy="20" r="18.5" stroke="#444444" stroke-width="3"/>
</svg>
