<svg width="15" height="19" viewBox="0 0 15 19" fill="none" xmlns="http://www.w3.org/2000/svg">
<path d="M8.00361 0.0933414L13.8602 2.18111C14.5157 2.4137 14.959 3.05354 14.9625 3.77061L14.9998 9.99622C15.0114 11.8836 14.3638 13.7139 13.1779 15.1481C12.6325 15.8063 11.9334 16.3717 11.0407 16.8773L7.89257 18.6654C7.79397 18.7205 7.6856 18.749 7.57634 18.75C7.46708 18.7509 7.35782 18.7233 7.26011 18.6691L4.08266 16.9224C3.18015 16.425 2.47484 15.8679 1.9241 15.2189C0.718676 13.7994 0.0488993 11.9774 0.0373515 10.0872L2.13322e-05 3.86622C-0.00351027 3.14823 0.431756 2.50379 1.08377 2.26201L6.91811 0.0997767C7.26455 -0.0307663 7.65096 -0.0335243 8.00361 0.0933414ZM10.8042 6.76749C10.5422 6.49997 10.1202 6.50181 9.86175 6.77301L6.88951 9.88581L5.67254 8.6429C5.41049 8.37537 4.98944 8.37813 4.73005 8.64933C4.47156 8.92053 4.47422 9.35629 4.73627 9.62381L6.4267 11.3521C6.55817 11.4863 6.72872 11.5525 6.89928 11.5507C7.06983 11.5498 7.2395 11.4817 7.36919 11.3457L10.8096 7.74197C11.0681 7.47077 11.0654 7.03501 10.8042 6.76749Z" fill="#0EE10F"/>
</svg>
