<svg width="208" height="24" viewBox="0 0 208 24" fill="none" xmlns="http://www.w3.org/2000/svg">
<path d="M8.0695 18.792C12.1015 18.792 14.9575 17.064 14.9575 13.608C14.9575 10.296 11.6455 9.312 9.0535 8.664C8.3575 8.496 7.6855 8.352 7.0375 8.184C6.4375 8.016 5.8615 7.872 5.3815 7.656C4.3975 7.248 4.0375 6.816 4.0375 6.288C4.0375 5.616 4.3255 4.2 7.6615 4.2C10.3495 4.2 11.3575 5.328 11.5735 7.056H14.5975C14.3815 3.672 12.1495 1.32 7.6615 1.32C3.5095 1.32 1.0855 3.264 1.0855 6.312C1.0855 9.576 4.3975 10.512 6.9655 11.16C7.6615 11.328 8.3335 11.496 8.9575 11.664C9.5575 11.808 10.1335 12 10.6135 12.216C11.5735 12.624 11.9575 13.08 11.9575 13.68C11.9575 15 10.8295 15.888 8.1895 15.888C5.4775 15.888 3.7735 15 3.6535 12.648H0.5575C0.8695 16.512 3.1255 18.792 8.0695 18.792ZM17.7711 14.04C17.7711 18.168 22.0671 20.136 25.3791 17.304L24.0111 14.952C22.5231 16.152 21.8271 15.936 21.3471 15.408C21.0831 15.12 20.9391 14.664 20.9391 14.112V7.872H24.2991V5.232H20.9391V1.224H17.7711V5.232H16.1631V7.872H17.7711V14.04ZM31.864 8.04C34.12 8.04 35.416 9.768 35.416 12C35.416 14.232 34.12 15.96 31.864 15.96C29.608 15.96 28.216 14.208 28.216 12C28.216 9.792 29.608 8.04 31.864 8.04ZM38.32 18.6V5.4H35.32V6.408C34.36 5.664 33.136 5.208 31.624 5.208C27.736 5.208 25.216 8.304 25.216 12C25.216 15.696 27.736 18.792 31.624 18.792C33.136 18.792 34.36 18.36 35.32 17.592V18.6H38.32ZM41.8414 14.04C41.8414 18.168 46.1374 20.136 49.4494 17.304L48.0814 14.952C46.5934 16.152 45.8974 15.936 45.4174 15.408C45.1534 15.12 45.0094 14.664 45.0094 14.112V7.872H48.3694V5.232H45.0094V1.224H41.8414V5.232H40.2334V7.872H41.8414V14.04ZM53.2647 18.6V5.4H50.2647V18.6H53.2647ZM53.3367 4.584V1.032H50.1927V4.584H53.3367ZM60.1546 18.792C63.2506 18.792 65.6506 17.424 65.6506 14.592C65.6506 11.256 62.0746 10.872 59.7226 10.32C59.2906 10.2 58.8826 10.104 58.5226 9.96C57.8506 9.696 57.6586 9.408 57.6586 9.072C57.6586 8.472 58.0666 7.944 59.9146 7.944C61.6906 7.944 62.1466 8.616 62.3146 9.816H65.3386C65.0026 7.08 63.4186 5.208 59.9626 5.208C56.7226 5.208 54.6586 6.6 54.6586 9.24C54.6586 11.976 57.2266 12.672 59.1226 13.104C59.6266 13.224 60.1066 13.32 60.5866 13.44C61.0186 13.536 61.4266 13.656 61.7626 13.8C62.4346 14.088 62.6506 14.376 62.6506 14.76C62.6506 16.032 60.9466 16.056 60.1786 16.056C58.1626 16.056 57.5146 15.072 57.3706 13.632H54.3226C54.4906 16.752 56.5546 18.792 60.1546 18.792ZM68.3727 14.04C68.3727 18.168 72.6687 20.136 75.9807 17.304L74.6127 14.952C73.1247 16.152 72.4287 15.936 71.9487 15.408C71.6847 15.12 71.5407 14.664 71.5407 14.112V7.872H74.9007V5.232H71.5407V1.224H68.3727V5.232H66.7647V7.872H68.3727V14.04ZM79.7959 18.6V5.4H76.7959V18.6H79.7959ZM79.8679 4.584V1.032H76.7239V4.584H79.8679ZM93.9578 18.6L88.3898 10.8L93.8858 5.4H89.6378L84.7178 10.464V0.599999H81.7178V18.6H84.7178V14.448L86.2778 12.912L90.2618 18.6H93.9578ZM110.439 8.04C112.695 8.04 114.087 9.792 114.087 12C114.087 14.208 112.695 15.96 110.439 15.96C108.183 15.96 106.887 14.232 106.887 12C106.887 9.768 108.183 8.04 110.439 8.04ZM110.679 18.792C114.567 18.792 117.087 15.696 117.087 12C117.087 8.304 114.567 5.208 110.679 5.208C109.167 5.208 107.943 5.64 106.983 6.408V5.4H103.983V23.352H106.983V17.592C107.943 18.336 109.167 18.792 110.679 18.792ZM124.041 8.04C125.745 8.04 126.897 9.024 127.353 10.44H120.729C121.185 9.024 122.337 8.04 124.041 8.04ZM130.593 13.32V12C130.593 8.28 128.097 5.208 124.041 5.208C119.985 5.208 117.489 8.28 117.489 12C117.489 15.72 120.129 18.792 124.161 18.792C127.305 18.792 129.273 17.112 130.521 13.944H127.305C126.585 15.288 125.625 15.96 124.185 15.96C122.361 15.96 121.113 14.856 120.657 13.32H130.593ZM143.833 18.6L138.265 10.8L143.761 5.4H139.513L134.593 10.464V0.599999H131.593V18.6H134.593V14.448L136.153 12.912L140.137 18.6H143.833ZM148.934 8.04C151.19 8.04 152.486 9.768 152.486 12C152.486 14.232 151.19 15.96 148.934 15.96C146.678 15.96 145.286 14.208 145.286 12C145.286 9.792 146.678 8.04 148.934 8.04ZM155.39 18.6V5.4H152.39V6.408C151.43 5.664 150.206 5.208 148.694 5.208C144.806 5.208 142.286 8.304 142.286 12C142.286 15.696 144.806 18.792 148.694 18.792C150.206 18.792 151.43 18.36 152.39 17.592V18.6H155.39ZM169.325 12.384V9.432H162.125V12.384H169.325ZM181.981 8.04C184.237 8.04 185.533 9.768 185.533 12C185.533 14.232 184.237 15.96 181.981 15.96C179.725 15.96 178.333 14.208 178.333 12C178.333 9.792 179.725 8.04 181.981 8.04ZM188.437 18.6V5.4H185.437V6.408C184.477 5.664 183.253 5.208 181.741 5.208C177.853 5.208 175.333 8.304 175.333 12C175.333 15.696 177.853 18.792 181.741 18.792C183.253 18.792 184.477 18.36 185.437 17.592V18.6H188.437ZM196.807 8.04C199.063 8.04 200.455 9.792 200.455 12C200.455 14.208 199.063 15.96 196.807 15.96C194.551 15.96 193.255 14.232 193.255 12C193.255 9.768 194.551 8.04 196.807 8.04ZM197.047 18.792C200.935 18.792 203.455 15.696 203.455 12C203.455 8.304 200.935 5.208 197.047 5.208C195.535 5.208 194.311 5.64 193.351 6.408V5.4H190.351V23.352H193.351V17.592C194.311 18.336 195.535 18.792 197.047 18.792ZM207.601 18.6V5.4H204.601V18.6H207.601ZM207.673 4.584V1.032H204.529V4.584H207.673Z" fill="url(#paint0_linear)"/>
<defs>
<linearGradient id="paint0_linear" x1="-6.81263e-07" y1="11" x2="234" y2="11" gradientUnits="userSpaceOnUse">
<stop stop-color="#6BB5E5"/>
<stop offset="1" stop-color="#1769CD"/>
</linearGradient>
</defs>
</svg>
