<svg width="168" height="15" viewBox="0 0 168 15" fill="none" xmlns="http://www.w3.org/2000/svg">
<path d="M0.43821 14H2.41335V9.39773H5.09801C8.13423 9.39773 9.63636 7.56321 9.63636 5.14702C9.63636 2.73722 8.14702 0.909091 5.1044 0.909091H0.43821V14ZM2.41335 7.72301V2.60298H4.89347C6.84943 2.60298 7.64844 3.66406 7.64844 5.14702C7.64844 6.62997 6.84943 7.72301 4.91903 7.72301H2.41335ZM23.3593 7.45455C23.3593 3.26776 20.8536 0.730113 17.4659 0.730113C14.0653 0.730113 11.566 3.26776 11.566 7.45455C11.566 11.6349 14.0653 14.179 17.4659 14.179C20.8536 14.179 23.3593 11.6413 23.3593 7.45455ZM21.4034 7.45455C21.4034 10.6442 19.7159 12.3764 17.4659 12.3764C15.2095 12.3764 13.5284 10.6442 13.5284 7.45455C13.5284 4.26491 15.2095 2.53267 17.4659 2.53267C19.7159 2.53267 21.4034 4.26491 21.4034 7.45455ZM24.6673 2.60938H28.7455V14H30.7142V2.60938H34.7987V0.909091H24.6673V2.60938ZM37.0736 14H45.3576V12.2997H39.0487V8.2919H44.8527V6.59801H39.0487V2.60938H45.2809V0.909091H37.0736V14ZM58.5213 0.909091H56.5653V10.5227H56.4439L49.7834 0.909091H47.9553V14H49.9304V4.39915H50.0518L56.706 14H58.5213V0.909091ZM68.5784 4.34801H70.4833C70.4257 2.25142 68.572 0.730113 65.913 0.730113C63.2858 0.730113 61.2723 2.23224 61.2723 4.48864C61.2723 6.31037 62.5763 7.37784 64.6793 7.94673L66.2262 8.36861C67.626 8.73935 68.7063 9.19957 68.7063 10.3629C68.7063 11.6413 67.4854 12.4851 65.8043 12.4851C64.283 12.4851 63.0174 11.8075 62.9023 10.3821H60.9208C61.0486 12.7536 62.8831 14.2173 65.8171 14.2173C68.8916 14.2173 70.6622 12.6001 70.6622 10.3821C70.6622 8.02344 68.5593 7.10938 66.8973 6.70028L65.6189 6.3679C64.5962 6.10582 63.2347 5.62642 63.2411 4.37358C63.2411 3.26136 64.2574 2.43679 65.8682 2.43679C67.3703 2.43679 68.4378 3.13991 68.5784 4.34801ZM75.0337 0.909091H73.0585V14H75.0337V0.909091ZM82.7457 14H84.7209V8.2919H91.2472V14H93.2287V0.909091H91.2472V6.59801H84.7209V0.909091H82.7457V14ZM107.513 7.45455C107.513 3.26776 105.007 0.730113 101.619 0.730113C98.2185 0.730113 95.7192 3.26776 95.7192 7.45455C95.7192 11.6349 98.2185 14.179 101.619 14.179C105.007 14.179 107.513 11.6413 107.513 7.45455ZM105.557 7.45455C105.557 10.6442 103.869 12.3764 101.619 12.3764C99.3627 12.3764 97.6816 10.6442 97.6816 7.45455C97.6816 4.26491 99.3627 2.53267 101.619 2.53267C103.869 2.53267 105.557 4.26491 105.557 7.45455ZM108.821 2.60938H112.899V14H114.867V2.60938H118.952V0.909091H108.821V2.60938ZM128.367 4.34801H130.272C130.214 2.25142 128.36 0.730113 125.701 0.730113C123.074 0.730113 121.061 2.23224 121.061 4.48864C121.061 6.31037 122.365 7.37784 124.468 7.94673L126.014 8.36861C127.414 8.73935 128.495 9.19957 128.495 10.3629C128.495 11.6413 127.274 12.4851 125.593 12.4851C124.071 12.4851 122.806 11.8075 122.691 10.3821H120.709C120.837 12.7536 122.671 14.2173 125.605 14.2173C128.68 14.2173 130.451 12.6001 130.451 10.3821C130.451 8.02344 128.348 7.10938 126.686 6.70028L125.407 6.3679C124.384 6.10582 123.023 5.62642 123.029 4.37358C123.029 3.26136 124.046 2.43679 125.656 2.43679C127.159 2.43679 128.226 3.13991 128.367 4.34801ZM132.847 14H134.822V9.39773H137.507C140.543 9.39773 142.045 7.56321 142.045 5.14702C142.045 2.73722 140.556 0.909091 137.513 0.909091H132.847V14ZM134.822 7.72301V2.60298H137.302C139.258 2.60298 140.057 3.66406 140.057 5.14702C140.057 6.62997 139.258 7.72301 137.328 7.72301H134.822ZM155.768 7.45455C155.768 3.26776 153.262 0.730113 149.874 0.730113C146.474 0.730113 143.975 3.26776 143.975 7.45455C143.975 11.6349 146.474 14.179 149.874 14.179C153.262 14.179 155.768 11.6413 155.768 7.45455ZM153.812 7.45455C153.812 10.6442 152.124 12.3764 149.874 12.3764C147.618 12.3764 145.937 10.6442 145.937 7.45455C145.937 4.26491 147.618 2.53267 149.874 2.53267C152.124 2.53267 153.812 4.26491 153.812 7.45455ZM157.076 2.60938H161.154V14H163.123V2.60938H167.207V0.909091H157.076V2.60938Z" fill="#7B1FA2"/>
</svg>
