<svg width="109" height="15" viewBox="0 0 109 15" fill="none" xmlns="http://www.w3.org/2000/svg">
<path d="M4.67614 14C8.66477 14 10.9723 11.5263 10.9723 7.43537C10.9723 3.36364 8.66477 0.909091 4.81037 0.909091H0.43821V14H4.67614ZM2.41335 12.2741V2.63494H4.68892C7.55256 2.63494 9.02912 4.34801 9.02912 7.43537C9.02912 10.5355 7.55256 12.2741 4.56747 12.2741H2.41335ZM13.4644 14H21.7485V12.2997H15.4396V8.2919H21.2436V6.59801H15.4396V2.60938H21.6718V0.909091H13.4644V14ZM25.4903 0.909091H23.3554L28.0663 14H30.3483L35.0592 0.909091H32.9243L29.2808 11.571H29.1338L25.4903 0.909091ZM36.9857 14H45.2698V12.2997H38.9608V8.2919H44.7648V6.59801H38.9608V2.60938H45.1931V0.909091H36.9857V14ZM56.7267 5.04474H58.753C58.312 2.49432 56.1323 0.730113 53.307 0.730113C49.9192 0.730113 47.4455 3.28054 47.4455 7.46094C47.4455 11.603 49.8489 14.179 53.3965 14.179C56.5733 14.179 58.8425 12.0952 58.8425 8.79048V7.30114H53.6969V8.93111H56.9313C56.8865 11.0405 55.4931 12.3764 53.3965 12.3764C51.089 12.3764 49.4079 10.6314 49.4079 7.44815C49.4079 4.2777 51.1017 2.53267 53.3198 2.53267C55.0584 2.53267 56.2346 3.49148 56.7267 5.04474ZM61.3858 14H69.6699V12.2997H63.3609V8.2919H69.1649V6.59801H63.3609V2.60938H69.5932V0.909091H61.3858V14ZM71.6219 2.60938H75.7V14H77.6688V2.60938H81.7533V0.909091H71.6219V2.60938ZM83.5695 14L84.7712 10.5355H89.8848L91.0801 14H93.1767L88.4658 0.909091H86.1838L81.4729 14H83.5695ZM85.3465 8.87358L87.2769 3.28693H87.3791L89.3095 8.87358H85.3465ZM102.138 4.34801H104.042C103.985 2.25142 102.131 0.730113 99.4721 0.730113C96.845 0.730113 94.8315 2.23224 94.8315 4.48864C94.8315 6.31037 96.1355 7.37784 98.2385 7.94673L99.7853 8.36861C101.185 8.73935 102.265 9.19957 102.265 10.3629C102.265 11.6413 101.045 12.4851 99.3635 12.4851C97.8422 12.4851 96.5765 11.8075 96.4615 10.3821H94.4799C94.6078 12.7536 96.4423 14.2173 99.3762 14.2173C102.451 14.2173 104.221 12.6001 104.221 10.3821C104.221 8.02344 102.118 7.10938 100.457 6.70028L99.1781 6.3679C98.1554 6.10582 96.7939 5.62642 96.8003 4.37358C96.8003 3.26136 97.8166 2.43679 99.4274 2.43679C100.93 2.43679 101.997 3.13991 102.138 4.34801ZM108.593 0.909091H106.618V14H108.593V0.909091Z" fill="#17B614"/>
</svg>
