<svg width="162" height="15" viewBox="0 0 162 15" fill="none" xmlns="http://www.w3.org/2000/svg">
<path d="M0.43821 14H2.41335V8.2919H8.93963V14H10.9212V0.909091H8.93963V6.59801H2.41335V0.909091H0.43821V14ZM25.205 7.45455C25.205 3.26776 22.6994 0.730113 19.3116 0.730113C15.911 0.730113 13.4117 3.26776 13.4117 7.45455C13.4117 11.6349 15.911 14.179 19.3116 14.179C22.6994 14.179 25.205 11.6413 25.205 7.45455ZM23.2491 7.45455C23.2491 10.6442 21.5616 12.3764 19.3116 12.3764C17.0552 12.3764 15.3741 10.6442 15.3741 7.45455C15.3741 4.26491 17.0552 2.53267 19.3116 2.53267C21.5616 2.53267 23.2491 4.26491 23.2491 7.45455ZM26.5131 2.60938H30.5912V14H32.5599V2.60938H36.6444V0.909091H26.5131V2.60938ZM46.0592 4.34801H47.964C47.9065 2.25142 46.0528 0.730113 43.3937 0.730113C40.7666 0.730113 38.7531 2.23224 38.7531 4.48864C38.7531 6.31037 40.057 7.37784 42.16 7.94673L43.7069 8.36861C45.1068 8.73935 46.187 9.19957 46.187 10.3629C46.187 11.6413 44.9661 12.4851 43.285 12.4851C41.7637 12.4851 40.4981 11.8075 40.383 10.3821H38.4015C38.5293 12.7536 40.3639 14.2173 43.2978 14.2173C46.3724 14.2173 48.143 12.6001 48.143 10.3821C48.143 8.02344 46.04 7.10938 44.3781 6.70028L43.0997 6.3679C42.0769 6.10582 40.7154 5.62642 40.7218 4.37358C40.7218 3.26136 41.7382 2.43679 43.3489 2.43679C44.8511 2.43679 45.9185 3.13991 46.0592 4.34801ZM50.5392 14H52.5144V9.39773H55.199C58.2353 9.39773 59.7374 7.56321 59.7374 5.14702C59.7374 2.73722 58.248 0.909091 55.2054 0.909091H50.5392V14ZM52.5144 7.72301V2.60298H54.9945C56.9505 2.60298 57.7495 3.66406 57.7495 5.14702C57.7495 6.62997 56.9505 7.72301 55.0201 7.72301H52.5144ZM73.4604 7.45455C73.4604 3.26776 70.9547 0.730113 67.5669 0.730113C64.1663 0.730113 61.667 3.26776 61.667 7.45455C61.667 11.6349 64.1663 14.179 67.5669 14.179C70.9547 14.179 73.4604 11.6413 73.4604 7.45455ZM71.5044 7.45455C71.5044 10.6442 69.8169 12.3764 67.5669 12.3764C65.3105 12.3764 63.6294 10.6442 63.6294 7.45455C63.6294 4.26491 65.3105 2.53267 67.5669 2.53267C69.8169 2.53267 71.5044 4.26491 71.5044 7.45455ZM74.7684 2.60938H78.8465V14H80.8153V2.60938H84.8998V0.909091H74.7684V2.60938ZM99.1142 4.34801H101.019C100.961 2.25142 99.1078 0.730113 96.4487 0.730113C93.8216 0.730113 91.8081 2.23224 91.8081 4.48864C91.8081 6.31037 93.112 7.37784 95.215 7.94673L96.7619 8.36861C98.1618 8.73935 99.242 9.19957 99.242 10.3629C99.242 11.6413 98.0211 12.4851 96.34 12.4851C94.8187 12.4851 93.5531 11.8075 93.438 10.3821H91.4565C91.5843 12.7536 93.4189 14.2173 96.3528 14.2173C99.4274 14.2173 101.198 12.6001 101.198 10.3821C101.198 8.02344 99.095 7.10938 97.4331 6.70028L96.1547 6.3679C95.1319 6.10582 93.7704 5.62642 93.7768 4.37358C93.7768 3.26136 94.7932 2.43679 96.4039 2.43679C97.9061 2.43679 98.9735 3.13991 99.1142 4.34801ZM104.595 14L105.796 10.5355H110.91L112.105 14H114.202L109.491 0.909091H107.209L102.498 14H104.595ZM106.372 8.87358L108.302 3.28693H108.404L110.335 8.87358H106.372ZM113.918 2.60938H117.996V14H119.965V2.60938H124.05V0.909091H113.918V2.60938ZM126.324 14H134.609V12.2997H128.3V8.2919H134.104V6.59801H128.3V2.60938H134.532V0.909091H126.324V14ZM137.206 14H145.113V12.2997H139.181V0.909091H137.206V14ZM149.377 0.909091H147.402V14H149.377V0.909091ZM151.644 2.60938H155.722V14H157.691V2.60938H161.776V0.909091H151.644V2.60938Z" fill="#3751FF"/>
</svg>
