<svg width="26" height="26" viewBox="0 0 26 26" fill="none" xmlns="http://www.w3.org/2000/svg">
<path d="M16.2459 1.05753C16.7676 1.05753 17.1906 1.47922 17.1906 1.99939C17.1906 2.47622 16.8352 2.87029 16.3741 2.93266L16.2459 2.94125H7.09058C3.99837 2.94125 2.00912 4.98261 1.89478 8.16691L1.88957 8.45952V18.6095C1.88957 21.8778 3.75833 23.9894 6.80992 24.1107L7.09058 24.1163H17.9293C21.0242 24.1163 23.0109 22.0829 23.1251 18.9018L23.1303 18.6095V9.76994C23.1303 9.24976 23.5533 8.82807 24.0751 8.82807C24.5534 8.82807 24.9487 9.18241 25.0113 9.64213L25.0199 9.76994V18.6095C25.0199 22.8672 22.3237 25.8583 18.2245 25.9951L17.9293 26H7.09058C2.89497 26 0.130815 23.1241 0.00451872 18.9126L0 18.6095V8.45952C0 4.19981 2.69777 1.19968 6.79552 1.06244L7.09058 1.05753H16.2459ZM18.9116 9.63464C19.2865 9.92427 19.3828 10.4395 19.1571 10.8398L19.0797 10.956L15.3899 15.7034C15.098 16.079 14.578 16.1739 14.1762 15.9455L14.0595 15.8672L10.5085 13.0868L7.3205 17.2182C7.03124 17.593 6.5147 17.6908 6.11247 17.4671L5.99557 17.3904C5.61962 17.102 5.52156 16.5871 5.74589 16.1861L5.82291 16.0695L9.59341 11.1842C9.88473 10.8067 10.406 10.7107 10.8089 10.9395L10.9258 11.0179L14.4779 13.8001L17.5861 9.80229C17.9056 9.3911 18.4991 9.31604 18.9116 9.63464ZM22.6338 0C24.4929 0 26 1.50244 26 3.35579C26 5.20914 24.4929 6.71158 22.6338 6.71158C20.7747 6.71158 19.2676 5.20914 19.2676 3.35579C19.2676 1.50244 20.7747 0 22.6338 0ZM22.6338 1.88372C21.8183 1.88372 21.1572 2.54279 21.1572 3.35579C21.1572 4.16879 21.8183 4.82785 22.6338 4.82785C23.4493 4.82785 24.1104 4.16879 24.1104 3.35579C24.1104 2.54279 23.4493 1.88372 22.6338 1.88372Z" fill="white"/>
</svg>
