<svg width="24" height="24" viewBox="0 0 24 24" fill="none" xmlns="http://www.w3.org/2000/svg">
<path fill-rule="evenodd" clip-rule="evenodd" d="M17.2002 0C19.134 0 20.8021 0.645886 22.0228 1.8691C23.2988 3.14644 23.9987 5.00471 23.9963 7.10234L23.9981 15.5174C24.0002 15.5497 24.0006 15.5822 23.9992 15.6146L23.9963 16.8989C23.9963 21.1458 21.2627 24 17.1942 24H6.79613C2.7312 24 0 21.1458 0 16.8989V7.10113C0 2.85416 2.7312 0 6.79613 0H17.2002ZM17.5328 13.0287C16.8257 13.0287 15.9959 14.199 15.2611 15.2322C14.2532 16.6515 13.2105 18.12 11.6399 18.12C10.578 18.12 9.60502 17.7111 8.74754 17.3491C7.38374 16.7741 6.76558 16.5901 6.16066 17.0881C4.94971 18.086 3.75318 19.9033 3.20339 20.7976C4.07116 21.6923 5.30385 22.1959 6.79613 22.1959H17.1942C20.2309 22.1959 22.1924 20.1175 22.1924 16.8989L22.1924 15.9379L22.1646 15.9086C21.1118 14.8238 19.2938 13.0287 17.5328 13.0287ZM17.2002 1.80415H6.79613C3.76427 1.80415 1.80396 3.88373 1.80396 7.10113V16.8989C1.80396 17.703 1.92633 18.436 2.15721 19.0832C2.85316 18.0323 3.90425 16.6095 5.01454 15.6953C6.52025 14.4564 8.14141 15.1372 9.44748 15.6868C10.216 16.0104 10.9424 16.3159 11.6399 16.3159C12.2797 16.3159 13.0819 15.1853 13.7914 14.1882C14.7764 12.7978 15.8948 11.2246 17.5328 11.2246C19.3305 11.2246 20.9586 12.3294 22.1936 13.4258L22.1924 7.10113C22.1948 5.46176 21.6945 4.09301 20.7468 3.14403C19.8713 2.26721 18.6458 1.80415 17.2002 1.80415ZM8.24652 5.03899C9.9675 5.04019 11.3674 6.44021 11.3686 8.16017V8.16137C11.3686 9.88253 9.9687 11.2825 8.24652 11.2825C6.52433 11.2825 5.12446 9.88253 5.12446 8.16137C5.12446 6.43901 6.52433 5.03899 8.24652 5.03899ZM8.24532 6.84314C7.51892 6.84314 6.92842 7.4337 6.92842 8.16137C6.92842 8.88784 7.51892 9.4784 8.24652 9.4784C8.97291 9.4784 9.56461 8.88784 9.56461 8.16257C9.56341 7.4349 8.97171 6.84434 8.24532 6.84314Z" fill="white"/>
</svg>
